<svg xmlns="http://www.w3.org/2000/svg" viewBox="0 0 1984.48 2397.91"><defs><style>.cls-1{fill:#050403;}.cls-2{fill:#f1641f;}.cls-3{fill:#fff;}.cls-4{fill:#cbc6c1;}.cls-5{fill:#fff089;}.cls-6{fill:#f8c53a;}</style></defs><g id="Layer_2" data-name="Layer 2"><g id="Layer_1-2" data-name="Layer 1"><rect class="cls-1" x="496.12" width="82.69" height="82.69"/><rect class="cls-1" x="578.81" width="82.69" height="82.69"/><rect class="cls-1" x="248.06" y="82.69" width="82.69" height="82.69"/><rect class="cls-1" x="330.75" y="82.69" width="82.69" height="82.69"/><rect class="cls-1" x="496.12" y="82.69" width="82.69" height="82.69"/><rect class="cls-2" x="578.81" y="82.69" width="82.69" height="82.69"/><rect class="cls-1" x="661.49" y="82.69" width="82.69" height="82.69"/><rect class="cls-1" x="248.06" y="165.37" width="82.69" height="82.69"/><rect class="cls-2" x="330.75" y="165.37" width="82.69" height="82.69"/><rect class="cls-1" x="413.43" y="165.37" width="82.69" height="82.69"/><rect class="cls-2" x="496.12" y="165.37" width="82.69" height="82.69"/><rect class="cls-2" x="578.81" y="165.37" width="82.69" height="82.69"/><rect class="cls-2" x="661.49" y="165.37" width="82.69" height="82.69"/><rect class="cls-1" x="744.18" y="165.37" width="82.69" height="82.69"/><rect class="cls-1" x="165.37" y="248.06" width="82.69" height="82.69"/><rect class="cls-2" x="248.06" y="248.06" width="82.69" height="82.69"/><rect class="cls-2" x="330.75" y="248.06" width="82.69" height="82.69"/><rect class="cls-2" x="413.43" y="248.06" width="82.69" height="82.69"/><rect class="cls-2" x="496.12" y="248.06" width="82.69" height="82.69"/><rect class="cls-3" x="578.81" y="248.06" width="82.69" height="82.69"/><rect class="cls-3" x="661.49" y="248.06" width="82.69" height="82.69"/><rect class="cls-3" x="744.18" y="248.06" width="82.69" height="82.69"/><rect class="cls-1" x="826.87" y="248.06" width="82.69" height="82.69"/><rect class="cls-1" x="165.37" y="330.75" width="82.69" height="82.69"/><rect class="cls-2" x="248.06" y="330.75" width="82.69" height="82.69"/><rect class="cls-2" x="330.75" y="330.75" width="82.69" height="82.69"/><rect class="cls-3" x="413.43" y="330.75" width="82.69" height="82.69"/><rect class="cls-3" x="496.12" y="330.75" width="82.69" height="82.69"/><rect class="cls-3" x="578.81" y="330.75" width="82.69" height="82.69"/><rect class="cls-3" x="661.49" y="330.75" width="82.69" height="82.69"/><rect class="cls-3" x="744.18" y="330.75" width="82.69" height="82.69"/><rect class="cls-3" x="826.87" y="330.75" width="82.69" height="82.69"/><rect class="cls-1" x="909.55" y="330.75" width="82.69" height="82.69"/><rect class="cls-1" x="82.69" y="413.43" width="82.69" height="82.69"/><rect class="cls-3" x="165.37" y="413.43" width="82.69" height="82.69"/><rect class="cls-3" x="248.06" y="413.43" width="82.69" height="82.69"/><rect class="cls-3" x="330.75" y="413.43" width="82.69" height="82.69"/><rect class="cls-3" x="413.43" y="413.43" width="82.69" height="82.69"/><rect class="cls-3" x="496.12" y="413.43" width="82.69" height="82.69"/><rect class="cls-3" x="578.81" y="413.43" width="82.69" height="82.69"/><rect class="cls-3" x="661.49" y="413.43" width="82.69" height="82.69"/><rect class="cls-3" x="744.18" y="413.43" width="82.69" height="82.69"/><rect class="cls-3" x="826.87" y="413.43" width="82.69" height="82.69"/><rect class="cls-1" x="909.55" y="413.43" width="82.69" height="82.69"/><rect class="cls-1" x="1488.36" y="413.43" width="82.69" height="82.69"/><rect class="cls-1" x="1571.05" y="413.43" width="82.69" height="82.69"/><rect class="cls-1" x="1736.42" y="413.43" width="82.69" height="82.69"/><rect class="cls-1" x="1819.11" y="413.43" width="82.69" height="82.69"/><rect class="cls-1" x="82.69" y="496.12" width="82.69" height="82.69"/><rect class="cls-3" x="165.37" y="496.12" width="82.69" height="82.69"/><rect class="cls-3" x="248.06" y="496.12" width="82.69" height="82.69"/><rect class="cls-3" x="330.75" y="496.12" width="82.69" height="82.69"/><rect class="cls-3" x="413.43" y="496.12" width="82.69" height="82.69"/><rect class="cls-3" x="496.12" y="496.12" width="82.69" height="82.69"/><rect class="cls-3" x="578.81" y="496.12" width="82.69" height="82.69"/><rect class="cls-3" x="661.49" y="496.12" width="82.69" height="82.69"/><rect class="cls-3" x="744.18" y="496.12" width="82.69" height="82.69"/><rect class="cls-3" x="826.87" y="496.12" width="82.69" height="82.69"/><rect class="cls-3" x="909.55" y="496.12" width="82.69" height="82.69"/><rect class="cls-1" x="992.24" y="496.12" width="82.69" height="82.69"/><rect class="cls-1" x="1405.67" y="496.12" width="82.69" height="82.69"/><rect class="cls-4" x="1488.36" y="496.12" width="82.69" height="82.69"/><rect class="cls-4" x="1571.05" y="496.12" width="82.69" height="82.69"/><rect class="cls-1" x="1653.73" y="496.12" width="82.69" height="82.69"/><rect class="cls-4" x="1736.42" y="496.12" width="82.69" height="82.69"/><rect class="cls-1" x="1819.11" y="496.12" width="82.69" height="82.69"/><rect class="cls-1" y="578.81" width="82.69" height="82.69"/><rect class="cls-3" x="82.69" y="578.81" width="82.69" height="82.69"/><rect class="cls-1" x="165.37" y="578.81" width="82.69" height="82.69"/><rect class="cls-3" x="248.06" y="578.81" width="82.69" height="82.69"/><rect class="cls-3" x="330.75" y="578.81" width="82.69" height="82.69"/><rect class="cls-3" x="413.43" y="578.81" width="82.69" height="82.69"/><rect class="cls-3" x="496.12" y="578.81" width="82.69" height="82.69"/><rect class="cls-3" x="578.81" y="578.81" width="82.69" height="82.69"/><rect class="cls-3" x="661.49" y="578.81" width="82.69" height="82.69"/><rect class="cls-3" x="744.18" y="578.81" width="82.69" height="82.69"/><rect class="cls-3" x="826.87" y="578.81" width="82.69" height="82.69"/><rect class="cls-3" x="909.55" y="578.81" width="82.69" height="82.69"/><rect class="cls-1" x="992.24" y="578.81" width="82.69" height="82.69"/><rect class="cls-1" x="1074.93" y="578.81" width="82.69" height="82.69"/><rect class="cls-1" x="1157.61" y="578.81" width="82.69" height="82.69"/><rect class="cls-1" x="1240.3" y="578.81" width="82.69" height="82.69"/><rect class="cls-1" x="1322.99" y="578.81" width="82.69" height="82.69"/><rect class="cls-4" x="1405.67" y="578.81" width="82.69" height="82.69"/><rect class="cls-4" x="1488.36" y="578.81" width="82.69" height="82.69"/><rect class="cls-1" x="1571.05" y="578.81" width="82.69" height="82.69"/><rect class="cls-4" x="1653.73" y="578.81" width="82.69" height="82.69"/><rect class="cls-4" x="1736.42" y="578.81" width="82.69" height="82.69"/><rect class="cls-1" x="1819.11" y="578.81" width="82.69" height="82.69"/><rect class="cls-1" y="661.49" width="82.69" height="82.69"/><rect class="cls-3" x="82.69" y="661.49" width="82.69" height="82.69"/><rect class="cls-3" x="165.37" y="661.49" width="82.69" height="82.69"/><rect class="cls-3" x="248.06" y="661.49" width="82.69" height="82.69"/><rect class="cls-3" x="330.75" y="661.49" width="82.69" height="82.69"/><rect class="cls-3" x="413.43" y="661.49" width="82.69" height="82.69"/><rect class="cls-1" x="496.12" y="661.49" width="82.69" height="82.69"/><rect class="cls-3" x="578.81" y="661.49" width="82.69" height="82.69"/><rect class="cls-3" x="661.49" y="661.49" width="82.69" height="82.69"/><rect class="cls-3" x="744.18" y="661.49" width="82.69" height="82.69"/><rect class="cls-3" x="826.87" y="661.49" width="82.69" height="82.69"/><rect class="cls-3" x="909.55" y="661.49" width="82.69" height="82.69"/><rect class="cls-1" x="992.24" y="661.49" width="82.69" height="82.69"/><rect class="cls-4" x="1074.93" y="661.49" width="82.69" height="82.69"/><rect class="cls-4" x="1157.61" y="661.49" width="82.69" height="82.69"/><rect class="cls-4" x="1240.3" y="661.49" width="82.69" height="82.69"/><rect class="cls-4" x="1322.99" y="661.49" width="82.69" height="82.69"/><rect class="cls-4" x="1405.67" y="661.49" width="82.69" height="82.69"/><rect class="cls-4" x="1488.36" y="661.49" width="82.69" height="82.69"/><rect class="cls-4" x="1571.05" y="661.49" width="82.69" height="82.69"/><rect class="cls-4" x="1653.73" y="661.49" width="82.69" height="82.69"/><rect class="cls-1" x="1736.42" y="661.49" width="82.69" height="82.69"/><rect class="cls-1" x="1819.11" y="661.49" width="82.69" height="82.69"/><rect class="cls-1" x="1901.79" y="661.49" width="82.69" height="82.69"/><rect class="cls-1" y="744.18" width="82.69" height="82.69"/><rect class="cls-3" x="82.69" y="744.18" width="82.69" height="82.69"/><rect class="cls-3" x="165.37" y="744.18" width="82.69" height="82.69"/><rect class="cls-1" x="248.06" y="744.18" width="82.69" height="82.69"/><rect class="cls-1" x="330.75" y="744.18" width="82.69" height="82.69"/><rect class="cls-3" x="413.43" y="744.18" width="82.69" height="82.69"/><rect class="cls-3" x="496.12" y="744.18" width="82.69" height="82.69"/><rect class="cls-3" x="578.81" y="744.18" width="82.69" height="82.69"/><rect class="cls-3" x="661.49" y="744.18" width="82.69" height="82.69"/><rect class="cls-3" x="744.18" y="744.18" width="82.69" height="82.69"/><rect class="cls-3" x="826.87" y="744.18" width="82.69" height="82.69"/><rect class="cls-3" x="909.55" y="744.18" width="82.69" height="82.69"/><rect class="cls-1" x="992.24" y="744.18" width="82.69" height="82.69"/><rect class="cls-4" x="1074.93" y="744.18" width="82.69" height="82.69"/><rect class="cls-4" x="1157.61" y="744.18" width="82.69" height="82.69"/><rect class="cls-4" x="1240.3" y="744.18" width="82.69" height="82.69"/><rect class="cls-4" x="1322.99" y="744.18" width="82.69" height="82.69"/><rect class="cls-4" x="1405.67" y="744.18" width="82.69" height="82.69"/><rect class="cls-4" x="1488.36" y="744.18" width="82.69" height="82.69"/><rect class="cls-4" x="1571.05" y="744.18" width="82.69" height="82.69"/><rect class="cls-1" x="1653.73" y="744.18" width="82.69" height="82.69"/><rect class="cls-4" x="1736.42" y="744.18" width="82.69" height="82.69"/><rect class="cls-4" x="1819.11" y="744.18" width="82.69" height="82.69"/><rect class="cls-1" x="1901.79" y="744.18" width="82.69" height="82.69"/><rect class="cls-1" y="826.87" width="82.69" height="82.69"/><rect class="cls-3" x="82.69" y="826.87" width="82.69" height="82.69"/><rect class="cls-1" x="165.37" y="826.87" width="82.69" height="82.69"/><rect class="cls-5" x="248.06" y="826.87" width="82.69" height="82.69"/><rect class="cls-5" x="330.75" y="826.87" width="82.69" height="82.69"/><rect class="cls-1" x="413.43" y="826.87" width="82.69" height="82.69"/><rect class="cls-3" x="496.12" y="826.87" width="82.69" height="82.69"/><rect class="cls-3" x="578.81" y="826.87" width="82.69" height="82.69"/><rect class="cls-3" x="661.49" y="826.87" width="82.69" height="82.69"/><rect class="cls-3" x="744.18" y="826.87" width="82.69" height="82.69"/><rect class="cls-3" x="826.87" y="826.87" width="82.69" height="82.69"/><rect class="cls-3" x="909.55" y="826.87" width="82.69" height="82.69"/><rect class="cls-3" x="992.24" y="826.87" width="82.69" height="82.69"/><rect class="cls-4" x="1074.93" y="826.87" width="82.69" height="82.69"/><rect class="cls-4" x="1157.61" y="826.87" width="82.69" height="82.69"/><rect class="cls-4" x="1240.3" y="826.87" width="82.69" height="82.69"/><rect class="cls-4" x="1322.99" y="826.87" width="82.69" height="82.69"/><rect class="cls-1" x="1405.67" y="826.87" width="82.69" height="82.69"/><rect class="cls-1" x="1488.36" y="826.87" width="82.69" height="82.69"/><rect class="cls-4" x="1571.05" y="826.87" width="82.69" height="82.69"/><rect class="cls-4" x="1653.73" y="826.87" width="82.69" height="82.69"/><rect class="cls-4" x="1736.42" y="826.87" width="82.69" height="82.69"/><rect class="cls-1" x="1819.11" y="826.87" width="82.69" height="82.69"/><rect class="cls-1" y="909.55" width="82.69" height="82.69"/><rect class="cls-3" x="82.69" y="909.55" width="82.69" height="82.69"/><rect class="cls-5" x="165.37" y="909.55" width="82.69" height="82.69"/><rect class="cls-5" x="248.06" y="909.55" width="82.69" height="82.69"/><rect class="cls-5" x="330.75" y="909.55" width="82.69" height="82.69"/><rect class="cls-1" x="413.43" y="909.55" width="82.69" height="82.69"/><rect class="cls-3" x="496.12" y="909.55" width="82.69" height="82.69"/><rect class="cls-3" x="578.81" y="909.55" width="82.69" height="82.69"/><rect class="cls-3" x="661.49" y="909.55" width="82.69" height="82.69"/><rect class="cls-3" x="744.18" y="909.55" width="82.69" height="82.69"/><rect class="cls-3" x="826.87" y="909.55" width="82.69" height="82.69"/><rect class="cls-3" x="909.55" y="909.55" width="82.69" height="82.69"/><rect class="cls-3" x="992.24" y="909.55" width="82.69" height="82.69"/><rect class="cls-4" x="1074.93" y="909.55" width="82.69" height="82.69"/><rect class="cls-4" x="1157.61" y="909.55" width="82.69" height="82.69"/><rect class="cls-1" x="1240.3" y="909.55" width="82.69" height="82.69"/><rect class="cls-1" x="1322.99" y="909.55" width="82.69" height="82.69"/><rect class="cls-3" x="1405.67" y="909.55" width="82.69" height="82.69"/><rect class="cls-4" x="1488.36" y="909.55" width="82.69" height="82.69"/><rect class="cls-1" x="1571.05" y="909.55" width="82.69" height="82.69"/><rect class="cls-1" x="1653.73" y="909.55" width="82.69" height="82.69"/><rect class="cls-1" x="1736.42" y="909.55" width="82.69" height="82.69"/><rect class="cls-1" y="992.24" width="82.69" height="82.69"/><rect class="cls-3" x="82.69" y="992.24" width="82.69" height="82.69"/><rect class="cls-1" x="165.37" y="992.24" width="82.69" height="82.69"/><rect class="cls-1" x="248.06" y="992.24" width="82.69" height="82.69"/><rect class="cls-2" x="330.75" y="992.24" width="82.69" height="82.69"/><rect class="cls-2" x="413.43" y="992.24" width="82.69" height="82.69"/><rect class="cls-1" x="496.12" y="992.24" width="82.69" height="82.69"/><rect class="cls-3" x="578.81" y="992.24" width="82.69" height="82.69"/><rect class="cls-3" x="661.49" y="992.24" width="82.69" height="82.69"/><rect class="cls-3" x="744.18" y="992.24" width="82.69" height="82.69"/><rect class="cls-3" x="826.87" y="992.24" width="82.69" height="82.69"/><rect class="cls-3" x="909.55" y="992.24" width="82.69" height="82.69"/><rect class="cls-3" x="992.24" y="992.24" width="82.69" height="82.69"/><rect class="cls-1" x="1074.93" y="992.24" width="82.69" height="82.69"/><rect class="cls-1" x="1157.61" y="992.24" width="82.69" height="82.69"/><rect class="cls-3" x="1240.3" y="992.24" width="82.69" height="82.69"/><rect class="cls-3" x="1322.99" y="992.24" width="82.69" height="82.69"/><rect class="cls-3" x="1405.67" y="992.24" width="82.69" height="82.69"/><rect class="cls-3" x="1488.36" y="992.24" width="82.69" height="82.69"/><rect class="cls-4" x="1571.05" y="992.24" width="82.69" height="82.69"/><rect class="cls-1" x="1653.73" y="992.24" width="82.69" height="82.69"/><rect class="cls-1" y="1074.93" width="82.69" height="82.69"/><rect class="cls-3" x="82.69" y="1074.93" width="82.69" height="82.69"/><rect class="cls-2" x="165.37" y="1074.93" width="82.69" height="82.69"/><rect class="cls-2" x="248.06" y="1074.93" width="82.69" height="82.69"/><rect class="cls-1" x="330.75" y="1074.93" width="82.69" height="82.69"/><rect class="cls-2" x="413.43" y="1074.93" width="82.69" height="82.69"/><rect class="cls-1" x="496.12" y="1074.93" width="82.69" height="82.69"/><rect class="cls-3" x="578.81" y="1074.93" width="82.69" height="82.69"/><rect class="cls-3" x="661.49" y="1074.93" width="82.69" height="82.69"/><rect class="cls-3" x="744.18" y="1074.93" width="82.69" height="82.69"/><rect class="cls-3" x="826.87" y="1074.93" width="82.69" height="82.69"/><rect class="cls-3" x="909.55" y="1074.93" width="82.69" height="82.69"/><rect class="cls-3" x="992.24" y="1074.93" width="82.69" height="82.69"/><rect class="cls-3" x="1074.93" y="1074.93" width="82.69" height="82.69"/><rect class="cls-3" x="1157.61" y="1074.93" width="82.69" height="82.69"/><rect class="cls-3" x="1240.3" y="1074.93" width="82.69" height="82.69"/><rect class="cls-3" x="1322.99" y="1074.93" width="82.69" height="82.69"/><rect class="cls-3" x="1405.67" y="1074.93" width="82.69" height="82.69"/><rect class="cls-3" x="1488.36" y="1074.93" width="82.69" height="82.69"/><rect class="cls-3" x="1571.05" y="1074.93" width="82.69" height="82.69"/><rect class="cls-1" x="1653.73" y="1074.93" width="82.69" height="82.69"/><rect class="cls-1" y="1157.61" width="82.69" height="82.69"/><rect class="cls-3" x="82.69" y="1157.61" width="82.69" height="82.69"/><rect class="cls-2" x="165.37" y="1157.61" width="82.69" height="82.69"/><rect class="cls-1" x="248.06" y="1157.61" width="82.69" height="82.69"/><rect class="cls-1" x="330.75" y="1157.61" width="82.69" height="82.69"/><rect class="cls-1" x="413.43" y="1157.61" width="82.69" height="82.69"/><rect class="cls-3" x="496.12" y="1157.61" width="82.69" height="82.69"/><rect class="cls-3" x="578.81" y="1157.61" width="82.69" height="82.69"/><rect class="cls-3" x="661.49" y="1157.61" width="82.69" height="82.69"/><rect class="cls-3" x="744.18" y="1157.61" width="82.69" height="82.69"/><rect class="cls-3" x="826.87" y="1157.61" width="82.69" height="82.69"/><rect class="cls-3" x="909.55" y="1157.61" width="82.69" height="82.69"/><rect class="cls-3" x="992.24" y="1157.61" width="82.69" height="82.69"/><rect class="cls-3" x="1074.93" y="1157.61" width="82.69" height="82.69"/><rect class="cls-3" x="1157.61" y="1157.61" width="82.69" height="82.69"/><rect class="cls-3" x="1240.3" y="1157.61" width="82.69" height="82.69"/><rect class="cls-1" x="1322.99" y="1157.61" width="82.69" height="82.69"/><rect class="cls-1" x="1405.67" y="1157.61" width="82.69" height="82.69"/><rect class="cls-3" x="1488.36" y="1157.61" width="82.69" height="82.69"/><rect class="cls-3" x="1571.05" y="1157.61" width="82.69" height="82.69"/><rect class="cls-1" x="1653.73" y="1157.61" width="82.69" height="82.69"/><rect class="cls-1" y="1240.3" width="82.69" height="82.69"/><rect class="cls-3" x="82.69" y="1240.3" width="82.69" height="82.69"/><rect class="cls-3" x="165.37" y="1240.3" width="82.69" height="82.69"/><rect class="cls-1" x="248.06" y="1240.3" width="82.69" height="82.69"/><rect class="cls-3" x="330.75" y="1240.3" width="82.69" height="82.69"/><rect class="cls-3" x="413.43" y="1240.3" width="82.69" height="82.69"/><rect class="cls-3" x="496.12" y="1240.3" width="82.69" height="82.69"/><rect class="cls-3" x="578.81" y="1240.3" width="82.69" height="82.69"/><rect class="cls-3" x="661.49" y="1240.3" width="82.69" height="82.69"/><rect class="cls-3" x="744.18" y="1240.3" width="82.69" height="82.69"/><rect class="cls-3" x="826.87" y="1240.3" width="82.69" height="82.69"/><rect class="cls-3" x="909.55" y="1240.3" width="82.69" height="82.69"/><rect class="cls-3" x="992.24" y="1240.3" width="82.69" height="82.69"/><rect class="cls-4" x="1074.93" y="1240.3" width="82.69" height="82.69"/><rect class="cls-1" x="1157.61" y="1240.3" width="82.69" height="82.69"/><rect class="cls-1" x="1240.3" y="1240.3" width="82.69" height="82.69"/><rect class="cls-3" x="1322.99" y="1240.3" width="82.69" height="82.69"/><rect class="cls-3" x="1405.67" y="1240.3" width="82.69" height="82.69"/><rect class="cls-3" x="1488.36" y="1240.3" width="82.69" height="82.69"/><rect class="cls-3" x="1571.05" y="1240.3" width="82.69" height="82.69"/><rect class="cls-1" x="1653.73" y="1240.3" width="82.69" height="82.69"/><rect class="cls-1" y="1322.99" width="82.69" height="82.69"/><rect class="cls-3" x="82.69" y="1322.99" width="82.69" height="82.69"/><rect class="cls-3" x="165.37" y="1322.99" width="82.69" height="82.69"/><rect class="cls-3" x="248.06" y="1322.99" width="82.69" height="82.69"/><rect class="cls-3" x="330.75" y="1322.99" width="82.69" height="82.69"/><rect class="cls-3" x="413.43" y="1322.99" width="82.69" height="82.69"/><rect class="cls-3" x="496.12" y="1322.99" width="82.69" height="82.69"/><rect class="cls-3" x="578.81" y="1322.99" width="82.69" height="82.69"/><rect class="cls-3" x="661.49" y="1322.99" width="82.69" height="82.69"/><rect class="cls-3" x="744.18" y="1322.99" width="82.69" height="82.69"/><rect class="cls-3" x="826.87" y="1322.99" width="82.69" height="82.69"/><rect class="cls-3" x="909.55" y="1322.99" width="82.69" height="82.69"/><rect class="cls-3" x="992.24" y="1322.99" width="82.69" height="82.69"/><rect class="cls-3" x="1074.93" y="1322.99" width="82.69" height="82.69"/><rect class="cls-3" x="1157.61" y="1322.99" width="82.69" height="82.69"/><rect class="cls-3" x="1240.3" y="1322.99" width="82.69" height="82.69"/><rect class="cls-3" x="1322.99" y="1322.99" width="82.69" height="82.69"/><rect class="cls-3" x="1405.67" y="1322.99" width="82.69" height="82.69"/><rect class="cls-3" x="1488.36" y="1322.99" width="82.69" height="82.69"/><rect class="cls-1" x="1571.05" y="1322.99" width="82.69" height="82.69"/><rect class="cls-1" x="82.69" y="1405.67" width="82.69" height="82.69"/><rect class="cls-3" x="165.37" y="1405.67" width="82.69" height="82.69"/><rect class="cls-3" x="248.06" y="1405.67" width="82.69" height="82.69"/><rect class="cls-3" x="330.75" y="1405.67" width="82.69" height="82.69"/><rect class="cls-3" x="413.43" y="1405.67" width="82.69" height="82.69"/><rect class="cls-3" x="496.12" y="1405.67" width="82.69" height="82.69"/><rect class="cls-3" x="578.81" y="1405.67" width="82.69" height="82.69"/><rect class="cls-3" x="661.49" y="1405.67" width="82.69" height="82.69"/><rect class="cls-3" x="744.18" y="1405.67" width="82.69" height="82.69"/><rect class="cls-3" x="826.87" y="1405.67" width="82.69" height="82.69"/><rect class="cls-3" x="909.55" y="1405.67" width="82.69" height="82.69"/><rect class="cls-3" x="992.24" y="1405.67" width="82.69" height="82.69"/><rect class="cls-3" x="1074.93" y="1405.67" width="82.69" height="82.69"/><rect class="cls-3" x="1157.61" y="1405.67" width="82.69" height="82.69"/><rect class="cls-3" x="1240.3" y="1405.67" width="82.69" height="82.69"/><rect class="cls-1" x="1322.99" y="1405.67" width="82.69" height="82.69"/><rect class="cls-1" x="1405.67" y="1405.67" width="82.69" height="82.69"/><rect class="cls-3" x="1488.36" y="1405.67" width="82.69" height="82.69"/><rect class="cls-1" x="1571.05" y="1405.67" width="82.69" height="82.69"/><rect class="cls-1" x="82.69" y="1488.36" width="82.69" height="82.69"/><rect class="cls-3" x="165.37" y="1488.36" width="82.69" height="82.69"/><rect class="cls-3" x="248.06" y="1488.36" width="82.69" height="82.69"/><rect class="cls-3" x="330.75" y="1488.36" width="82.69" height="82.69"/><rect class="cls-3" x="413.43" y="1488.36" width="82.69" height="82.69"/><rect class="cls-3" x="496.12" y="1488.36" width="82.69" height="82.69"/><rect class="cls-3" x="578.81" y="1488.36" width="82.69" height="82.69"/><rect class="cls-3" x="661.49" y="1488.36" width="82.69" height="82.69"/><rect class="cls-3" x="744.18" y="1488.36" width="82.69" height="82.69"/><rect class="cls-3" x="826.87" y="1488.36" width="82.69" height="82.69"/><rect class="cls-3" x="909.55" y="1488.36" width="82.69" height="82.69"/><rect class="cls-3" x="992.24" y="1488.36" width="82.69" height="82.69"/><rect class="cls-3" x="1074.93" y="1488.36" width="82.69" height="82.69"/><rect class="cls-1" x="1157.61" y="1488.36" width="82.69" height="82.69"/><rect class="cls-1" x="1240.3" y="1488.36" width="82.69" height="82.69"/><rect class="cls-3" x="1322.99" y="1488.36" width="82.69" height="82.69"/><rect class="cls-3" x="1405.67" y="1488.36" width="82.69" height="82.69"/><rect class="cls-1" x="1488.36" y="1488.36" width="82.69" height="82.69"/><rect class="cls-1" x="165.37" y="1571.05" width="82.69" height="82.69"/><rect class="cls-3" x="248.06" y="1571.05" width="82.69" height="82.69"/><rect class="cls-3" x="330.75" y="1571.05" width="82.69" height="82.69"/><rect class="cls-3" x="413.43" y="1571.05" width="82.69" height="82.69"/><rect class="cls-3" x="496.12" y="1571.05" width="82.69" height="82.69"/><rect class="cls-3" x="578.81" y="1571.05" width="82.69" height="82.69"/><rect class="cls-3" x="661.49" y="1571.05" width="82.69" height="82.69"/><rect class="cls-3" x="744.18" y="1571.05" width="82.69" height="82.69"/><rect class="cls-3" x="826.87" y="1571.05" width="82.69" height="82.69"/><rect class="cls-3" x="909.55" y="1571.05" width="82.69" height="82.69"/><rect class="cls-3" x="992.24" y="1571.05" width="82.69" height="82.69"/><rect class="cls-3" x="1074.93" y="1571.05" width="82.69" height="82.69"/><rect class="cls-3" x="1157.61" y="1571.05" width="82.69" height="82.69"/><rect class="cls-3" x="1240.3" y="1571.05" width="82.69" height="82.69"/><rect class="cls-3" x="1322.99" y="1571.05" width="82.69" height="82.69"/><rect class="cls-1" x="1405.67" y="1571.05" width="82.69" height="82.69"/><rect class="cls-1" x="248.06" y="1653.73" width="82.69" height="82.69"/><rect class="cls-3" x="330.75" y="1653.73" width="82.69" height="82.69"/><rect class="cls-3" x="413.43" y="1653.73" width="82.69" height="82.69"/><rect class="cls-3" x="496.12" y="1653.73" width="82.69" height="82.69"/><rect class="cls-3" x="578.81" y="1653.73" width="82.69" height="82.69"/><rect class="cls-3" x="661.49" y="1653.73" width="82.69" height="82.69"/><rect class="cls-3" x="744.18" y="1653.73" width="82.69" height="82.69"/><rect class="cls-1" x="826.87" y="1653.73" width="82.69" height="82.69"/><rect class="cls-3" x="909.55" y="1653.73" width="82.69" height="82.69"/><rect class="cls-3" x="992.24" y="1653.73" width="82.69" height="82.69"/><rect class="cls-3" x="1074.93" y="1653.73" width="82.69" height="82.69"/><rect class="cls-3" x="1157.61" y="1653.73" width="82.69" height="82.69"/><rect class="cls-3" x="1240.3" y="1653.73" width="82.69" height="82.69"/><rect class="cls-1" x="1322.99" y="1653.73" width="82.69" height="82.69"/><rect class="cls-1" x="330.75" y="1736.42" width="82.69" height="82.69"/><rect class="cls-1" x="413.43" y="1736.42" width="82.69" height="82.69"/><rect class="cls-1" x="496.12" y="1736.42" width="82.69" height="82.69"/><rect class="cls-4" x="578.81" y="1736.42" width="82.69" height="82.69"/><rect class="cls-4" x="661.49" y="1736.42" width="82.69" height="82.69"/><rect class="cls-4" x="744.18" y="1736.42" width="82.69" height="82.69"/><rect class="cls-4" x="826.87" y="1736.42" width="82.69" height="82.69"/><rect class="cls-1" x="909.55" y="1736.42" width="82.69" height="82.69"/><rect class="cls-1" x="992.24" y="1736.42" width="82.69" height="82.69"/><rect class="cls-1" x="1074.93" y="1736.42" width="82.69" height="82.69"/><rect class="cls-1" x="1157.61" y="1736.42" width="82.69" height="82.69"/><rect class="cls-1" x="1240.3" y="1736.42" width="82.69" height="82.69"/><rect class="cls-1" x="1322.99" y="1736.42" width="82.69" height="82.69"/><rect class="cls-1" x="578.81" y="1819.11" width="82.69" height="82.69"/><rect class="cls-1" x="661.49" y="1819.11" width="82.69" height="82.69"/><rect class="cls-6" x="744.18" y="1819.11" width="82.69" height="82.69"/><rect class="cls-1" x="826.87" y="1819.11" width="82.69" height="82.69"/><rect class="cls-1" x="909.55" y="1819.11" width="82.69" height="82.69"/><rect class="cls-1" x="992.24" y="1819.11" width="82.69" height="82.69"/><rect class="cls-1" x="1074.93" y="1819.11" width="82.69" height="82.69"/><rect class="cls-6" x="1157.61" y="1819.11" width="82.69" height="82.69"/><rect class="cls-1" x="1240.3" y="1819.11" width="82.69" height="82.69"/><rect class="cls-1" x="496.12" y="1901.79" width="82.69" height="82.69"/><rect class="cls-1" x="578.81" y="1901.79" width="82.69" height="82.69"/><rect class="cls-1" x="661.49" y="1901.79" width="82.69" height="82.69"/><rect class="cls-6" x="744.18" y="1901.79" width="82.69" height="82.69"/><rect class="cls-1" x="826.87" y="1901.79" width="82.69" height="82.69"/><rect class="cls-1" x="1074.93" y="1901.79" width="82.69" height="82.69"/><rect class="cls-6" x="1157.61" y="1901.79" width="82.69" height="82.69"/><rect class="cls-1" x="1240.3" y="1901.79" width="82.69" height="82.69"/><rect class="cls-1" x="413.43" y="1984.48" width="82.69" height="82.69"/><rect class="cls-6" x="496.12" y="1984.48" width="82.69" height="82.69"/><rect class="cls-6" x="578.81" y="1984.48" width="82.69" height="82.69"/><rect class="cls-6" x="661.49" y="1984.48" width="82.69" height="82.69"/><rect class="cls-6" x="744.18" y="1984.48" width="82.69" height="82.69"/><rect class="cls-6" x="826.87" y="1984.48" width="82.69" height="82.69"/><rect class="cls-1" x="909.55" y="1984.48" width="82.69" height="82.69"/><rect class="cls-1" x="1074.93" y="1984.48" width="82.69" height="82.69"/><rect class="cls-6" x="1157.61" y="1984.48" width="82.69" height="82.69"/><rect class="cls-1" x="1240.3" y="1984.48" width="82.69" height="82.69"/><rect class="cls-1" x="413.43" y="2067.17" width="82.69" height="82.69"/><rect class="cls-1" x="496.12" y="2067.17" width="82.69" height="82.69"/><rect class="cls-1" x="578.81" y="2067.17" width="82.69" height="82.69"/><rect class="cls-6" x="661.49" y="2067.17" width="82.69" height="82.69"/><rect class="cls-1" x="744.18" y="2067.17" width="82.69" height="82.69"/><rect class="cls-1" x="826.87" y="2067.17" width="82.69" height="82.69"/><rect class="cls-1" x="909.55" y="2067.17" width="82.69" height="82.69"/><rect class="cls-1" x="992.24" y="2067.17" width="82.69" height="82.69"/><rect class="cls-5" x="1074.93" y="2067.17" width="82.69" height="82.69"/><rect class="cls-5" x="1157.61" y="2067.17" width="82.69" height="82.69"/><rect class="cls-6" x="1240.3" y="2067.17" width="82.69" height="82.69"/><rect class="cls-1" x="1322.99" y="2067.17" width="82.69" height="82.69"/><rect class="cls-1" x="578.81" y="2149.85" width="82.69" height="82.69"/><rect class="cls-1" x="661.49" y="2149.85" width="82.69" height="82.69"/><rect class="cls-1" x="826.87" y="2149.85" width="82.69" height="82.69"/><rect class="cls-5" x="909.55" y="2149.85" width="82.69" height="82.69"/><rect class="cls-5" x="992.24" y="2149.85" width="82.69" height="82.69"/><rect class="cls-5" x="1074.93" y="2149.85" width="82.69" height="82.69"/><rect class="cls-5" x="1157.61" y="2149.85" width="82.69" height="82.69"/><rect class="cls-1" x="1240.3" y="2149.85" width="82.69" height="82.69"/><rect class="cls-1" x="826.87" y="2232.54" width="82.69" height="82.69"/><rect class="cls-1" x="909.55" y="2232.54" width="82.69" height="82.69"/><rect class="cls-1" x="992.24" y="2232.54" width="82.69" height="82.69"/><rect class="cls-1" x="1074.93" y="2232.54" width="82.69" height="82.69"/><rect class="cls-5" x="1157.61" y="2232.54" width="82.69" height="82.69"/><rect class="cls-1" x="1240.3" y="2232.54" width="82.69" height="82.69"/><rect class="cls-1" x="1157.61" y="2315.23" width="82.69" height="82.69"/><rect class="cls-1" x="1240.3" y="2315.23" width="82.69" height="82.69"/></g></g></svg>