<svg xmlns="http://www.w3.org/2000/svg" xmlns:xlink="http://www.w3.org/1999/xlink" viewBox="0 0 381.3 155.95"><defs><style>.cls-1{fill:none;}.cls-2{isolation:isolate;}.cls-3{fill:#784312;}.cls-4{fill:#431c10;}.cls-5{fill:#9c5c26;opacity:0.54;}.cls-12,.cls-16,.cls-5,.cls-9{mix-blend-mode:multiply;}.cls-6{fill:#fecf8d;}.cls-7{fill:#a1724d;}.cls-8{fill:#b06426;opacity:0.57;}.cls-13,.cls-8{mix-blend-mode:screen;}.cls-9{fill:#d1963f;opacity:0.48;}.cls-10{fill:#cc8c4e;}.cls-11{fill:#926845;}.cls-12,.cls-13{fill:#ecb35e;}.cls-13{opacity:0.67;}.cls-14{fill:#f15a29;}.cls-15{fill:#fff;}.cls-16{fill:#e7eaeb;}.cls-17{fill:#fff1ef;}.cls-18{clip-path:url(#clip-path);}.cls-19{fill:#f3dcda;}.cls-20{fill:#f09541;}.cls-21{fill:#f9a24a;}.cls-22{fill:#ffad4a;}.cls-23{clip-path:url(#clip-path-2);}.cls-24{fill:#fff9f9;}.cls-25{fill:#ff4f3e;}.cls-26{clip-path:url(#clip-path-3);}.cls-27{fill:#ed4035;}.cls-28{fill:#fff7f6;}.cls-29{clip-path:url(#clip-path-4);}.cls-30{fill:#ffb564;}.cls-31{clip-path:url(#clip-path-5);}.cls-32{fill:#ffcbca;}</style><clipPath id="clip-path" transform="translate(-5.2 -30.69)"><path class="cls-1" d="M336.19,94.89a17.49,17.49,0,0,0,7.1,3.26c3.15.74,5.95,2.78,9.31,2.17,2.87-.52,4.15-3.25,5.1-5.71q.89-2.25,1.75-4.5c1.85-4.76,4.69-.62,5.13,2.45.56-3.22,1.16-6.4,1.49-9.65.16-1.5.63-2.47,2-1.55s1.7,3.83,1.85,5.17l.28-4.93c.07-1.43.3-3.11,1.56-3.79,1.44-.78,3.2.31,4.21,1.6,2,2.51,2.62,5.78,3.21,8.92.49-1.19,1.29-2.59,2.58-2.52s1.85,1.34,2.21,2.46c3,9.54-2.33,22-8.93,29.16-5.32,5.77-22.14,12.81-30,10.29-4.29-1.48-.91-7.78-4.61-10.29-1.78-1.33.74-3.16-.74-4.64s-3.4-2.22-4.73-3.55a6.4,6.4,0,0,1-.89-1Z"/></clipPath><clipPath id="clip-path-2" transform="translate(-5.2 -30.69)"><path class="cls-1" d="M314.72,83.48l-10.19-1.06A61.5,61.5,0,0,1,284,88c-2.62.22-5.81-.37-8.67-.33a26,26,0,0,0-6.57-14.31c-2.51-2.82-5.47-5-9.32-5.48-3.4-.44-7.39.45-7.84,4.44A14.43,14.43,0,0,0,254.24,82a101,101,0,0,0,7.39,8.57c-1.33-.44-2.5-1.09-3.83-1.68s-3.23-1.49-4.41-1.78c-2.37-.74-4.18-.23-4.92,2.73s1.62,5.62,3.55,7.24c2.07,1.93,3.83,2.81,7.24,5-2.66.3-5.76-1.33-7.69,1-2.36,3-.15,6.21,2.52,7.84a15.58,15.58,0,0,0,7,1.83,33.73,33.73,0,0,0,1,14.14c2.95,9.32,8.72,16.28,18,19.68a97.74,97.74,0,0,0,11.24,3,71.37,71.37,0,0,0,11.1,1.77c3.85.3,7.69.45,11.39.45s7.1-1.48,10.5-3.11c8-4,17.9-10.65,20.71-19.38.15,1.19,1.78,2.37,2.81,1.78,1-.74.74-3,.74-4a23.38,23.38,0,0,0-1.62-7.84,5.82,5.82,0,0,0,4.88,2.81c2.66-.29,2.07-2.66,1.62-4.43-1.15-4-3.15-7.53-5.17-11.13,1.38,2,8.69,2.55,4.43-.71-3.4-2.66-4.88-5-6.65-8.87-1.33-3.11-1.48-6.81-4.14-9.18-3.41-2.95-6.66-1.18-10.36-2.51l-16.88-1.75"/></clipPath><clipPath id="clip-path-3" transform="translate(-5.2 -30.69)"><path class="cls-1" d="M336.88,47c.39-2.63.56-4.89-.54-7.44-1.44-3.17-4.85-5.2-6.36-.77-1.32-2.17-1.73-4.67-4.33-5.65-2.3-1-4.59.65-5.52,2.66-.85-3.22-6.1-4.4-8.61-2.51-2.62,2.08-3.12,6.19-.21,8.28-1-1-4.2.68-4.94,1.42a8.37,8.37,0,0,0-2.46,5.25c-.23,1.76-.07,3.55,2,3.8a6.06,6.06,0,0,0,4.65-1.54c-1.61,1.76-2.78,3-3.35,5.39-.46,2.14-.95,4.86.59,6.76,2.27,2.73,7.33-.36,9.33-2.08Z"/></clipPath><clipPath id="clip-path-4" transform="translate(-5.2 -30.69)"><path class="cls-1" d="M326.49,74.73a6,6,0,0,1-1.21,3.07c-1.11,1.63-2.34,3.18-3.51,4.74-1.53,2-2.08,4.06.51,5.51a4.28,4.28,0,0,0,5.06-.75c-.15,2.16,1.86,2.57,3.62,2.7,2.1.15,2.58-1.85,2.58-3.63a6.22,6.22,0,0,0-.93-2.7,20.69,20.69,0,0,1-1-2.77,6.09,6.09,0,0,1-.44-3.85Z"/></clipPath><clipPath id="clip-path-5" transform="translate(-5.2 -30.69)"><path class="cls-1" d="M325.05,75.72A10.47,10.47,0,0,1,328,78c1.49,1.48,4.22,1.54,4.86-.86.53.77,2.81-.64,3.49-1a6.33,6.33,0,0,0,3-2.74c1.64-3.64-4-1-5.15-2.62-.68-.91-.68-2.21-1.07-3.24s-1.17-2.45-2.41-2.12a3.48,3.48,0,0,0-1.8,1.32,10.13,10.13,0,0,0-1.09,2,1.21,1.21,0,0,1-.31.48,1,1,0,0,1-.37.21c-2.09.64-6.15-3.53-7.73-1.78a2.57,2.57,0,0,0-.51,1.69,5.37,5.37,0,0,0,1.67,4A17.38,17.38,0,0,0,325.05,75.72Z"/></clipPath></defs><g class="cls-2"><g id="Layer_1" data-name="Layer 1"><rect class="cls-3" x="5.52" y="10.61" width="277.67" height="127.58" rx="26.6"/><path class="cls-4" d="M261.78,169.42H37.32a27.17,27.17,0,0,1-27.13-27.14V67.91A27.16,27.16,0,0,1,37.32,40.78H261.78a27.17,27.17,0,0,1,27.14,27.13v74.37A27.18,27.18,0,0,1,261.78,169.42ZM37.32,41.84A26.11,26.11,0,0,0,11.25,67.91v74.37a26.11,26.11,0,0,0,26.07,26.08H261.78a26.11,26.11,0,0,0,26.08-26.08V67.91a26.11,26.11,0,0,0-26.08-26.07Z" transform="translate(-5.2 -30.69)"/><path class="cls-5" d="M278.13,47c-12.44.77-25-.5-37.44-1-9-.34-18-.18-27-.23-9.63,0-19.26-.12-28.9-.19-19.24-.15-38.49-.17-57.74-.26s-38.57-.3-57.85-.07c-9.26.11-18.47.15-27.72-.14-5.8-.18-11.6-.35-17.4-.25a26.64,26.64,0,0,0-13.39,23v74.37a26.69,26.69,0,0,0,26.6,26.61H261.78a26.69,26.69,0,0,0,26.61-26.61V67.91A26.59,26.59,0,0,0,278.13,47Z" transform="translate(-5.2 -30.69)"/><rect class="cls-6" x="5.52" y="18" width="277.67" height="127.58" rx="26.6"/><path class="cls-7" d="M261.78,176.8H37.32a27.16,27.16,0,0,1-27.13-27.13V75.3A27.16,27.16,0,0,1,37.32,48.17H261.78A27.17,27.17,0,0,1,288.92,75.3v74.37A27.17,27.17,0,0,1,261.78,176.8ZM37.32,49.23A26.1,26.1,0,0,0,11.25,75.3v74.37a26.1,26.1,0,0,0,26.07,26.07H261.78a26.1,26.1,0,0,0,26.08-26.07V75.3a26.1,26.1,0,0,0-26.08-26.07Z" transform="translate(-5.2 -30.69)"/><path class="cls-8" d="M162.39,69.59a99.63,99.63,0,0,0-21.92,2c3.78.39,7.56.59,11.36.64,8.66.13,17.32-.46,25.95-1.13l3.37-.27c-2.25-.23-4.5-.47-6.75-.69Q168.42,69.6,162.39,69.59Z" transform="translate(-5.2 -30.69)"/><path class="cls-8" d="M38.47,88.57c4.5.09,9,.18,13.46.67,3.45.38,6.92.88,10.4,1.19l-1-.17c-4.3-.83-8.56-1.85-12.88-2.63-2.2-.39-4.41-.71-6.65-.9s-4.64-.2-7-.28c-8.07-.27-16.13-.65-24.16-1.48v3.42q6.91,0,13.82,0T38.47,88.57Z" transform="translate(-5.2 -30.69)"/><path class="cls-8" d="M270.72,149.58a62.87,62.87,0,0,0-19.1,2.84c2.41-.06,4.82-.29,7.21-.57,2.93-.35,5.86-.77,8.8-1a67.84,67.84,0,0,1,8.79-.06,72,72,0,0,0,11.93-.05c0-.35,0-.7,0-1.06v-.27C282.51,149.71,276.6,149.47,270.72,149.58Z" transform="translate(-5.2 -30.69)"/><path class="cls-8" d="M37.05,152a22.49,22.49,0,0,0-6-2.67c-4.88-1.41-10-1.72-15-2.11-1.77-.14-3.56-.27-5.34-.46v2.94c0,.3,0,.59,0,.88l2,.2C20.77,151.63,29,153.46,37.05,152Z" transform="translate(-5.2 -30.69)"/><path class="cls-8" d="M149.53,123c-1.69.32-3.37.69-5,1.09,5.15,0,10.32.47,15.45.86,6.31.48,12.75.92,19-.07a27.38,27.38,0,0,0-8.82-2.93C163.33,120.83,156.26,121.67,149.53,123Z" transform="translate(-5.2 -30.69)"/><path class="cls-8" d="M40.53,120.91a30.66,30.66,0,0,0-7.24-1.3c-7.51-.48-15.06,1-22.57,1.19v1.53c1.57.1,3.14.21,4.72.29C23.78,123.06,32.42,123.22,40.53,120.91Z" transform="translate(-5.2 -30.69)"/><path class="cls-8" d="M265.13,74.72c6.06-.06,12.05-1.12,18.11-1.21,1.68,0,3.38,0,5.08-.06a28.16,28.16,0,0,0-.42-3.21c-10.28.27-20.43,2-30.5,3.93A43.45,43.45,0,0,0,265.13,74.72Z" transform="translate(-5.2 -30.69)"/><path class="cls-8" d="M89.14,155.49c-3.89,1.41-7.75,3-11.71,4.2.95-.1,1.9-.24,2.84-.41,2.69-.49,5.33-1.2,8-1.87a79.38,79.38,0,0,1,8.63-1.73c5.57-.78,11.19-1.1,16.74-1.93a22.54,22.54,0,0,0-8-1.74C100,151.84,94.42,153.58,89.14,155.49Z" transform="translate(-5.2 -30.69)"/><path class="cls-8" d="M254.94,174.21a201.55,201.55,0,0,1-31.25-1.45c-10.24-1.14-20.47-2.42-30.79-2.41-21.27,0-42.51,1.67-63.78,1.14-10.69-.26-21.38-.84-32.07-1.06s-21.21.24-31.84.84c-5.19.3-10.39.56-15.6.7-4.85.14-9.7.08-14.54.5-3.21.28-6.48.66-9.76.91a26.44,26.44,0,0,0,12,2.89H261.78A26.29,26.29,0,0,0,275,172.75C268.28,173.25,261.62,173.92,254.94,174.21Z" transform="translate(-5.2 -30.69)"/><path class="cls-9" d="M34.79,92.06c4.21-.25,8.44-.45,12.66-.5,3.89,0,7.78.15,11.66.25,14.8.38,29.74.59,44.42-1.59a126.63,126.63,0,0,0-19.28-.7c-6.66.17-13.32.55-20,.47s-13.55-.6-20.31-.92c-11.07-.52-22.15-.93-33.24-1.08v5C18.77,93.19,26.76,92.54,34.79,92.06Z" transform="translate(-5.2 -30.69)"/><path class="cls-9" d="M245.72,100.87a241,241,0,0,0-33.08,4.91l.39.08c7.74,1.45,15.7,1.45,23.55,1.1s15.9-1.12,23.86-1.5c3.29-.15,6.59-.27,9.89-.21,2.7,0,5.41.28,8.1.52,3.32.3,6.64.63,10,.87V99.33l-6.58,0C269.77,99.5,257.72,99.87,245.72,100.87Z" transform="translate(-5.2 -30.69)"/><path class="cls-9" d="M126.93,50.36c3.68.09,7.38.49,11,.77l11.47.87c7.85.59,15.7,1.15,23.56,1.56,7.69.4,15.4.74,23.1.51s15.1-.85,22.62-1.67c9.76-1.06,19.48-2.45,29.22-3.7H92.78a63.34,63.34,0,0,0,16.29,1.78C115,50.55,121,50.21,126.93,50.36Z" transform="translate(-5.2 -30.69)"/><path class="cls-9" d="M26.83,69.49c3.19-.65,6.4-1.39,9.64-1.93-1.2-.07-2.4-.13-3.6-.21-6.84-.44-13.7-1-20.56-1.09A26.44,26.44,0,0,0,11,71.62C16.31,71.64,21.63,70.55,26.83,69.49Z" transform="translate(-5.2 -30.69)"/><path class="cls-9" d="M255,129.88q-20.37-.24-40.69-1.79c-13.41-1-26.73-2.65-40.18-3a335.24,335.24,0,0,0-72.51,5.79c14.25-.48,28.5-1.09,42.75-1.5,14.59-.41,29.2-.65,43.79-.17s29.09,1.4,43.64,2c18.84.77,37.73,1.2,56.59.6v-2.36C277.26,129.82,266.13,130,255,129.88Z" transform="translate(-5.2 -30.69)"/><path class="cls-9" d="M34.36,129a119.43,119.43,0,0,0,20.85-5.65,114.51,114.51,0,0,0-12.12-1,185.81,185.81,0,0,0-27.6,1.26c-1.59.19-3.18.4-4.77.62v6.41A90.56,90.56,0,0,0,34.36,129Z" transform="translate(-5.2 -30.69)"/><path class="cls-9" d="M130.86,103.85a59.2,59.2,0,0,0,14.14.45c4.93-.33,9.83-1,14.74-1.6,5.09-.61,10.18-.93,15.29-1.33l2.4-.21c-5-.39-10-.69-15.07-.77A114.38,114.38,0,0,0,130.86,103.85Z" transform="translate(-5.2 -30.69)"/><path class="cls-9" d="M257.35,152.11c-6.66.35-13.38.72-20,1.71-12.28,1.84-24.08,5.84-36.13,8.72a105.75,105.75,0,0,0,22.25,1.89c7.4,0,14.79-.31,22.18-.26,7,0,14,.61,21,.86,5.58.2,11.16.27,16.74,0a26.4,26.4,0,0,0,4.89-13.68q-5.4,0-10.79.09C270.8,151.57,264.07,151.76,257.35,152.11Z" transform="translate(-5.2 -30.69)"/><path class="cls-9" d="M88.39,162.1a213.51,213.51,0,0,0,40.33-4.24q5.73-1.1,11.43-2.36a304.38,304.38,0,0,0-31.68-.55,192.69,192.69,0,0,0-40.19,5.62A130.18,130.18,0,0,0,88.39,162.1Z" transform="translate(-5.2 -30.69)"/><path class="cls-9" d="M31.61,157.47a108.62,108.62,0,0,0,15.69-4c-3-.26-6-.53-9-.82-9.18-.89-18.37-1.84-27.58-2.35a26.25,26.25,0,0,0,1.51,8.2C18.63,159.44,25.32,158.61,31.61,157.47Z" transform="translate(-5.2 -30.69)"/><path class="cls-9" d="M192,70.11c-11.31.84-22.59,1.86-33.9,2.66a109.6,109.6,0,0,0,21.86,1.69c7.9-.08,15.79-.68,23.66-1.36,7.49-.65,15-1.22,22.48-1.77,6.15-.45,12.38-1.51,18.62-2.35-4.85-.27-9.71-.45-14.57-.47C217.38,68.43,204.65,69.16,192,70.11Z" transform="translate(-5.2 -30.69)"/><path class="cls-10" d="M6.44,156.26a24.57,24.57,0,0,0,14.46,7.38,21.06,21.06,0,0,1-4.41-8.34l-.3-1.14c-.09-.39-.12-.79-.19-1.17l-.18-1.18-.05-1.18c0-.42-.06-.74-.06-1.25V145l-10-13.15V149.4c0,1.06.1,2.29.16,3.43S6.21,155.13,6.44,156.26Z" transform="translate(-5.2 -30.69)"/><path class="cls-11" d="M22.19,164.32l-1.35-.15a25.21,25.21,0,0,1-14.78-7.53L6,156.53l0-.16c-.2-1-.34-2-.48-3l-.08-.51,0-.67c-.06-.95-.11-1.94-.13-2.82V130.26l11,14.55v4.57c0,.3,0,.53,0,.76s0,.3,0,.47l.05,1.18.18,1.11.06.46a5.24,5.24,0,0,0,.12.67l.3,1.14a20.53,20.53,0,0,0,4.29,8.12ZM6.93,156a24.46,24.46,0,0,0,12.7,6.92A21.92,21.92,0,0,1,16,155.44l-.3-1.15c-.06-.27-.1-.53-.14-.79l-.06-.42-.18-1.19-.06-1.24c0-.16,0-.3,0-.44s0-.5,0-.83v-4.21L6.26,133.41v16c0,.86.07,1.83.12,2.77l.11,1.09C6.62,154.16,6.75,155.1,6.93,156Z" transform="translate(-5.2 -30.69)"/><path class="cls-10" d="M22.76,177.67a26.21,26.21,0,0,0,4.44-.76c.72-.19,1.39-.36,2.06-.59s1.33-.52,2-.79l.92-.41.9-.49c.59-.33,1.15-.66,1.68-1s1.06-.78,1.55-1.16l.71-.58.35-.3.41-.31c-.53,0-.85,0-1.27-.05l-1.19,0c-.78-.1-1.56-.24-2.34-.35s-1.54-.37-2.29-.63l-1.11-.41a6.24,6.24,0,0,1-1.1-.46,22.25,22.25,0,0,1-7.54-5.69,24.57,24.57,0,0,1-14.46-7.38A31.93,31.93,0,0,0,22.76,177.67Z" transform="translate(-5.2 -30.69)"/><path class="cls-11" d="M22.66,178.21l-.14-.07a32.36,32.36,0,0,1-16.6-21.76l-.38-1.76,1.27,1.27A24.11,24.11,0,0,0,21,163.11l.2,0,.14.16a21.74,21.74,0,0,0,7.36,5.55,6.63,6.63,0,0,0,1,.44l1.13.42c.42.14.86.25,1.3.36l1,.25.78.11c.49.08,1,.16,1.48.22l1.15,0,.41,0c.24,0,.48,0,.81,0l1.64,0L36.45,173c-.46.36-.94.74-1.43,1.07s-1.12.69-1.72,1l-.9.5-1,.43c-.64.27-1.3.54-2,.79s-1.15.36-1.74.51l-.37.1a27.19,27.19,0,0,1-4.52.77ZM7.38,157.88a31.29,31.29,0,0,0,15.48,19.24,25.21,25.21,0,0,0,4.2-.72l.38-.1c.57-.15,1.11-.3,1.65-.48s1.3-.51,1.92-.77l.92-.41.86-.47q.85-.49,1.65-1c.46-.31.92-.67,1.35-1l.52-.42-1.05-.05c-.55-.06-1-.14-1.56-.22l-.84-.13-1-.25c-.47-.12-.94-.24-1.4-.4l-1.13-.41a7.36,7.36,0,0,1-1.16-.49,22.7,22.7,0,0,1-7.56-5.66A24.77,24.77,0,0,1,7.38,157.88Z" transform="translate(-5.2 -30.69)"/><path class="cls-10" d="M48,181.26l13.16-10H37.74l-.41.31-.35.3-.71.58c-.49.38-1,.8-1.55,1.16s-1.09.67-1.68,1l-.9.49-.92.41c-.63.27-1.28.53-2,.79s-1.34.4-2.06.59a26.21,26.21,0,0,1-4.44.76,31.69,31.69,0,0,0,13.34,3.54c1.24.08,2.13,0,3.12,0H48Z" transform="translate(-5.2 -30.69)"/><path class="cls-11" d="M38.17,181.79c-.63,0-1.3,0-2.1,0a32.17,32.17,0,0,1-13.55-3.6L21,177.33l1.73-.19a25.75,25.75,0,0,0,4.36-.74l.38-.1c.57-.15,1.11-.3,1.65-.48s1.3-.51,1.92-.77l.92-.41.86-.47q.85-.49,1.65-1c.46-.31.92-.67,1.35-1l1.77-1.42H62.73l-14.55,11h-10ZM24.61,178a31.25,31.25,0,0,0,11.51,2.7c1,.06,1.69,0,2.42,0h9.29l11.75-8.92H37.92L36.45,173c-.46.36-.94.74-1.43,1.07s-1.12.69-1.72,1l-.9.5-1,.43c-.64.27-1.3.54-2,.79s-1.15.36-1.74.51l-.37.1A20.64,20.64,0,0,1,24.61,178Z" transform="translate(-5.2 -30.69)"/><path class="cls-10" d="M5.73,85l10,13.15,0-23.31A24.37,24.37,0,0,1,9.89,59.71a30.77,30.77,0,0,0-4,13.2c-.17,2.48-.11,4.25-.12,6.23Z" transform="translate(-5.2 -30.69)"/><path class="cls-11" d="M16.24,99.72,5.2,85.18v-7.5c0-1.44,0-2.93.12-4.8A31.23,31.23,0,0,1,9.43,59.45l.91-1.57.08,1.81a24,24,0,0,0,5.71,14.79l.14.16Zm-10-14.9,8.92,11.76,0-21.54A24.74,24.74,0,0,1,9.5,61.55,30.31,30.31,0,0,0,6.37,73c-.12,1.83-.12,3.31-.11,4.73v7.14Z" transform="translate(-5.2 -30.69)"/><path class="cls-10" d="M9.89,59.71a24.37,24.37,0,0,0,5.85,15.13A21.64,21.64,0,0,1,24,58.37a24.36,24.36,0,0,1,7.91-14.16A31.72,31.72,0,0,0,9.89,59.71Z" transform="translate(-5.2 -30.69)"/><path class="cls-11" d="M16.24,76.2l-.9-1a25,25,0,0,1-6-15.45v-.16l.08-.13A32.17,32.17,0,0,1,31.79,43.68l1.8-.29L32.23,44.6A23.94,23.94,0,0,0,24.5,58.45l0,.21-.16.13a21,21,0,0,0-8,16.06ZM10.42,59.84a24.39,24.39,0,0,0,4.86,13.62,22.09,22.09,0,0,1,8.2-15.38,24.82,24.82,0,0,1,6.73-13A31.19,31.19,0,0,0,10.42,59.84Z" transform="translate(-5.2 -30.69)"/><polygon class="cls-10" points="66.23 150.57 79.38 140.59 55.96 140.59 42.81 150.57 66.23 150.57"/><path class="cls-11" d="M71.6,181.79H46.43l14.55-11H86.15Zm-22-1.06H71.25L83,171.81H61.34Z" transform="translate(-5.2 -30.69)"/><polygon class="cls-10" points="0.53 77.72 10.51 90.88 10.51 67.46 0.53 54.3 0.53 77.72"/><path class="cls-11" d="M16.24,123.15,5.2,108.6V83.42L16.24,98Zm-10-14.91L15.18,120V98.33L6.26,86.57Z" transform="translate(-5.2 -30.69)"/><polygon class="cls-10" points="206.75 150.57 219.91 140.59 196.49 140.59 183.33 150.57 206.75 150.57"/><path class="cls-11" d="M212.13,181.79H187l14.55-11h25.18Zm-22-1.06h21.67l11.76-8.92H201.86Z" transform="translate(-5.2 -30.69)"/><polygon class="cls-10" points="183.33 150.57 196.49 140.59 173.06 140.59 159.91 150.57 183.33 150.57"/><path class="cls-11" d="M188.71,181.79H163.53l14.55-11h25.18Zm-22-1.06h21.67l11.76-8.92H178.44Z" transform="translate(-5.2 -30.69)"/><path class="cls-10" d="M31.88,44.21A24.36,24.36,0,0,0,24,58.37a21.9,21.9,0,0,1,8.49-4.1A5.81,5.81,0,0,1,33.62,54l1.17-.19c.79-.11,1.59-.09,2.38-.15H43l13.16-10H38.57c-.5,0-.93,0-1.5,0l-1.74.08A25.17,25.17,0,0,0,31.88,44.21Z" transform="translate(-5.2 -30.69)"/><path class="cls-11" d="M23.24,59.62l.21-1.33a25,25,0,0,1,8.07-14.48l.12-.1.71-.11a20.76,20.76,0,0,1,3-.33L37,43.19c.38,0,.7,0,1,0H57.71l-14.55,11h-6l-.93.05a11.92,11.92,0,0,0-1.37.1l-1.17.18a6.08,6.08,0,0,0-1.08.21,21.46,21.46,0,0,0-8.32,4Zm8.88-14.91a24.2,24.2,0,0,0-7.38,12.43,22.77,22.77,0,0,1,7.6-3.39,6.91,6.91,0,0,1,1.22-.24l1.15-.18c.51-.07,1-.09,1.49-.11.31,0,.61,0,.92,0h5.69l11.75-8.92H38.05c-.3,0-.6,0-1,0l-1.73.08a21.25,21.25,0,0,0-2.84.31Z" transform="translate(-5.2 -30.69)"/><polygon class="cls-10" points="230.17 150.57 243.33 140.59 219.91 140.59 206.75 150.57 230.17 150.57"/><path class="cls-11" d="M235.55,181.79H210.37l14.55-11H250.1Zm-22-1.06h21.66L247,171.81H225.28Z" transform="translate(-5.2 -30.69)"/><polygon class="cls-10" points="89.65 150.57 102.8 140.59 79.38 140.59 66.23 150.57 89.65 150.57"/><path class="cls-11" d="M95,181.79H69.85l14.55-11h25.17Zm-22-1.06H94.67l11.75-8.92H84.76Z" transform="translate(-5.2 -30.69)"/><polygon class="cls-10" points="255.64 150.57 255.64 140.59 243.33 140.59 230.17 150.57 255.64 150.57"/><path class="cls-11" d="M261.37,181.79H233.8l14.55-11h13ZM237,180.73h23.36v-8.92H248.7Z" transform="translate(-5.2 -30.69)"/><polygon class="cls-10" points="113.07 150.57 126.22 140.59 102.8 140.59 89.65 150.57 113.07 150.57"/><path class="cls-11" d="M118.45,181.79H93.27l14.55-11H133Zm-22-1.06h21.67l11.76-8.92H108.18Z" transform="translate(-5.2 -30.69)"/><polygon class="cls-10" points="159.91 150.57 173.06 140.59 149.64 140.59 136.49 150.57 159.91 150.57"/><path class="cls-11" d="M165.29,181.79H140.11l14.55-11h25.18Zm-22-1.06h21.67l11.76-8.92H155Z" transform="translate(-5.2 -30.69)"/><polygon class="cls-10" points="136.49 150.57 149.64 140.59 126.22 140.59 113.07 150.57 136.49 150.57"/><path class="cls-11" d="M141.87,181.79H116.69l14.55-11h25.18Zm-22-1.06h21.67l11.76-8.92H131.6Z" transform="translate(-5.2 -30.69)"/><polygon class="cls-10" points="0.53 101.14 10.51 114.3 10.51 90.88 0.53 77.72 0.53 101.14"/><path class="cls-11" d="M16.24,146.57,5.2,132V106.84l11,14.55Zm-10-14.91,8.92,11.76V121.75L6.26,110Z" transform="translate(-5.2 -30.69)"/><path class="cls-10" d="M293.38,85.53l-5-6.58-2.5-3.28a23.06,23.06,0,0,0-2.63-2.74c.07.79.08,1.58.14,2.38V95.8l10,13.15Z" transform="translate(-5.2 -30.69)"/><path class="cls-11" d="M293.91,110.53,282.87,96V75.31c0-.32-.05-.67-.06-1s0-.87-.08-1.3l-.12-1.35,1,.91a23.49,23.49,0,0,1,2.69,2.79l7.61,10Zm-10-14.91,8.92,11.76V85.71L285.47,76a20.16,20.16,0,0,0-1.6-1.76h0c0,.35,0,.69.05,1Z" transform="translate(-5.2 -30.69)"/><polygon class="cls-10" points="288.18 78.26 278.2 65.1 278.2 88.53 288.18 101.68 288.18 78.26"/><path class="cls-11" d="M293.91,134l-11-14.55V94.22l11,14.55Zm-10-14.91,8.92,11.76V109.13l-8.92-11.76Z" transform="translate(-5.2 -30.69)"/><path class="cls-10" d="M243.5,43.71l-13.15,10h23.42l6.58-5a29,29,0,0,1,7.51-4.39c-1.15-.17-2.29-.41-3.45-.47l-1.74-.09-.87,0H243.5Z" transform="translate(-5.2 -30.69)"/><path class="cls-11" d="M254,54.22H228.78l14.55-11,19.37,0,1.74.09a20.88,20.88,0,0,1,2.41.3l1.08.17,2,.28-1.85.74a29.13,29.13,0,0,0-7.37,4.31Zm-22-1.06h21.66L260,48.27a29.71,29.71,0,0,1,6-3.72,14.54,14.54,0,0,0-1.6-.19l-3.31-.12H243.68Z" transform="translate(-5.2 -30.69)"/><path class="cls-10" d="M267.86,44.31a29,29,0,0,0-7.51,4.39l-6.58,5h8l.6,0a16.83,16.83,0,0,1,2.36.21,21.81,21.81,0,0,1,8.82,3.31,25,25,0,0,1,16,3A32,32,0,0,0,267.86,44.31Z" transform="translate(-5.2 -30.69)"/><path class="cls-11" d="M290.87,61.58l-1.58-.86a24.48,24.48,0,0,0-15.61-2.95l-.21,0-.17-.11a21.41,21.41,0,0,0-8.6-3.24,10,10,0,0,0-1.64-.16l-.69,0-1.28,0H252.2L260,48.27a30.18,30.18,0,0,1,7.63-4.46l.14-.05.16,0A32.46,32.46,0,0,1,290,60Zm-13.74-5.17A26.36,26.36,0,0,1,288.18,59a31.4,31.4,0,0,0-20.27-14.12,28.87,28.87,0,0,0-7.23,4.25l-5.33,4,7.09,0,.67,0a9.75,9.75,0,0,1,1.77.18,22.14,22.14,0,0,1,8.82,3.28A20.53,20.53,0,0,1,277.13,56.41Z" transform="translate(-5.2 -30.69)"/><path class="cls-10" d="M289.55,60.26a25,25,0,0,0-16-3,21.91,21.91,0,0,1,9.67,15.69,23.06,23.06,0,0,1,2.63,2.74l2.5,3.28,5,6.58V75.28l-.08-1.73A31.75,31.75,0,0,0,289.55,60.26Z" transform="translate(-5.2 -30.69)"/><path class="cls-11" d="M293.91,87.11,285.47,76a22,22,0,0,0-2.57-2.66l-.15-.14,0-.2a21.22,21.22,0,0,0-9.43-15.3L272.17,57l1.33-.23a25.59,25.59,0,0,1,16.3,3.07l.14.08L290,60a32.24,32.24,0,0,1,3.81,13.51l.09,1.74ZM283.76,72.67a23.61,23.61,0,0,1,2.54,2.66L292.85,84V75.28l-.08-1.71a31.2,31.2,0,0,0-3.61-12.92A25,25,0,0,0,275,57.58,22.35,22.35,0,0,1,283.76,72.67Z" transform="translate(-5.2 -30.69)"/><path class="cls-10" d="M262.9,181.21A31.5,31.5,0,0,0,275.78,178a24.69,24.69,0,0,0,3.6-15.82,22.45,22.45,0,0,1-7.36,6.55,22,22,0,0,1-9.47,2.56Z" transform="translate(-5.2 -30.69)"/><path class="cls-11" d="M262.39,181.76l-.39-11,.53,0a21.44,21.44,0,0,0,9.24-2.5,22,22,0,0,0,7.18-6.39l.78-1.09.18,1.33a25.4,25.4,0,0,1-3.68,16.16l-.08.13-.14.07a31.93,31.93,0,0,1-13.09,3.32Zm.71-10,.32,8.92a30.88,30.88,0,0,0,12-3.12,24.55,24.55,0,0,0,3.58-14,22.74,22.74,0,0,1-6.7,5.62A22.37,22.37,0,0,1,263.1,171.74Z" transform="translate(-5.2 -30.69)"/><path class="cls-10" d="M293.38,132.37l-10-13.15v23.42l5,6.58a34.57,34.57,0,0,1,2.32,3.55c.33.63.65,1.3,1,2a16.74,16.74,0,0,1,.85,2.12l.21-.84.14-.86.26-1.72c.17-1.15.16-2.32.23-3.47l0-5.91Z" transform="translate(-5.2 -30.69)"/><path class="cls-11" d="M292.57,158.84,292,157a15.39,15.39,0,0,0-.82-2.06c-.31-.69-.63-1.34-.95-2a32.17,32.17,0,0,0-2.28-3.47l-5.09-6.72V117.64l11,14.55,0,17.8c0,.39,0,.75-.05,1.11a20,20,0,0,1-.19,2.43l-.4,2.59Zm-8.64-16.38,4.88,6.44a35.77,35.77,0,0,1,2.36,3.6c.34.67.67,1.34,1,2,.08.15.14.3.21.45l.25-1.61a21.82,21.82,0,0,0,.17-2.32c0-.37,0-.74.05-1.1l0-17.41-8.92-11.75Z" transform="translate(-5.2 -30.69)"/><path class="cls-10" d="M292.52,156.88a16.74,16.74,0,0,0-.85-2.12c-.31-.69-.63-1.36-1-2a34.57,34.57,0,0,0-2.32-3.55l-5-6.58v5.86c0,.46,0,1,0,1.4l-.06,1.19a18.76,18.76,0,0,1-.28,2.36,20.88,20.88,0,0,1-3.66,8.68,24.69,24.69,0,0,1-3.6,15.82A31.77,31.77,0,0,0,292.52,156.88Z" transform="translate(-5.2 -30.69)"/><path class="cls-11" d="M274.38,179.22l.94-1.55a24.31,24.31,0,0,0,3.54-15.47l0-.21.12-.17a20.29,20.29,0,0,0,3.56-8.46c0-.22.07-.46.11-.7a9.53,9.53,0,0,0,.17-1.56l.06-1.22c0-.25,0-.55,0-.86a4.68,4.68,0,0,1,0-.53v-7.43l5.94,7.84a35.77,35.77,0,0,1,2.36,3.6c.34.67.67,1.34,1,2a15.89,15.89,0,0,1,.87,2.18l0,.14,0,.14a32.16,32.16,0,0,1-17,21.42Zm5.55-16.95a25.11,25.11,0,0,1-2.81,14.37A31.17,31.17,0,0,0,292,156.9a17.67,17.67,0,0,0-.78-1.92c-.31-.69-.63-1.34-.95-2a32.17,32.17,0,0,0-2.28-3.47l-4-5.32v4.28a4.51,4.51,0,0,0,0,.52c0,.33,0,.67,0,.92l-.06,1.18a10.9,10.9,0,0,1-.18,1.71c0,.23-.08.46-.11.69A21.34,21.34,0,0,1,279.93,162.27Z" transform="translate(-5.2 -30.69)"/><polygon class="cls-10" points="50.94 13.01 37.79 22.99 61.21 22.99 74.36 13.01 50.94 13.01"/><path class="cls-11" d="M66.58,54.22H41.41L56,43.18H81.13Zm-22-1.06H66.23L78,44.24H56.32Z" transform="translate(-5.2 -30.69)"/><polygon class="cls-10" points="97.78 13.01 84.63 22.99 108.05 22.99 121.2 13.01 97.78 13.01"/><path class="cls-11" d="M113.42,54.22H88.25l14.55-11H128Zm-22-1.06h21.67l11.75-8.92H103.16Z" transform="translate(-5.2 -30.69)"/><polygon class="cls-10" points="214.89 13.01 201.73 22.99 225.15 22.99 238.31 13.01 214.89 13.01"/><path class="cls-11" d="M230.53,54.22H205.35l14.55-11h25.18Zm-22-1.06h21.67l11.76-8.92H220.26Z" transform="translate(-5.2 -30.69)"/><polygon class="cls-10" points="74.36 13.01 61.21 22.99 84.63 22.99 97.78 13.01 74.36 13.01"/><path class="cls-11" d="M90,54.22H64.83l14.55-11h25.17ZM68,53.16H89.65l11.75-8.92H79.74Z" transform="translate(-5.2 -30.69)"/><polygon class="cls-10" points="121.2 13.01 108.05 22.99 131.47 22.99 144.62 13.01 121.2 13.01"/><path class="cls-11" d="M136.85,54.22H111.67l14.55-11H151.4Zm-22-1.06h21.67l11.76-8.92H126.58Z" transform="translate(-5.2 -30.69)"/><polygon class="cls-10" points="191.47 13.01 178.31 22.99 201.73 22.99 214.89 13.01 191.47 13.01"/><path class="cls-11" d="M207.11,54.22H181.93l14.55-11h25.18Zm-22-1.06h21.67l11.76-8.92H196.84Z" transform="translate(-5.2 -30.69)"/><polygon class="cls-10" points="144.62 13.01 131.47 22.99 154.89 22.99 168.04 13.01 144.62 13.01"/><path class="cls-11" d="M160.27,54.22H135.09l14.55-11h25.18Zm-22-1.06h21.67l11.76-8.92H150Z" transform="translate(-5.2 -30.69)"/><polygon class="cls-10" points="168.04 13.01 154.89 22.99 178.31 22.99 191.47 13.01 168.04 13.01"/><path class="cls-11" d="M183.69,54.22H158.51l14.55-11h25.18Zm-22-1.06h21.67l11.76-8.92H173.42Z" transform="translate(-5.2 -30.69)"/><path class="cls-12" d="M262.55,171.24a21.48,21.48,0,0,0,16.55-8.73,21.16,21.16,0,0,0,3.89-8.77l.18-1.19a6.9,6.9,0,0,0,.14-1.2c0-.84.11-1.51.09-2.59V77.25c0-1,0-2.06,0-2.78l-.06-1.21c0-.4-.12-.8-.17-1.2a21.55,21.55,0,0,0-3.51-8.92,22.59,22.59,0,0,0-7.06-6.53,20.77,20.77,0,0,0-9.15-2.84c-1.45-.12-3.64-.08-5.59-.08H37.32a21.73,21.73,0,0,0-21,16.79c-.23.77-.26,1.59-.42,2.38s-.08,1.61-.15,2.41v74.47c.06.8,0,1.61.15,2.41a21.76,21.76,0,0,0,19.08,19c.8.07,1.6.09,2.42.14H260.84v3.61H37.37c-.94-.06-1.88-.08-2.82-.16a25.4,25.4,0,0,1-22.26-22.16c-.12-.94-.12-1.88-.18-2.82V75.26c.06-.93.06-1.88.17-2.81s.23-1.88.49-2.78A25.3,25.3,0,0,1,37.32,50.08H257.81c2,0,4,0,5.86.1a24.27,24.27,0,0,1,10.69,3.31,26.15,26.15,0,0,1,8.23,7.61,25.11,25.11,0,0,1,4.09,10.42c.07.47.17.93.2,1.4l.07,1.41c.07.91.05,1.93.05,2.92v71.51c0,1-.06,1.92-.1,2.87a8.21,8.21,0,0,1-.15,1.4l-.22,1.4A24.67,24.67,0,0,1,282,164.66a25,25,0,0,1-19.31,10.18Z" transform="translate(-5.2 -30.69)"/><path class="cls-13" d="M262.79,178.08a28.25,28.25,0,0,0,21.8-11.48A28.06,28.06,0,0,0,289.72,155l.24-1.57a10.6,10.6,0,0,0,.18-1.59c0-1,.13-2.16.11-3.12V77.25c0-1,0-2-.06-3l-.08-1.59c0-.53-.15-1-.22-1.58a28.33,28.33,0,0,0-4.63-11.76A29.2,29.2,0,0,0,276,50.68a27.51,27.51,0,0,0-12.07-3.74c-2.18-.15-4.1-.09-6.1-.1H37.32a28.68,28.68,0,0,0-22.2,10.72A29.08,29.08,0,0,0,9.6,68.94c-.28,1-.36,2.09-.54,3.14s-.13,2.12-.2,3.18v74.5c.07,1.06.07,2.12.2,3.18a28.62,28.62,0,0,0,25.13,25c1.06.1,2.13.13,3.18.18H260.84v1.53H37.37c-1.11,0-2.24-.08-3.35-.19A30.14,30.14,0,0,1,7.54,153.11c-.13-1.11-.14-2.23-.21-3.35V75.26c.07-1.12.08-2.24.21-3.35a33.15,33.15,0,0,1,.57-3.31A30.12,30.12,0,0,1,37.32,45.31H257.81c2,0,3.87-.06,6.21.11a28.92,28.92,0,0,1,12.73,3.94,30.83,30.83,0,0,1,9.77,9,29.81,29.81,0,0,1,4.88,12.4c.08.56.19,1.11.23,1.67l.09,1.67c.08,1.18,0,2.11.06,3.11v71.51c0,.94-.07,2.15-.12,3.24a11.68,11.68,0,0,1-.18,1.67l-.26,1.66a29.5,29.5,0,0,1-5.4,12.18,29.79,29.79,0,0,1-23,12.1Z" transform="translate(-5.2 -30.69)"/><path class="cls-10" d="M6.44,156.26a24.57,24.57,0,0,0,14.46,7.38,21.06,21.06,0,0,1-4.41-8.34l-.3-1.14c-.09-.39-.12-.79-.19-1.17l-.18-1.18-.05-1.18c0-.42-.06-.74-.06-1.25V145l-10-13.15V149.4c0,1.06.1,2.29.16,3.43S6.21,155.13,6.44,156.26Z" transform="translate(-5.2 -30.69)"/><path class="cls-11" d="M22.19,164.32l-1.35-.15a25.21,25.21,0,0,1-14.78-7.53L6,156.53l0-.16c-.2-1-.34-2-.48-3l-.08-.51,0-.67c-.06-.95-.11-1.94-.13-2.82V130.26l11,14.55v4.57c0,.3,0,.53,0,.76s0,.3,0,.47l.05,1.18.18,1.11.06.46a5.24,5.24,0,0,0,.12.67l.3,1.14a20.53,20.53,0,0,0,4.29,8.12ZM6.93,156a24.46,24.46,0,0,0,12.7,6.92A21.92,21.92,0,0,1,16,155.44l-.3-1.15c-.06-.27-.1-.53-.14-.79l-.06-.42-.18-1.19-.06-1.24c0-.16,0-.3,0-.44s0-.5,0-.83v-4.21L6.26,133.41v16c0,.86.07,1.83.12,2.77l.11,1.09C6.62,154.16,6.75,155.1,6.93,156Z" transform="translate(-5.2 -30.69)"/><path class="cls-10" d="M22.76,177.67a26.21,26.21,0,0,0,4.44-.76c.72-.19,1.39-.36,2.06-.59s1.33-.52,2-.79l.92-.41.9-.49c.59-.33,1.15-.66,1.68-1s1.06-.78,1.55-1.16l.71-.58.35-.3.41-.31c-.53,0-.85,0-1.27-.05l-1.19,0c-.78-.1-1.56-.24-2.34-.35s-1.54-.37-2.29-.63l-1.11-.41a6.24,6.24,0,0,1-1.1-.46,22.25,22.25,0,0,1-7.54-5.69,24.57,24.57,0,0,1-14.46-7.38A31.93,31.93,0,0,0,22.76,177.67Z" transform="translate(-5.2 -30.69)"/><path class="cls-11" d="M22.66,178.21l-.14-.07a32.36,32.36,0,0,1-16.6-21.76l-.38-1.76,1.27,1.27A24.11,24.11,0,0,0,21,163.11l.2,0,.14.16a21.74,21.74,0,0,0,7.36,5.55,6.63,6.63,0,0,0,1,.44l1.13.42c.42.14.86.25,1.3.36l1,.25.78.11c.49.08,1,.16,1.48.22l1.15,0,.41,0c.24,0,.48,0,.81,0l1.64,0L36.45,173c-.46.36-.94.74-1.43,1.07s-1.12.69-1.72,1l-.9.5-1,.43c-.64.27-1.3.54-2,.79s-1.15.36-1.74.51l-.37.1a27.19,27.19,0,0,1-4.52.77ZM7.38,157.88a31.29,31.29,0,0,0,15.48,19.24,25.21,25.21,0,0,0,4.2-.72l.38-.1c.57-.15,1.11-.3,1.65-.48s1.3-.51,1.92-.77l.92-.41.86-.47q.85-.49,1.65-1c.46-.31.92-.67,1.35-1l.52-.42-1.05-.05c-.55-.06-1-.14-1.56-.22l-.84-.13-1-.25c-.47-.12-.94-.24-1.4-.4l-1.13-.41a7.36,7.36,0,0,1-1.16-.49,22.7,22.7,0,0,1-7.56-5.66A24.77,24.77,0,0,1,7.38,157.88Z" transform="translate(-5.2 -30.69)"/><path class="cls-10" d="M48,181.26l13.16-10H37.74l-.41.31-.35.3-.71.58c-.49.38-1,.8-1.55,1.16s-1.09.67-1.68,1l-.9.49-.92.41c-.63.27-1.28.53-2,.79s-1.34.4-2.06.59a26.21,26.21,0,0,1-4.44.76,31.69,31.69,0,0,0,13.34,3.54c1.24.08,2.13,0,3.12,0H48Z" transform="translate(-5.2 -30.69)"/><path class="cls-11" d="M38.17,181.79c-.63,0-1.3,0-2.1,0a32.17,32.17,0,0,1-13.55-3.6L21,177.33l1.73-.19a25.75,25.75,0,0,0,4.36-.74l.38-.1c.57-.15,1.11-.3,1.65-.48s1.3-.51,1.92-.77l.92-.41.86-.47q.85-.49,1.65-1c.46-.31.92-.67,1.35-1l1.77-1.42H62.73l-14.55,11h-10ZM24.61,178a31.25,31.25,0,0,0,11.51,2.7c1,.06,1.69,0,2.42,0h9.29l11.75-8.92H37.92L36.45,173c-.46.36-.94.74-1.43,1.07s-1.12.69-1.72,1l-.9.5-1,.43c-.64.27-1.3.54-2,.79s-1.15.36-1.74.51l-.37.1A20.64,20.64,0,0,1,24.61,178Z" transform="translate(-5.2 -30.69)"/><path class="cls-10" d="M5.73,85l10,13.15,0-23.31A24.37,24.37,0,0,1,9.89,59.71a30.77,30.77,0,0,0-4,13.2c-.17,2.48-.11,4.25-.12,6.23Z" transform="translate(-5.2 -30.69)"/><path class="cls-11" d="M16.24,99.72,5.2,85.18v-7.5c0-1.44,0-2.93.12-4.8A31.23,31.23,0,0,1,9.43,59.45l.91-1.57.08,1.81a24,24,0,0,0,5.71,14.79l.14.16Zm-10-14.9,8.92,11.76,0-21.54A24.74,24.74,0,0,1,9.5,61.55,30.31,30.31,0,0,0,6.37,73c-.12,1.83-.12,3.31-.11,4.73v7.14Z" transform="translate(-5.2 -30.69)"/><path class="cls-10" d="M9.89,59.71a24.37,24.37,0,0,0,5.85,15.13A21.64,21.64,0,0,1,24,58.37a24.36,24.36,0,0,1,7.91-14.16A31.72,31.72,0,0,0,9.89,59.71Z" transform="translate(-5.2 -30.69)"/><path class="cls-11" d="M16.24,76.2l-.9-1a25,25,0,0,1-6-15.45v-.16l.08-.13A32.17,32.17,0,0,1,31.79,43.68l1.8-.29L32.23,44.6A23.94,23.94,0,0,0,24.5,58.45l0,.21-.16.13a21,21,0,0,0-8,16.06ZM10.42,59.84a24.39,24.39,0,0,0,4.86,13.62,22.09,22.09,0,0,1,8.2-15.38,24.82,24.82,0,0,1,6.73-13A31.19,31.19,0,0,0,10.42,59.84Z" transform="translate(-5.2 -30.69)"/><polygon class="cls-10" points="66.23 150.57 79.38 140.59 55.96 140.59 42.81 150.57 66.23 150.57"/><path class="cls-11" d="M71.6,181.79H46.43l14.55-11H86.15Zm-22-1.06H71.25L83,171.81H61.34Z" transform="translate(-5.2 -30.69)"/><polygon class="cls-10" points="0.53 77.72 10.51 90.88 10.51 67.46 0.53 54.3 0.53 77.72"/><path class="cls-11" d="M16.24,123.15,5.2,108.6V83.42L16.24,98Zm-10-14.91L15.18,120V98.33L6.26,86.57Z" transform="translate(-5.2 -30.69)"/><polygon class="cls-10" points="206.75 150.57 219.91 140.59 196.49 140.59 183.33 150.57 206.75 150.57"/><path class="cls-11" d="M212.13,181.79H187l14.55-11h25.18Zm-22-1.06h21.67l11.76-8.92H201.86Z" transform="translate(-5.2 -30.69)"/><polygon class="cls-10" points="183.33 150.57 196.49 140.59 173.06 140.59 159.91 150.57 183.33 150.57"/><path class="cls-11" d="M188.71,181.79H163.53l14.55-11h25.18Zm-22-1.06h21.67l11.76-8.92H178.44Z" transform="translate(-5.2 -30.69)"/><path class="cls-10" d="M31.88,44.21A24.36,24.36,0,0,0,24,58.37a21.9,21.9,0,0,1,8.49-4.1A5.81,5.81,0,0,1,33.62,54l1.17-.19c.79-.11,1.59-.09,2.38-.15H43l13.16-10H38.57c-.5,0-.93,0-1.5,0l-1.74.08A25.17,25.17,0,0,0,31.88,44.21Z" transform="translate(-5.2 -30.69)"/><path class="cls-11" d="M23.24,59.62l.21-1.33a25,25,0,0,1,8.07-14.48l.12-.1.71-.11a20.76,20.76,0,0,1,3-.33L37,43.19c.38,0,.7,0,1,0H57.71l-14.55,11h-6l-.93.05a11.92,11.92,0,0,0-1.37.1l-1.17.18a6.08,6.08,0,0,0-1.08.21,21.46,21.46,0,0,0-8.32,4Zm8.88-14.91a24.2,24.2,0,0,0-7.38,12.43,22.77,22.77,0,0,1,7.6-3.39,6.91,6.91,0,0,1,1.22-.24l1.15-.18c.51-.07,1-.09,1.49-.11.31,0,.61,0,.92,0h5.69l11.75-8.92H38.05c-.3,0-.6,0-1,0l-1.73.08a21.25,21.25,0,0,0-2.84.31Z" transform="translate(-5.2 -30.69)"/><polygon class="cls-10" points="230.17 150.57 243.33 140.59 219.91 140.59 206.75 150.57 230.17 150.57"/><path class="cls-11" d="M235.55,181.79H210.37l14.55-11H250.1Zm-22-1.06h21.66L247,171.81H225.28Z" transform="translate(-5.2 -30.69)"/><polygon class="cls-10" points="89.65 150.57 102.8 140.59 79.38 140.59 66.23 150.57 89.65 150.57"/><path class="cls-11" d="M95,181.79H69.85l14.55-11h25.17Zm-22-1.06H94.67l11.75-8.92H84.76Z" transform="translate(-5.2 -30.69)"/><polygon class="cls-10" points="255.64 150.57 255.64 140.59 243.33 140.59 230.17 150.57 255.64 150.57"/><path class="cls-11" d="M261.37,181.79H233.8l14.55-11h13ZM237,180.73h23.36v-8.92H248.7Z" transform="translate(-5.2 -30.69)"/><polygon class="cls-10" points="113.07 150.57 126.22 140.59 102.8 140.59 89.65 150.57 113.07 150.57"/><path class="cls-11" d="M118.45,181.79H93.27l14.55-11H133Zm-22-1.06h21.67l11.76-8.92H108.18Z" transform="translate(-5.2 -30.69)"/><polygon class="cls-10" points="159.91 150.57 173.06 140.59 149.64 140.59 136.49 150.57 159.91 150.57"/><path class="cls-11" d="M165.29,181.79H140.11l14.55-11h25.18Zm-22-1.06h21.67l11.76-8.92H155Z" transform="translate(-5.2 -30.69)"/><polygon class="cls-10" points="136.49 150.57 149.64 140.59 126.22 140.59 113.07 150.57 136.49 150.57"/><path class="cls-11" d="M141.87,181.79H116.69l14.55-11h25.18Zm-22-1.06h21.67l11.76-8.92H131.6Z" transform="translate(-5.2 -30.69)"/><polygon class="cls-10" points="0.53 101.14 10.51 114.3 10.51 90.88 0.53 77.72 0.53 101.14"/><path class="cls-11" d="M16.24,146.57,5.2,132V106.84l11,14.55Zm-10-14.91,8.92,11.76V121.75L6.26,110Z" transform="translate(-5.2 -30.69)"/><path class="cls-10" d="M293.38,85.53l-5-6.58-2.5-3.28a23.06,23.06,0,0,0-2.63-2.74c.07.79.08,1.58.14,2.38V95.8l10,13.15Z" transform="translate(-5.2 -30.69)"/><path class="cls-11" d="M293.91,110.53,282.87,96V75.31c0-.32-.05-.67-.06-1s0-.87-.08-1.3l-.12-1.35,1,.91a23.49,23.49,0,0,1,2.69,2.79l7.61,10Zm-10-14.91,8.92,11.76V85.71L285.47,76a20.16,20.16,0,0,0-1.6-1.76h0c0,.35,0,.69.05,1Z" transform="translate(-5.2 -30.69)"/><polygon class="cls-10" points="288.18 78.26 278.2 65.1 278.2 88.53 288.18 101.68 288.18 78.26"/><path class="cls-11" d="M293.91,134l-11-14.55V94.22l11,14.55Zm-10-14.91,8.92,11.76V109.13l-8.92-11.76Z" transform="translate(-5.2 -30.69)"/><path class="cls-10" d="M243.5,43.71l-13.15,10h23.42l6.58-5a29,29,0,0,1,7.51-4.39c-1.15-.17-2.29-.41-3.45-.47l-1.74-.09-.87,0H243.5Z" transform="translate(-5.2 -30.69)"/><path class="cls-11" d="M254,54.22H228.78l14.55-11,19.37,0,1.74.09a20.88,20.88,0,0,1,2.41.3l1.08.17,2,.28-1.85.74a29.13,29.13,0,0,0-7.37,4.31Zm-22-1.06h21.66L260,48.27a29.71,29.71,0,0,1,6-3.72,14.54,14.54,0,0,0-1.6-.19l-3.31-.12H243.68Z" transform="translate(-5.2 -30.69)"/><path class="cls-10" d="M267.86,44.31a29,29,0,0,0-7.51,4.39l-6.58,5h8l.6,0a16.83,16.83,0,0,1,2.36.21,21.81,21.81,0,0,1,8.82,3.31,25,25,0,0,1,16,3A32,32,0,0,0,267.86,44.31Z" transform="translate(-5.2 -30.69)"/><path class="cls-11" d="M290.87,61.58l-1.58-.86a24.48,24.48,0,0,0-15.61-2.95l-.21,0-.17-.11a21.41,21.41,0,0,0-8.6-3.24,10,10,0,0,0-1.64-.16l-.69,0-1.28,0H252.2L260,48.27a30.18,30.18,0,0,1,7.63-4.46l.14-.05.16,0A32.46,32.46,0,0,1,290,60Zm-13.74-5.17A26.36,26.36,0,0,1,288.18,59a31.4,31.4,0,0,0-20.27-14.12,28.87,28.87,0,0,0-7.23,4.25l-5.33,4,7.09,0,.67,0a9.75,9.75,0,0,1,1.77.18,22.14,22.14,0,0,1,8.82,3.28A20.53,20.53,0,0,1,277.13,56.41Z" transform="translate(-5.2 -30.69)"/><path class="cls-10" d="M289.55,60.26a25,25,0,0,0-16-3,21.91,21.91,0,0,1,9.67,15.69,23.06,23.06,0,0,1,2.63,2.74l2.5,3.28,5,6.58V75.28l-.08-1.73A31.75,31.75,0,0,0,289.55,60.26Z" transform="translate(-5.2 -30.69)"/><path class="cls-11" d="M293.91,87.11,285.47,76a22,22,0,0,0-2.57-2.66l-.15-.14,0-.2a21.22,21.22,0,0,0-9.43-15.3L272.17,57l1.33-.23a25.59,25.59,0,0,1,16.3,3.07l.14.08L290,60a32.24,32.24,0,0,1,3.81,13.51l.09,1.74ZM283.76,72.67a23.61,23.61,0,0,1,2.54,2.66L292.85,84V75.28l-.08-1.71a31.2,31.2,0,0,0-3.61-12.92A25,25,0,0,0,275,57.58,22.35,22.35,0,0,1,283.76,72.67Z" transform="translate(-5.2 -30.69)"/><path class="cls-10" d="M262.9,181.21A31.5,31.5,0,0,0,275.78,178a24.69,24.69,0,0,0,3.6-15.82,22.45,22.45,0,0,1-7.36,6.55,22,22,0,0,1-9.47,2.56Z" transform="translate(-5.2 -30.69)"/><path class="cls-11" d="M262.39,181.76l-.39-11,.53,0a21.44,21.44,0,0,0,9.24-2.5,22,22,0,0,0,7.18-6.39l.78-1.09.18,1.33a25.4,25.4,0,0,1-3.68,16.16l-.08.13-.14.07a31.93,31.93,0,0,1-13.09,3.32Zm.71-10,.32,8.92a30.88,30.88,0,0,0,12-3.12,24.55,24.55,0,0,0,3.58-14,22.74,22.74,0,0,1-6.7,5.62A22.37,22.37,0,0,1,263.1,171.74Z" transform="translate(-5.2 -30.69)"/><path class="cls-10" d="M293.38,132.37l-10-13.15v23.42l5,6.58a34.57,34.57,0,0,1,2.32,3.55c.33.63.65,1.3,1,2a16.74,16.74,0,0,1,.85,2.12l.21-.84.14-.86.26-1.72c.17-1.15.16-2.32.23-3.47l0-5.91Z" transform="translate(-5.2 -30.69)"/><path class="cls-11" d="M292.57,158.84,292,157a15.39,15.39,0,0,0-.82-2.06c-.31-.69-.63-1.34-.95-2a32.17,32.17,0,0,0-2.28-3.47l-5.09-6.72V117.64l11,14.55,0,17.8c0,.39,0,.75-.05,1.11a20,20,0,0,1-.19,2.43l-.4,2.59Zm-8.64-16.38,4.88,6.44a35.77,35.77,0,0,1,2.36,3.6c.34.67.67,1.34,1,2,.08.15.14.3.21.45l.25-1.61a21.82,21.82,0,0,0,.17-2.32c0-.37,0-.74.05-1.1l0-17.41-8.92-11.75Z" transform="translate(-5.2 -30.69)"/><path class="cls-10" d="M292.52,156.88a16.74,16.74,0,0,0-.85-2.12c-.31-.69-.63-1.36-1-2a34.57,34.57,0,0,0-2.32-3.55l-5-6.58v5.86c0,.46,0,1,0,1.4l-.06,1.19a18.76,18.76,0,0,1-.28,2.36,20.88,20.88,0,0,1-3.66,8.68,24.69,24.69,0,0,1-3.6,15.82A31.77,31.77,0,0,0,292.52,156.88Z" transform="translate(-5.2 -30.69)"/><path class="cls-11" d="M274.38,179.22l.94-1.55a24.31,24.31,0,0,0,3.54-15.47l0-.21.12-.17a20.29,20.29,0,0,0,3.56-8.46c0-.22.07-.46.11-.7a9.53,9.53,0,0,0,.17-1.56l.06-1.22c0-.25,0-.55,0-.86a4.68,4.68,0,0,1,0-.53v-7.43l5.94,7.84a35.77,35.77,0,0,1,2.36,3.6c.34.67.67,1.34,1,2a15.89,15.89,0,0,1,.87,2.18l0,.14,0,.14a32.16,32.16,0,0,1-17,21.42Zm5.55-16.95a25.11,25.11,0,0,1-2.81,14.37A31.17,31.17,0,0,0,292,156.9a17.67,17.67,0,0,0-.78-1.92c-.31-.69-.63-1.34-.95-2a32.17,32.17,0,0,0-2.28-3.47l-4-5.32v4.28a4.51,4.51,0,0,0,0,.52c0,.33,0,.67,0,.92l-.06,1.18a10.9,10.9,0,0,1-.18,1.71c0,.23-.08.46-.11.69A21.34,21.34,0,0,1,279.93,162.27Z" transform="translate(-5.2 -30.69)"/><polygon class="cls-10" points="50.94 13.01 37.79 22.99 61.21 22.99 74.36 13.01 50.94 13.01"/><path class="cls-11" d="M66.58,54.22H41.41L56,43.18H81.13Zm-22-1.06H66.23L78,44.24H56.32Z" transform="translate(-5.2 -30.69)"/><polygon class="cls-10" points="97.78 13.01 84.63 22.99 108.05 22.99 121.2 13.01 97.78 13.01"/><path class="cls-11" d="M113.42,54.22H88.25l14.55-11H128Zm-22-1.06h21.67l11.75-8.92H103.16Z" transform="translate(-5.2 -30.69)"/><polygon class="cls-10" points="214.89 13.01 201.73 22.99 225.15 22.99 238.31 13.01 214.89 13.01"/><path class="cls-11" d="M230.53,54.22H205.35l14.55-11h25.18Zm-22-1.06h21.67l11.76-8.92H220.26Z" transform="translate(-5.2 -30.69)"/><polygon class="cls-10" points="74.36 13.01 61.21 22.99 84.63 22.99 97.78 13.01 74.36 13.01"/><path class="cls-11" d="M90,54.22H64.83l14.55-11h25.17ZM68,53.16H89.65l11.75-8.92H79.74Z" transform="translate(-5.2 -30.69)"/><polygon class="cls-10" points="121.2 13.01 108.05 22.99 131.47 22.99 144.62 13.01 121.2 13.01"/><path class="cls-11" d="M136.85,54.22H111.67l14.55-11H151.4Zm-22-1.06h21.67l11.76-8.92H126.58Z" transform="translate(-5.2 -30.69)"/><polygon class="cls-10" points="191.47 13.01 178.31 22.99 201.73 22.99 214.89 13.01 191.47 13.01"/><path class="cls-11" d="M207.11,54.22H181.93l14.55-11h25.18Zm-22-1.06h21.67l11.76-8.92H196.84Z" transform="translate(-5.2 -30.69)"/><polygon class="cls-10" points="144.62 13.01 131.47 22.99 154.89 22.99 168.04 13.01 144.62 13.01"/><path class="cls-11" d="M160.27,54.22H135.09l14.55-11h25.18Zm-22-1.06h21.67l11.76-8.92H150Z" transform="translate(-5.2 -30.69)"/><polygon class="cls-10" points="168.04 13.01 154.89 22.99 178.31 22.99 191.47 13.01 168.04 13.01"/><path class="cls-11" d="M183.69,54.22H158.51l14.55-11h25.18Zm-22-1.06h21.67l11.76-8.92H173.42Z" transform="translate(-5.2 -30.69)"/><path class="cls-12" d="M262.55,171.24a21.48,21.48,0,0,0,16.55-8.73,21.16,21.16,0,0,0,3.89-8.77l.18-1.19a6.9,6.9,0,0,0,.14-1.2c0-.84.11-1.51.09-2.59V77.25c0-1,0-2.06,0-2.78l-.06-1.21c0-.4-.12-.8-.17-1.2a21.55,21.55,0,0,0-3.51-8.92,22.59,22.59,0,0,0-7.06-6.53,20.77,20.77,0,0,0-9.15-2.84c-1.45-.12-3.64-.08-5.59-.08H37.32a21.73,21.73,0,0,0-21,16.79c-.23.77-.26,1.59-.42,2.38s-.08,1.61-.15,2.41v74.47c.06.8,0,1.61.15,2.41a21.76,21.76,0,0,0,19.08,19c.8.07,1.6.09,2.42.14H260.84v3.61H37.37c-.94-.06-1.88-.08-2.82-.16a25.4,25.4,0,0,1-22.26-22.16c-.12-.94-.12-1.88-.18-2.82V75.26c.06-.93.06-1.88.17-2.81s.23-1.88.49-2.78A25.3,25.3,0,0,1,37.32,50.08H257.81c2,0,4,0,5.86.1a24.27,24.27,0,0,1,10.69,3.31,26.15,26.15,0,0,1,8.23,7.61,25.11,25.11,0,0,1,4.09,10.42c.07.47.17.93.2,1.4l.07,1.41c.07.91.05,1.93.05,2.92v71.51c0,1-.06,1.92-.1,2.87a8.21,8.21,0,0,1-.15,1.4l-.22,1.4A24.67,24.67,0,0,1,282,164.66a25,25,0,0,1-19.31,10.18Z" transform="translate(-5.2 -30.69)"/><path class="cls-13" d="M262.79,178.08a28.25,28.25,0,0,0,21.8-11.48A28.06,28.06,0,0,0,289.72,155l.24-1.57a10.6,10.6,0,0,0,.18-1.59c0-1,.13-2.16.11-3.12V77.25c0-1,0-2-.06-3l-.08-1.59c0-.53-.15-1-.22-1.58a28.33,28.33,0,0,0-4.63-11.76A29.2,29.2,0,0,0,276,50.68a27.51,27.51,0,0,0-12.07-3.74c-2.18-.15-4.1-.09-6.1-.1H37.32a28.68,28.68,0,0,0-22.2,10.72A29.08,29.08,0,0,0,9.6,68.94c-.28,1-.36,2.09-.54,3.14s-.13,2.12-.2,3.18v74.5c.07,1.06.07,2.12.2,3.18a28.62,28.62,0,0,0,25.13,25c1.06.1,2.13.13,3.18.18H260.84v1.53H37.37c-1.11,0-2.24-.08-3.35-.19A30.14,30.14,0,0,1,7.54,153.11c-.13-1.11-.14-2.23-.21-3.35V75.26c.07-1.12.08-2.24.21-3.35a33.15,33.15,0,0,1,.57-3.31A30.12,30.12,0,0,1,37.32,45.31H257.81c2,0,3.87-.06,6.21.11a28.92,28.92,0,0,1,12.73,3.94,30.83,30.83,0,0,1,9.77,9,29.81,29.81,0,0,1,4.88,12.4c.08.56.19,1.11.23,1.67l.09,1.67c.08,1.18,0,2.11.06,3.11v71.51c0,.94-.07,2.15-.12,3.24a11.68,11.68,0,0,1-.18,1.67l-.26,1.66a29.5,29.5,0,0,1-5.4,12.18,29.79,29.79,0,0,1-23,12.1Z" transform="translate(-5.2 -30.69)"/><path class="cls-14" d="M84.4,84.09h1.41V85.5H84.4v1.41H75.93V96.8H84.4v1.41h1.41V101H84.4v1.41H68.87V101H67.45V99.62H66V85.5h1.41v1.41h1.42V85.5h1.41V84.09H68.87V82.68H84.4Z" transform="translate(-5.2 -30.69)"/><path class="cls-14" d="M108.4,84.09V101H107v1.41h-4.23V101h-1.41V94H98.51V101H97.1v1.41H90V101H88.63V84.09H90v2.82h1.41V85.5h1.42V84.09H90V82.68H97.1v1.41h1.41v5.65h2.83V84.09h1.41V82.68H107v1.41Z" transform="translate(-5.2 -30.69)"/><path class="cls-14" d="M119.69,84.09h1.41V101h-1.41v1.41h-7.06V101h-1.41V84.09h1.41v2.82H114V85.5h1.41V84.09h-2.82V82.68h7.06Z" transform="translate(-5.2 -30.69)"/><path class="cls-14" d="M142.28,84.09h1.41V85.5h-1.41v1.41h-8.47V96.8h8.47v1.41h1.41V101h-1.41v1.41H126.75V101h-1.41V99.62h-1.42V85.5h1.42v1.41h1.41V85.5h1.41V84.09h-1.41V82.68h15.53Z" transform="translate(-5.2 -30.69)"/><path class="cls-14" d="M164.87,84.09h1.41v4.24h-1.41v1.41h-1.42v1.41H162v1.41h1.41V94h1.42v1.41h1.41V101h-1.41v1.41H162V101h-1.41V99.62h-1.41V98.21h-1.41V96.8h-1.42V101H155v1.41h-7.06V101h-1.41V84.09h1.41v2.82h1.42V85.5h1.41V84.09h-2.83V82.68H155v1.41h1.41v4.24h1.42V86.91h1.41V85.5h1.41V84.09H162V82.68h2.83Z" transform="translate(-5.2 -30.69)"/><path class="cls-14" d="M187.45,84.09h1.42V85.5h-1.42v1.41H179v2.83h8.47v1.41h1.42v1.41h-1.42V94H179V96.8h8.47v1.41h1.42V101h-1.42v1.41H170.51V101H169.1V84.09h1.41v2.82h1.41V85.5h1.42V84.09h-2.83V82.68h16.94Z" transform="translate(-5.2 -30.69)"/><path class="cls-14" d="M210,84.09h1.41V101H210v1.41h-4.23V101h-1.42V96.8H203V95.38h-1.41V101h-1.41v1.41H193.1V101h-1.41V84.09h1.41v2.82h1.41V85.5h1.41V84.09H193.1V82.68h7.06v1.41h1.41v5.65H203v1.41h1.41V84.09h1.42V82.68H210Z" transform="translate(-5.2 -30.69)"/><path class="cls-15" d="M74.51,112.89h1.42v1.41H74.51v1.41H66v9.89h8.47V127h1.42v2.82H74.51v1.41H59v-1.41H57.57v-1.41H56.16V114.3h1.41v1.41H59V114.3H60.4v-1.41H59v-1.41H74.51Z" transform="translate(-5.2 -30.69)"/><path class="cls-15" d="M97.1,114.3h1.41V120H97.1v1.41H95.69v1.41H97.1v1.41h1.41v5.65H97.1v1.41H94.28v-1.41H92.87v-1.41H91.45V127H90V125.6H88.63v4.23H87.22v1.41H80.16v-1.41H78.75V112.89h1.41v2.82h1.41V114.3H83v-1.41H80.16v-1.41H95.69v1.41H97.1Zm-4.23,1.41H88.63v2.83h4.24Z" transform="translate(-5.2 -30.69)"/><path class="cls-15" d="M119.69,114.3h1.41v14.12h-1.41v1.41h-1.41v1.41H104.16v-1.41h-1.41v-1.41h-1.41V114.3h1.41v1.41h1.41V114.3h1.41v-1.41h-1.41v-1.41h14.12v1.41h1.41Zm-4.24,11.3v-9.89h-4.23v9.89Z" transform="translate(-5.2 -30.69)"/><path class="cls-15" d="M142.28,112.89h1.41v2.82h-1.41v1.42h-8.47v1.41h8.47V120h1.41v8.47h-1.41v1.41h-1.41v1.41H125.34v-1.41h-1.42V125.6h1.42v-1.42h11.29v-1.41H125.34v-1.41h-1.42V114.3h1.42v1.41h1.41V114.3h1.41v-1.41h-1.41v-1.41h15.53Z" transform="translate(-5.2 -30.69)"/><path class="cls-15" d="M164.87,112.89h1.41v2.82h-1.41v1.42h-8.48v1.41h8.48V120h1.41v8.47h-1.41v1.41h-1.42v1.41H147.92v-1.41h-1.41V125.6h1.41v-1.42h11.3v-1.41h-11.3v-1.41h-1.41V114.3h1.41v1.41h1.42V114.3h1.41v-1.41h-1.41v-1.41h15.53Z" transform="translate(-5.2 -30.69)"/><path class="cls-15" d="M187.45,114.3h1.42V120h-1.42v1.41H186v1.41h1.41v1.41h1.42v5.65h-1.42v1.41h-2.82v-1.41h-1.41v-1.41h-1.41V127h-1.42V125.6H179v4.23h-1.41v1.41h-7.06v-1.41H169.1V112.89h1.41v2.82h1.41V114.3h1.42v-1.41h-2.83v-1.41H186v1.41h1.41Zm-4.23,1.41H179v2.83h4.24Z" transform="translate(-5.2 -30.69)"/><path class="cls-15" d="M210,114.3h1.41v14.12H210v1.41h-1.41v1.41H194.51v-1.41H193.1v-1.41h-1.41V114.3h1.41v1.41h1.41V114.3h1.41v-1.41h-1.41v-1.41h14.12v1.41H210Zm-4.23,11.3v-9.89h-4.24v9.89Z" transform="translate(-5.2 -30.69)"/><path class="cls-15" d="M232.63,115.71H234v14.12h-1.41v1.41h-2.82v-1.41h-1.42v-8.47h-4.23v8.47h-1.41v1.41h-7.06v-1.41h-1.41V114.3h1.41v1.41h1.41V114.3h1.41v-1.41H217.1v-1.41h12.71v1.41h1.41v1.41h1.41Zm-8.47,2.83h4.23v-2.83h-4.23Z" transform="translate(-5.2 -30.69)"/><path class="cls-15" d="M255.22,115.71h1.41v12.71h-1.41v1.41h-1.41v1.41H238.28v-1.41h-1.42V112.89h1.42v2.82h1.41V114.3h1.41v-1.41h-2.82v-1.41h14.11v1.41h1.42v1.41h1.41Zm-5.65,1.42v-1.42h-2.82v9.89h2.82v-1.42H251v-7.05Z" transform="translate(-5.2 -30.69)"/><ellipse class="cls-16" cx="308.89" cy="148.33" rx="68.15" ry="7.62"/><path class="cls-17" d="M336.19,94.89a17.49,17.49,0,0,0,7.1,3.26c3.15.74,5.95,2.78,9.31,2.17,2.87-.52,4.15-3.25,5.1-5.71q.89-2.25,1.75-4.5c1.85-4.76,4.69-.62,5.13,2.45.56-3.22,1.16-6.4,1.49-9.65.16-1.5.63-2.47,2-1.55s1.7,3.83,1.85,5.17l.28-4.93c.07-1.43.3-3.11,1.56-3.79,1.44-.78,3.2.31,4.21,1.6,2,2.51,2.62,5.78,3.21,8.92.49-1.19,1.29-2.59,2.58-2.52s1.85,1.34,2.21,2.46c3,9.54-2.33,22-8.93,29.16-5.32,5.77-22.14,12.81-30,10.29-4.29-1.48-.91-7.78-4.61-10.29-1.78-1.33.74-3.16-.74-4.64s-3.4-2.22-4.73-3.55a6.4,6.4,0,0,1-.89-1Z" transform="translate(-5.2 -30.69)"/><g class="cls-18"><path class="cls-19" d="M363.33,127.48c-3.08,1.65-5.75,3.21-8.67,5.12a19.44,19.44,0,0,1-8,2.94c-3,.39-6,.62-8.53-1.25-4.32-3.16-5.32-8.63-5.5-13.65-.34-9.3,4.91-20.58,17.38-22.55,1,3.13,4.57,5.37,6.56,7.9,2.41,3,.17,3.87-2.77,3.8,1.69,2.31,4.33,4.4,5,7.29.77,3.14-1.88,3.25-2.67,5.5-.93,2.68,4.36,2.25,5.91,1.89a19.14,19.14,0,0,0,7.1-3.84,55.1,55.1,0,0,0,17.21-23.07,19.48,19.48,0,0,1-2.77,11.33,40.87,40.87,0,0,1-7.52,9.08A58.7,58.7,0,0,1,363.33,127.48Z" transform="translate(-5.2 -30.69)"/><path class="cls-19" d="M358.22,87.09c1.35,2.11,2.53,3.37,3,6a66,66,0,0,1,.43,7.28c2.78-2.59,3-5.61,2.93-8.17C364.43,88.47,362.31,84.76,358.22,87.09Z" transform="translate(-5.2 -30.69)"/><path class="cls-19" d="M366.2,80c3.39,1.62,3.17,10.94,3,14.14.71-3.14,1.24-5.1.36-9.3-.46-2.2-.42-3.93-1.74-5.78C367.17,78.11,366.13,77.34,366.2,80Z" transform="translate(-5.2 -30.69)"/><path class="cls-19" d="M371.35,75.92c5.44,6.41,5.85,15.61,4.81,20.93,3.55-5.5,3-8.66,3.09-12.39C379.31,79.91,376.05,78,371.35,75.92Z" transform="translate(-5.2 -30.69)"/></g><path d="M336.19,94.89c2.63,2.12,6,2.61,9.11,3.52,2.81,1,6.31,2.5,8.9.54,3-2.73,3.22-7.37,5.44-10.75,2.7-3.12,5.45,1.74,5.68,4.26l-1.48,0c.67-3.53,1.16-7,1.63-10.49a1.78,1.78,0,0,1,2.77-1.37c2,1.21,2.13,3.85,2.46,5.87l-1.5,0c.24-2.39,0-5.24.76-7.57a3.17,3.17,0,0,1,4.68-1.62c3.73,2.24,4.52,7,5.31,10.9L378.52,88c1.41-4,5.1-4,6.24.15,2.68,9.57-1.44,19.7-7.12,27.35-5.25,7.77-24,15.73-33.05,12.79-4.41-1.71-1.29-7.82-4.52-10.25a2.32,2.32,0,0,1-1-2.36c.1-.92.72-1.63.26-2.35-1.68-1.71-4.16-2.68-5.62-4.93.52-4.62,1.81-9.21,2.45-13.55Zm0,0c-.64,4.61-1.09,9.07-1.63,13.38l-.07-.31c1.44,2,4.06,2.78,5.92,4.57.91,1,.38,2.45.18,3.42a.79.79,0,0,0,.38.9c2.76,1.87,2,5.69,2.69,8.39s4.74,2.24,7.08,2.17a46.53,46.53,0,0,0,21.69-8.61c7.07-6,12-16.62,11.64-25.91-.13-1.51-.62-7-2.77-6.24a3.92,3.92,0,0,0-1.4,2,.75.75,0,0,1-1.43-.14c-.7-3.47-1.42-7.91-4.53-9.86-1.71-.94-2.74.36-2.88,2.11-.14,1.58-.26,4.2-.36,5.85a.75.75,0,0,1-.79.71.76.76,0,0,1-.7-.67,11.14,11.14,0,0,0-1.12-4.17,1.65,1.65,0,0,0-.93-.69,3.64,3.64,0,0,0-.38,1.61c-.35,3.15-.92,6.25-1.47,9.33a.75.75,0,0,1-1.48,0c-.07-1.11-1.67-5.24-3-3.53-.8,1.1-2.14,5.28-2.75,6.63-2.68,6.58-7.48,5.91-13,3.28-3.08-1.07-6.43-1.86-8.88-4.16Z" transform="translate(-5.2 -30.69)"/><path class="cls-19" d="M302.9,150.24c-.44,1.11,1.33,3.63,2,4.44a7.57,7.57,0,0,0,5.55,2.44,9.42,9.42,0,0,0,9.54-6.28,8.21,8.21,0,0,0,.44-3.19Z" transform="translate(-5.2 -30.69)"/><path d="M302.9,150.24c-.07,1.12.82,2,1.45,2.83,3.87,5.43,12.76,3.86,14.89-2.38a7.37,7.37,0,0,0,.45-2.91l.85.62L312,149.64c-.77.09-2.48.37-3.23.45l-5.84.15Zm0,0c1.63-.49,3.42-1,5.12-1.46,2.3-.38,9.89-1.49,12.32-1.87,1.28-.06.83,1.82.76,2.54a10,10,0,0,1-2.25,4.85c-3.61,4.57-12.81,5.28-15.33-.71-.42-1-1.06-2.25-.62-3.35Z" transform="translate(-5.2 -30.69)"/><path class="cls-20" d="M289.13,179.71c1.13,0,2.25-.06,3.38,0a18.63,18.63,0,0,0,2.57-.25c.94-.06,1.57,0,2-.94s.63-4.32-.94-4.76c-.68-.19-1.94.44-2.63.62-1,.38-1.81,1-2.82,1.51l-.5.19Z" transform="translate(-5.2 -30.69)"/><path d="M289.13,180.21l2.07,0c.68,0,1.36.07,2,0s1.26-.2,1.9-.25a4.91,4.91,0,0,0,1.27-.15c1.56-.51,1.67-2.75,1.49-4.09a3.2,3.2,0,0,0-.89-2,2.3,2.3,0,0,0-2.41-.21,15,15,0,0,0-3,1.32l-.78.45c-.28.16-.63.23-.89.39a.82.82,0,0,0-.3.53l-1,3.41a.5.5,0,0,0,1,.26l1.07-3.63-.35.35a14.2,14.2,0,0,0,2.09-1.07,11.23,11.23,0,0,1,1.91-.85,3.44,3.44,0,0,1,1.64-.41,1.09,1.09,0,0,1,.7.7,4.63,4.63,0,0,1,.17,2.73,1.8,1.8,0,0,1-.51,1.07c-.36.28-1,.2-1.4.24s-.94.14-1.42.2a7.15,7.15,0,0,1-1.31,0c-1,0-2.05,0-3.07,0A.5.5,0,0,0,289.13,180.21Z" transform="translate(-5.2 -30.69)"/><path class="cls-21" d="M283.43,180.21c1.31,0,2.57,0,3.82-.06.81,0,1.57-.07,2.32-.13a9.19,9.19,0,0,0,2.63-.25c1.75-.75,1.69-3.19,1.63-4.82,0-.69,0-1.82-.63-2.26a3.32,3.32,0,0,0-2.57.07,10.48,10.48,0,0,0-2.25,1.06,6,6,0,0,1-1.44.94Z" transform="translate(-5.2 -30.69)"/><path d="M283.43,180.71c1.73,0,3.47,0,5.19-.11.74,0,1.47-.09,2.2-.11a4,4,0,0,0,1.86-.4c1.93-1.09,1.75-3.93,1.63-5.82-.08-1.22-.56-2.22-1.89-2.31a7.29,7.29,0,0,0-3.76,1.11c-.62.34-1.13.88-1.77,1.17a1.07,1.07,0,0,0-.49.42l-1,1.59L283,180c-.35.54.51,1,.86.5l3.51-5.45-.3.23a13.22,13.22,0,0,0,1.86-1.17,10.1,10.1,0,0,1,2.16-.94c.49-.15,1.4-.37,1.85,0s.38,1.17.39,1.66a8.82,8.82,0,0,1-.31,3.43c-.6,1.47-2.06,1.23-3.38,1.31q-3.11.19-6.21.19A.5.5,0,0,0,283.43,180.71Z" transform="translate(-5.2 -30.69)"/><path class="cls-22" d="M278.1,179.58c.82.5,3.32.63,4.26.63a41.8,41.8,0,0,0,4.89-.06,3.59,3.59,0,0,0,2.19-1.38,3.8,3.8,0,0,0,.69-2.44c0-1.82-.25-3.51-2.38-3.64-.81,0-1.63.07-2.44,0a39.13,39.13,0,0,0-.07-7.26c-.12-1.32-.18-5.89-.55-6.64A59.36,59.36,0,0,0,289.5,163c1.13,1,2.95,2.2,4.58,1.76,1.94-.57,3.88-2.45,5.38-3.7.88-.75,1.63-1.56,2.51-2.32.63-.56,1.88-1.56,2-2.44a4.46,4.46,0,0,0-1.5-2.94,44.43,44.43,0,0,1-5.39,4.44c-1.37.88-2.88,2.57-4.57,2.26a7.71,7.71,0,0,1-2.69-1.57,13.3,13.3,0,0,1-1.88-1.31c-1.25-1.13-1.19-3-1.5-4.51-.26-.82-.26-1.57-1.07-2a3.53,3.53,0,0,0-2.38-.25c-1.69.57-1,3.26-.94,4.64.06,1.82.31,3.63.31,5.39a16.52,16.52,0,0,1-1,5.26c-.88,2.94-2.57,5.38-3.95,8.08-.87,1.69-1.37,3.38-.37,5.13Z" transform="translate(-5.2 -30.69)"/><path d="M277.85,180a8.84,8.84,0,0,0,3.82.67c.78,0,1.56,0,2.34,0a21.65,21.65,0,0,0,2.79,0,4.11,4.11,0,0,0,3.66-2.88,6.45,6.45,0,0,0-.29-4.2c-.93-1.86-3.17-1.32-4.86-1.43l.5.5a42.32,42.32,0,0,0,.09-5.16c0-1.18-.18-2.35-.24-3.52s-.09-2.14-.17-3.21a7,7,0,0,0-.37-2.27l-.79.61a62.58,62.58,0,0,0,5.15,4.48c1.48,1.21,3.35,2.17,5.26,1.42a19.07,19.07,0,0,0,4.94-3.53c.91-.77,1.74-1.64,2.64-2.43a9.73,9.73,0,0,0,1.76-1.81c.95-1.42-.14-3.44-1.36-4.36a.5.5,0,0,0-.6.07,51.34,51.34,0,0,1-5.29,4.37c-.8.53-1.51,1.18-2.33,1.68a2.51,2.51,0,0,1-2.8.15c-.92-.51-1.74-1.2-2.62-1.77a3.7,3.7,0,0,1-1.72-2.33c-.22-.84-.24-1.72-.44-2.56a3.36,3.36,0,0,0-1.14-2.21c-1.24-.81-3.43-.83-4.13.68-.59,1.29-.16,2.81-.1,4.16.12,2.44.55,4.92.13,7.35a23.26,23.26,0,0,1-2.28,6.58c-.59,1.13-1.24,2.23-1.85,3.35a12.49,12.49,0,0,0-1.46,3.43,4.35,4.35,0,0,0,.52,3.29,5.21,5.21,0,0,0,1.24.87c.54.35,1-.52.51-.87a4.47,4.47,0,0,1-1.06-.68c.11.13-.1-.54,0-.19,0-.15-.12-.3-.17-.46a3.61,3.61,0,0,1-.13-.8,4.76,4.76,0,0,1,.28-1.71,46.15,46.15,0,0,1,3-5.83,24.39,24.39,0,0,0,2.22-6.14,23.62,23.62,0,0,0,.11-6.77c-.07-.87-.1-1.73-.19-2.59a7.41,7.41,0,0,1,0-2,1.27,1.27,0,0,1,1.48-1.15,2.83,2.83,0,0,1,1.39.39,2.17,2.17,0,0,1,.58,1.27c.42,1.6.3,3.41,1.42,4.75a12,12,0,0,0,2.36,1.77,9.13,9.13,0,0,0,2.38,1.46c2.06.71,3.7-1.14,5.24-2.16a51.73,51.73,0,0,0,5.56-4.57l-.6.08a4,4,0,0,1,1.08,1.62,1.49,1.49,0,0,1-.43,1.81c-.52.56-1.12,1-1.68,1.55-.72.66-1.4,1.36-2.15,2a20.91,20.91,0,0,1-4.33,3.22c-1.74.81-3.38-.08-4.72-1.23a65.27,65.27,0,0,1-4.95-4.31c-.42-.43-1,.12-.79.61a7.83,7.83,0,0,1,.27,2.12c.06,1,.1,2.07.15,3.11s.19,2.24.24,3.37a42.52,42.52,0,0,1-.1,5.05.5.5,0,0,0,.5.5,11.26,11.26,0,0,1,3.13.14,1.77,1.77,0,0,1,1.07,1.45c.36,1.68.15,3.74-1.54,4.59a6.08,6.08,0,0,1-2.84.39c-.95,0-1.91,0-2.86,0a19,19,0,0,1-2-.12,4.81,4.81,0,0,1-1.91-.44A.5.5,0,0,0,277.85,180Z" transform="translate(-5.2 -30.69)"/><path d="M287.59,172.69a40.88,40.88,0,0,1-6.79,1.38c1.71-1.67,4.54-2,6.79-1.38Z" transform="translate(-5.2 -30.69)"/><path d="M292.29,164.73c-1.4.36-2-1.3-1.85-2.43.44-2.21.79.12,1,.88a3.31,3.31,0,0,0,.42,1.14c.09.1.34.21.4.41Z" transform="translate(-5.2 -30.69)"/><path d="M296.83,163.24c-1,.77-2.09-.92-1.43-1.81.9.58.82,1.11,1.43,1.81Z" transform="translate(-5.2 -30.69)"/><path d="M299.33,161.21a1.19,1.19,0,0,1-1.34-.76,1.43,1.43,0,0,1,.23-1.49,3.33,3.33,0,0,1,.69,1.11c.06.17.21.57.28.73s.19.24.14.41Z" transform="translate(-5.2 -30.69)"/><path class="cls-17" d="M314.72,83.48l-10.19-1.06A61.5,61.5,0,0,1,284,88c-2.62.22-5.81-.37-8.67-.33a26,26,0,0,0-6.57-14.31c-2.51-2.82-5.47-5-9.32-5.48-3.4-.44-7.39.45-7.84,4.44A14.43,14.43,0,0,0,254.24,82a101,101,0,0,0,7.39,8.57c-1.33-.44-2.5-1.09-3.83-1.68s-3.23-1.49-4.41-1.78c-2.37-.74-4.18-.23-4.92,2.73s1.62,5.62,3.55,7.24c2.07,1.93,3.83,2.81,7.24,5-2.66.3-5.76-1.33-7.69,1-2.36,3-.15,6.21,2.52,7.84a15.58,15.58,0,0,0,7,1.83,33.73,33.73,0,0,0,1,14.14c2.95,9.32,8.72,16.28,18,19.68a97.74,97.74,0,0,0,11.24,3,71.37,71.37,0,0,0,11.1,1.77c3.85.3,7.69.45,11.39.45s7.1-1.48,10.5-3.11c8-4,17.9-10.65,20.71-19.38.15,1.19,1.78,2.37,2.81,1.78,1-.74.74-3,.74-4a23.38,23.38,0,0,0-1.62-7.84,5.82,5.82,0,0,0,4.88,2.81c2.66-.29,2.07-2.66,1.62-4.43-1.15-4-3.15-7.53-5.17-11.13,1.38,2,8.69,2.55,4.43-.71-3.4-2.66-4.88-5-6.65-8.87-1.33-3.11-1.48-6.81-4.14-9.18-3.41-2.95-6.66-1.18-10.36-2.51l-16.88-1.75" transform="translate(-5.2 -30.69)"/><g class="cls-23"><path class="cls-19" d="M256.91,65.45c-3.45,5.18-.79,11.86,1.25,17a32,32,0,0,0,6.29,9.74c-3.63-1.28-6.53-4.73-9-7.52-3.24-3.59-5.41-6.9-5.28-12C250.24,68.61,252.29,63.74,256.91,65.45Z" transform="translate(-5.2 -30.69)"/><path class="cls-19" d="M248.75,85.5c-1.2,3.23,2.31,7.49,4.39,9.53,3,3,6.26,4.41,10,6.11-3,2.27-8.68-.12-11.26-1.55C245.75,96.19,244.22,89.36,248.75,85.5Z" transform="translate(-5.2 -30.69)"/><path class="cls-19" d="M250.71,101.29c2.55,4.84,8.58,8.65,14,9.11-.4.84-1.33,1.6-3.69,2.39C255.78,114.53,248.67,115.72,250.71,101.29Z" transform="translate(-5.2 -30.69)"/><path class="cls-19" d="M333.55,40.92c-5.48-1.38-11.3-1.89-15.76,2.26-7.21,6.7-8.11,18.41-11.21,27.23A41.44,41.44,0,0,1,302.81,79,13.41,13.41,0,0,1,300,82.31c-.31.25-4,2.81-4,2.92,1.32,2,4.84,4,7.76,3.19a5.28,5.28,0,0,0,2.55,5.67c1.42.9,4.78,1.72,6.24.45-.52,4.08,7.78,7.54,10.1,3.94-1,2.55,3.08,4.68,4.88,5,2.92.67,4.64.57,5.76-2.32,1,4.64,9.91,5,10.41-.26,1.76,2.41,6.33,2.4,8.08.36-2.08.31-3.1-6-3.33-7.54-.67-3.25-1.73-16.8-1.83-20.23,0-9,2.81-20-3.69-27.53C340.52,43.14,337.1,41.81,333.55,40.92Z" transform="translate(-5.2 -30.69)"/><path class="cls-19" d="M338.53,127.54c-.26,1.28-.29,3.77-1.74,4.28s-2.05-.82-1.84-2.07c-1.13,1.37-1.7,3.58-3.92,2.59-1.68-.75-1.53-2.5-1.58-4-.4.82-1.84,2.81-2.9,2.45-1.37-.47-.3-3.43.09-4.27,0,0-3.73,4.08-1.95,5a3,3,0,0,0,3.19-.36s.18,3.55,3,3,3.37-2.13,3.37-2.13.35,2.66,2.66,1.42S338.53,127.54,338.53,127.54Z" transform="translate(-5.2 -30.69)"/><path class="cls-19" d="M341.69,109.8c.21,1.29,1,3.63-.15,4.61s-2.2,0-2.44-1.3c-.59,1.67-.36,4-2.78,3.78-1.84-.12-2.3-1.82-2.89-3.25-.09.92-.75,3.28-1.87,3.31-1.45,0-1.46-3.12-1.39-4,0,0-2.09,5.11-.12,5.33a3,3,0,0,0,2.88-1.43s1.39,3.27,3.87,1.79,2.43-3.17,2.43-3.17,1.25,2.38,3,.42S341.69,109.8,341.69,109.8Z" transform="translate(-5.2 -30.69)"/></g><path d="M314.72,83.48l-10.21-.87.1,0a59.72,59.72,0,0,1-21.79,6c-2.58,0-5.08-.33-7.51-.27a.65.65,0,0,1-.67-.59A26.63,26.63,0,0,0,269,74.86c-2.92-3.64-7-6.65-11.86-6.27-2.16.11-4.39,1.14-4.77,3.42A13.22,13.22,0,0,0,255,81.74l2.32,2.86A54.27,54.27,0,0,0,262.15,90a.75.75,0,0,1,0,1.06.78.78,0,0,1-.79.2c-2.65-1-5-2.31-7.55-3.26-2.83-1.13-4.46-.22-4.75,2.73a5.61,5.61,0,0,0,1.18,3.35c2.37,3.26,6,5.14,9.4,7.37a.75.75,0,0,1-.32,1.38c-2.07.25-4.14-.64-6-.08a3.34,3.34,0,0,0-1.84,4.17c1.42,3.74,5.86,4.91,9.6,5.12a.75.75,0,0,1,.69.81,33,33,0,0,0,1.07,14.1c2.76,9.17,9.74,16.8,19,19.48,4.56,1.35,9.4,2.41,14.05,3.33A98.48,98.48,0,0,0,310.33,151a26.76,26.76,0,0,0,7-.38c6.79-2,13.19-5.9,18.68-10.32,3.61-3.06,6.85-6.78,8.3-11.22a.75.75,0,0,1,.95-.49.76.76,0,0,1,.51.63,1.61,1.61,0,0,0,.71,1,1.08,1.08,0,0,0,1,.22l-.06,0a1.49,1.49,0,0,0,.39-.85,23.67,23.67,0,0,0-.08-4.37,26.64,26.64,0,0,0-1.47-5.76.73.73,0,0,1,.45-1,.74.74,0,0,1,.9.32c1,1.61,3.46,3.19,5.16,2.08,1.59-2.56-3.66-11.36-5.13-14.08a.75.75,0,0,1,1.27-.8,3.56,3.56,0,0,0,1.77,1,5,5,0,0,0,2.64.19c.11,0,0-.05,0,.11s0,.06-.07,0a18.24,18.24,0,0,0-2.21-2,22.44,22.44,0,0,1-5.73-8.76c-1.53-5-2.22-10.2-8.67-10.37a16.58,16.58,0,0,1-5.07-.72l-16.85-2L331.63,85c3.23,1.1,7.19-.25,10.09,2,3,2.08,3.51,6,4.72,9.15a21.86,21.86,0,0,0,5.6,8.07,14.46,14.46,0,0,1,2.51,2.3c1.71,3.75-5.81,2.33-6.85.41l1.27-.8A53.93,53.93,0,0,1,354.1,117c2.55,7-4.6,7.4-7.76,2.6l1.35-.64a25.1,25.1,0,0,1,1.71,9.22c0,1.23.07,2.52-1.09,3.48-1.68.91-3.67-.5-4-2.29l1.46.13c-1.6,4.86-5,8.74-8.76,11.91-5.77,4.63-12.16,8.54-19.3,10.62a27.59,27.59,0,0,1-7.43.43,99.42,99.42,0,0,1-14.59-1.25c-9.51-2-19.95-3.54-26.88-11a33.49,33.49,0,0,1-8.51-27.5l.68.84c-3.12-.22-6.68-.91-9-3.29-1.67-1.55-2.81-4.2-1.7-6.43,1.82-4,5.67-2.35,8.92-2.48l-.33,1.37c-3.4-2.23-7.31-4.28-9.81-7.77a7,7,0,0,1-1.45-4.27c.95-7,6.18-4.44,10.58-2.47a39.59,39.59,0,0,0,3.7,1.63l-.75,1.26a56.24,56.24,0,0,1-4.95-5.56l-2.31-2.84a14.59,14.59,0,0,1-2.94-11c.42-2.88,3.46-4.57,6.13-4.62,5.3-.46,10,2.86,13.12,6.81A25.71,25.71,0,0,1,276,87.64l-.68-.6c2.59,0,5.08.47,7.52.5a59.38,59.38,0,0,0,21.64-5.3.17.17,0,0,1,.1,0l10.17,1.25Z" transform="translate(-5.2 -30.69)"/><path class="cls-20" d="M320.23,179.4a36.72,36.72,0,0,0,4.69-.1c2-.31,4.3-.36,5.67-1.72.58-.56,2.34-3.39.26-3.34a10,10,0,0,0-2.61.91c-1.1.35-2.08.81-3.12,1.16a9.32,9.32,0,0,1-1.18.36Z" transform="translate(-5.2 -30.69)"/><path d="M320.23,179.9a44.8,44.8,0,0,0,4.49-.07,29.09,29.09,0,0,0,3.72-.59,5.1,5.1,0,0,0,3.75-3.38,1.57,1.57,0,0,0-.36-1.87c-.84-.57-2-.08-2.78.27-1.27.56-2.58,1-3.88,1.51a10.11,10.11,0,0,0-1.5.48,5,5,0,0,0-.44.32L320,179c-.52.37,0,1.24.5.86l2.44-1.79a12.83,12.83,0,0,1,1.2-.89,5.57,5.57,0,0,1,.93-.28c.65-.22,1.28-.48,1.92-.73s1.1-.38,1.64-.6,1-.45,1.48-.63,1.35-.43,1.23.32a4,4,0,0,1-3,3,28.09,28.09,0,0,1-3.54.58,40.82,40.82,0,0,1-4.56.08A.5.5,0,0,0,320.23,179.9Z" transform="translate(-5.2 -30.69)"/><path class="cls-21" d="M318,179c4.44.08,8.51-.44,12.13-3.32,1.48-1.19,2.88-3.33,1.18-5-1.25-1.19-3.84-.3-5.25.14a7.7,7.7,0,0,0-1.77.74Z" transform="translate(-5.2 -30.69)"/><path d="M318,179.53c3.5.05,7.07-.28,10.21-2a9.5,9.5,0,0,0,3.84-3.29,3.14,3.14,0,0,0-.49-4.05c-1.1-.93-2.76-.68-4-.36-.7.17-1.38.4-2.05.63a4,4,0,0,0-1.57.73,15,15,0,0,0-1,1.22l-2,2.35-3.26,3.88c-.42.49.29,1.2.7.71l5.72-6.79a2.67,2.67,0,0,1,1-.89,14.29,14.29,0,0,1,3.79-1.08,3,3,0,0,1,1.88.22,1.9,1.9,0,0,1,.84,2c-.3,1.54-1.81,2.64-3.05,3.41-3.16,2-6.86,2.34-10.5,2.28A.5.5,0,0,0,318,179.53Z" transform="translate(-5.2 -30.69)"/><path class="cls-22" d="M304.75,157.64a45,45,0,0,1,1,7.77,62.18,62.18,0,0,1,.15,9c-1.34-.52-3.63-1.71-5-.45s-1.26,4.44-.3,5.77c1.26,1.92,4.22,1.33,5.92.52.45-.22.89-.59,1.33-.81s.37-.23,1.11,0c1,.22,2.07.22,3.11.36,4.66.6,9.32.3,12.79-3.32,1.93-2,3.7-4.29,4.15-7,.29-1.7.14-4.29-2.3-3.92a10.8,10.8,0,0,0-3.92,2.37c-1.18,1-2.59,1.78-3.77,2.74a48.87,48.87,0,0,1-7.4,4.81c-.73-1-1-3-1.33-4.29-.44-1.71-.81-3.33-1.25-5A20.13,20.13,0,0,1,308,161a19.62,19.62,0,0,1-.52-3.62Z" transform="translate(-5.2 -30.69)"/><path d="M304.27,157.77a48.08,48.08,0,0,1,1.07,8.19,62,62,0,0,1,.1,8.4l.63-.49c-1.75-.69-4.38-1.92-5.76.07a6.08,6.08,0,0,0-.22,5.74c1,1.89,3.34,2,5.22,1.52a7.74,7.74,0,0,0,1.3-.46,4.92,4.92,0,0,0,.81-.45,3.17,3.17,0,0,1,1-.57c.18,0-.21-.05.08,0a2.6,2.6,0,0,1,.25.1,7.48,7.48,0,0,0,1.05.2c.83.11,1.66.15,2.49.26a20,20,0,0,0,7.6-.29,12.88,12.88,0,0,0,6.44-4.28,12.53,12.53,0,0,0,3.37-6.72c.17-1.58-.19-3.72-2.11-3.94a5.58,5.58,0,0,0-3.68,1.47c-1.32,1-2.62,2-4,2.92s-2.61,2-4,2.93S313,174.2,311.45,175l.69.18a10.39,10.39,0,0,1-1.12-3.54c-.37-1.54-.77-3.08-1.16-4.62s-.95-3.09-1.21-4.69c-.13-.78-.16-1.57-.31-2.35a10.84,10.84,0,0,1-.35-2.59.5.5,0,0,0-.5-.5l-2.74.22c-.63.05-.64,1.05,0,1l2.74-.22-.5-.5a9.73,9.73,0,0,0,.29,2.4c.17.82.23,1.64.35,2.47a50.51,50.51,0,0,0,1.27,5c.39,1.57.81,3.14,1.17,4.71a11.16,11.16,0,0,0,1.2,3.7.53.53,0,0,0,.69.18,51.67,51.67,0,0,0,6.68-4.25c1-.8,2.08-1.56,3.15-2.31s1.93-1.51,2.93-2.22c.78-.55,1.94-1.35,3-1.05.71.22.93,1,1,1.66a8.91,8.91,0,0,1-1.95,5.82,12.35,12.35,0,0,1-11.83,5.93c-1.21,0-2.39-.21-3.59-.32a12.65,12.65,0,0,1-2.13-.26,1.9,1.9,0,0,0-1-.17,5.18,5.18,0,0,0-1.24.69,6.47,6.47,0,0,1-4.06,1c-2.26-.32-2.62-2.88-2.2-4.73.24-1,.78-1.88,2-1.85a10,10,0,0,1,3.18,1,.52.52,0,0,0,.64-.48,60.48,60.48,0,0,0-.12-8.62,49.47,49.47,0,0,0-1.09-8.23A.5.5,0,0,0,304.27,157.77Z" transform="translate(-5.2 -30.69)"/><path d="M308,161.08a1.39,1.39,0,0,1-.55,2.49,1.17,1.17,0,0,1-1-.07,8.43,8.43,0,0,0,.6-.6,4.16,4.16,0,0,0,.75-1c.11-.13,0-.49.2-.82Z" transform="translate(-5.2 -30.69)"/><path d="M309.2,166c1.33,1.32-.68,3.18-2.09,2.35,1.08-.82,1.74-1.07,2.09-2.35Z" transform="translate(-5.2 -30.69)"/><path d="M310.37,170.57c.92,1.48-1.14,2.92-2.44,2.13,1.15-.88,1.67-.85,2.44-2.13Z" transform="translate(-5.2 -30.69)"/><path class="cls-17" d="M292.44,146.66a8.39,8.39,0,0,0,2.55,4.88c2,1.55,3.66,1.11,5.88,1.77-1,.78-2.89,2.67-2,4.11,1.33,1.88,4.22.55,5-.89-.55,3.55,4.22,4.11,4,.22.22,2.11,3.77,2.89,4.88,1.33,1.33-1.88-.44-4.1-2.11-4.88,2.66-.55,5.77-4,5.22-6.88" transform="translate(-5.2 -30.69)"/><path d="M292.44,146.66c.82,2.68,2.8,5,5.65,5.38a22.41,22.41,0,0,1,3,.55.75.75,0,0,1,.5.94c-.42.71-1.45,1.26-1.88,2.16-.32.58-.5,1.07,0,1.54.93.91,3-.06,3.49-1.06a.76.76,0,0,1,1.41.46,1.61,1.61,0,0,0,1.2,2.05c1,0,1.35-1,1.3-1.94a.75.75,0,0,1,1.49-.07c0,.61.7,1.17,1.49,1.38,1.8.54,2.94-.88,2.07-2.44a4.27,4.27,0,0,0-1.84-1.73.75.75,0,0,1,.16-1.41c2.58-.85,5.39-3.18,5.37-6.15.83,3.27-1.83,6.9-5.06,7.62l.16-1.42a5,5,0,0,1,3,4.21,2.91,2.91,0,0,1-2.41,2.86,4.27,4.27,0,0,1-3.48-1,2.84,2.84,0,0,1-.95-1.8l1.5-.12c.18,1.65-1,3.67-2.92,3.47s-2.9-2.14-2.57-3.77l1.4.48c-1.17,1.93-4,3-5.83,1.45-2-1.78.14-4.45,1.72-5.62l.24,1.31a21.11,21.11,0,0,0-2.81-.51c-3.45-.26-5.34-3.72-5.4-6.86Z" transform="translate(-5.2 -30.69)"/><path class="cls-24" d="M345.79,111.18a4.29,4.29,0,0,0-.33.91c-.54,2.11,1.33,6.31,3.8,6.22,1.59-.06,1.73-1.6,1.58-3C350.62,113.19,347.24,108.44,345.79,111.18Z" transform="translate(-5.2 -30.69)"/><path class="cls-24" d="M344.23,122.61c-.22,2,.66,4.9,2.37,4.89,1.44,0,1.17-2.15.95-3.28-.15-.82-.58-2.86-1.5-3.28C345,120.43,344.36,121.33,344.23,122.61Z" transform="translate(-5.2 -30.69)"/><path class="cls-19" d="M303.86,101.26c-2.66-.22-5.76,1.22-8.09,2.33-3.22,1.55-4.89,4.43-5.66,7.76-1-1.22-1.33-3-2.44-4.32-.89-1-2.78-2.56-4.22-2.11-4,1.22-.55,9,.89,10.87-1.11-.44-5.55-2.77-6.77-3.11-2.33-.88-4.88-1.22-5.66,1.89-.66,2.44,2.22,5.55,3.66,7.32a27,27,0,0,0,6.33,6,33.74,33.74,0,0,0-9.21-2.55c-2.44-.22-6.66,2.22-5.66,5.22.93,2.68,3.51,4.39,5.92,5.61,2.68,1.37,5.2,3.14,8.23,3.67-.73.41-2-.2-2.34.57-.28.62.52,1.17,1.17,1.37a33,33,0,0,0,13.53,1.3c6.87-.75,14.22-3.26,19.24-8.15,3.3-3.22,4.73-7.65,5.17-12.14.23-2.77.67-6.1-.66-8.65" transform="translate(-5.2 -30.69)"/><path class="cls-17" d="M321,111.75c.44,2.56-.41,6.21-2.67,7.22" transform="translate(-5.2 -30.69)"/><path d="M321,111.75c1.13,2.45.26,6.55-2.67,7.22,2-1.91,2.28-4.57,2.67-7.22Z" transform="translate(-5.2 -30.69)"/><path class="cls-17" d="M304,98.77c-2.66-.22-5.77,1.22-8.1,2.33-3.21,1.56-4.88,4.44-5.66,7.77-1-1.22-1.33-3-2.44-4.33-.88-1-2.77-2.55-4.21-2.11-4,1.22-.56,9,.89,10.88-1.11-.45-5.55-2.78-6.77-3.11-2.33-.89-4.88-1.22-5.66,1.89-.67,2.44,2.22,5.54,3.66,7.32a26.93,26.93,0,0,0,6.32,6,33.32,33.32,0,0,0-9.2-2.55c-2.44-.22-6.66,2.22-5.66,5.21.92,2.68,3.51,4.39,5.92,5.62,2.68,1.37,5.2,3.14,8.23,3.67-.74.41-2-.2-2.34.56s.51,1.17,1.16,1.38a33,33,0,0,0,13.54,1.3c6.86-.76,14.21-3.26,19.24-8.16,3.3-3.21,4.72-7.64,5.17-12.13.22-2.78.67-6.11-.66-8.66" transform="translate(-5.2 -30.69)"/><path d="M304,98.77c-3.08,0-5.92,1.57-8.56,3a10.56,10.56,0,0,0-4.55,7.27.66.66,0,0,1-1.16.27c-1.36-1.67-1.68-3.53-2.84-4.61-.82-.78-1.87-1.64-3-1.55-3.32,1.08-.17,7.83,1.14,9.72a.74.74,0,0,1-.16,1.08c-.76.42-1.74-.52-2.45-.74l-3.34-1.6c-2.29-1-6-2.59-6.41,1.09.05,2.35,2,4.2,3.37,6a26.78,26.78,0,0,0,6.4,6.12.75.75,0,0,1-.73,1.3,34.11,34.11,0,0,0-8.4-2.42c-2.22-.45-5.79,1.37-5.55,3.79.71,2.75,3.3,4.34,5.71,5.6,2.7,1.39,5.17,3.07,7.94,3.55a.75.75,0,0,1,.23,1.4c-.73.41-1.49.16-2.05.26,0,0,0,0,0,0a.2.2,0,0,0,0-.09c0-.07.07.11.26.22,8.21,2.95,17.73,1.79,25.57-1.79,4.47-2.14,8.62-5.36,10.59-10a25,25,0,0,0,1.8-7.35c.28-2.52.62-5.17-.46-7.56,1.27,2.29,1.17,5.07,1,7.61a26.19,26.19,0,0,1-1.35,7.7c-3.53,10.14-16.43,14.13-26.21,14.58a33.81,33.81,0,0,1-10.72-1.44c-.82-.28-1.69-.55-2-1.68a1.41,1.41,0,0,1,1-1.58c.71-.17,1.28,0,1.75-.14l.23,1.4c-3.19-.57-5.78-2.38-8.36-3.7-3.22-1.55-8.34-5.32-5.88-9.36a7,7,0,0,1,6.6-2.85,35.49,35.49,0,0,1,8.77,2.53l-.73,1.3a29.15,29.15,0,0,1-6.68-6.39c-1.61-2-3.75-4.21-3.69-7,.42-3.88,3.7-4.39,6.76-3.08,2,.68,4.64,2.18,6.77,3.11l-.87,1.15c-1.81-2.8-4.42-8.39-1.81-11.28,1.83-1.83,4.42-.35,5.88,1.12,1.48,1.29,1.8,3.4,2.81,4.85l-1.16.27a11.59,11.59,0,0,1,5.49-7.59c2.81-1.28,5.78-2.63,8.91-2.36Z" transform="translate(-5.2 -30.69)"/><path class="cls-24" d="M284.24,104c-2.48,1,.52,9,3.69,7.11C290.71,109.4,287.25,104,284.24,104Z" transform="translate(-5.2 -30.69)"/><path class="cls-24" d="M274.3,111.4c-.09,3.23,2.81,6.35,5.87,7.07,1.92.45,4.09-.09,3.32-2.45C282.93,114.29,276,109.06,274.3,111.4Z" transform="translate(-5.2 -30.69)"/><path class="cls-24" d="M270.33,125.19c-.64.81.07,2,1.05,2.94,1.92,1.9,6.08,4.43,8.91,3.27,3.75-1.54-.46-5.45-2.79-6-1.58-.38-4.36-1.36-5.95-.9A2.22,2.22,0,0,0,270.33,125.19Z" transform="translate(-5.2 -30.69)"/><path class="cls-25" d="M336.88,47c.39-2.63.56-4.89-.54-7.44-1.44-3.17-4.85-5.2-6.36-.77-1.32-2.17-1.73-4.67-4.33-5.65-2.3-1-4.59.65-5.52,2.66-.85-3.22-6.1-4.4-8.61-2.51-2.62,2.08-3.12,6.19-.21,8.28-1-1-4.2.68-4.94,1.42a8.37,8.37,0,0,0-2.46,5.25c-.23,1.76-.07,3.55,2,3.8a6.06,6.06,0,0,0,4.65-1.54c-1.61,1.76-2.78,3-3.35,5.39-.46,2.14-.95,4.86.59,6.76,2.27,2.73,7.33-.36,9.33-2.08Z" transform="translate(-5.2 -30.69)"/><g class="cls-26"><path class="cls-27" d="M312.94,62.73a1.53,1.53,0,0,1-1.38-.52,3.26,3.26,0,0,1-.36-1.27,18.26,18.26,0,0,1,4.46-15.22,11.84,11.84,0,0,1,6.55-3.41c2-.34,5.46-.5,7.25.62a6.61,6.61,0,0,1,2.2,3c1.34,2.8,1.44,4.45-.72,6.75a31.07,31.07,0,0,1-6.8,5.78C322.57,59.37,316,62.71,312.94,62.73Z" transform="translate(-5.2 -30.69)"/><path class="cls-27" d="M301.49,48.24c.47,1.15,4,2.32,5.32,2.26A8,8,0,0,0,311.47,49a6,6,0,0,1-3.38,3.38C304.87,54,298.56,55,301.49,48.24Z" transform="translate(-5.2 -30.69)"/><path class="cls-27" d="M329,37.13a15.75,15.75,0,0,1,1.47,4.32,14,14,0,0,1,.61-3.4,15.51,15.51,0,0,1,2.57-4.23C331.91,33.31,329.92,34.21,329,37.13Z" transform="translate(-5.2 -30.69)"/><path class="cls-27" d="M318.92,33.54c1.51,1.09.79,3.5,2.11,4.61,0-3.16,2.81-5.68,5.32-7.15C324.28,30.19,321.6,31,318.92,33.54Z" transform="translate(-5.2 -30.69)"/><path class="cls-27" d="M310,33.47c0,3.57.15,6.58,2.86,8.85-2.73-.34-3.77-2.87-4.46-3.66C306.19,36.09,307,33.49,310,33.47Z" transform="translate(-5.2 -30.69)"/></g><path d="M336.88,47c.28-2.68.22-5.62-1.29-7.92s-3.77-3.4-4.89,0a.76.76,0,0,1-1,.47.78.78,0,0,1-.37-.32c-1.17-1.91-1.63-4.34-3.74-5.25-1.89-1-4,.41-4.78,2.18a.75.75,0,0,1-1,.36.74.74,0,0,1-.41-.49,4.09,4.09,0,0,0-3-2.6,5.41,5.41,0,0,0-4.18.37c-2.36,1.52-3,5.52-.43,7.2l-1,1.16a2.78,2.78,0,0,0-1.77.22,6.41,6.41,0,0,0-4.27,5.35c-.2,1.29-.56,3.24,1,3.57A5.32,5.32,0,0,0,310.06,50a.75.75,0,0,1,1.06.07.76.76,0,0,1,0,1,24.89,24.89,0,0,0-1.89,2.2,10.26,10.26,0,0,0-1.44,7.89c1.52,4,6.64.68,8.85-1.1,1.75-1.24,5.68-3.89,7.39-5.07L336.88,47Zm0,0c-1.79,1.38-10.23,7.81-11.83,9s-5.77,3.94-7.5,5.15c-4.25,3.75-12,5.86-11.51-2.85A12.15,12.15,0,0,1,310,50l1,1.07c-1.79,1.54-5.06,2.68-7.12.82-2-2.44-.22-7.66,2-9.54a8.57,8.57,0,0,1,4-1.79,2.29,2.29,0,0,1,1.86.47.75.75,0,0,1-.91,1.18c-3.41-2.27-2.83-7.59.46-9.71,3.27-1.87,8.3-.64,9.48,3.11l-1.4-.13c1.07-2.47,4.19-4.24,6.76-2.91,2.49,1,3.22,3.85,4.42,5.83l-1.37.15c.82-2.87,3.57-4,5.79-1.73,2.66,2.68,2.66,6.77,1.83,10.18Z" transform="translate(-5.2 -30.69)"/><path class="cls-17" d="M332.47,45.08c-4.74-1.19-9.78-1.63-13.64,2-6.24,5.79-7,15.93-9.7,23.56a36.22,36.22,0,0,1-3.26,7.47,11.63,11.63,0,0,1-2.41,2.82c-.26.22-3.48,2.44-3.42,2.53,1.14,1.75,4.19,3.46,6.71,2.76a4.56,4.56,0,0,0,2.21,4.9c1.23.78,4.14,1.49,5.4.4-.45,3.52,6.73,6.52,8.74,3.41-.85,2.21,2.67,4,4.22,4.36,2.53.58,4,.49,5-2,.89,4,8.57,4.29,9-.23,1.53,2.09,5.48,2.08,7,.32-1.8.26-2.68-5.23-2.88-6.53-.58-2.81-1.5-14.53-1.58-17.5,0-7.75,2.43-17.34-3.2-23.82C338.5,47,335.54,45.85,332.47,45.08Z" transform="translate(-5.2 -30.69)"/><path d="M332.47,45.08C311.81,39.17,314,66.38,306.7,78.16c-1.3,2.53-3.88,4.1-6.08,5.73a.75.75,0,0,0,.06-.87,6,6,0,0,0,5.87,2.44.76.76,0,0,1,.95.81,3.85,3.85,0,0,0,1.84,4.16c1.14.7,3.44,1.27,4.53.48a.76.76,0,0,1,1.24.67c0,2.44,3.3,3.94,5.46,3.84a2.34,2.34,0,0,0,1.9-.94.76.76,0,0,1,1-.23c.73.48-.06,1.23.34,1.87C325,98,328,99,330,98.72c.75-.14,1.24-.83,1.6-1.75a.74.74,0,0,1,1.43.11c.67,3.16,7.18,3.54,7.53-.15a.74.74,0,0,1,.82-.66.75.75,0,0,1,.53.3c1.17,1.63,4.5,1.73,5.81.27l.68,1.23c-4.53.62-4.67-18.28-5.16-21.82-.91-11.57,5-27.59-10.78-31.17Zm0,0c8.52,1.7,12.44,8,12.63,16.33.1,3.56-.44,7.56-.49,11.11a159.82,159.82,0,0,0,1.57,18.29,18.2,18.2,0,0,0,1.4,5.09c.17.29.38.63.61.69l.69,1a.21.21,0,0,1,0,.26,4.45,4.45,0,0,1-2,1.25,5.68,5.68,0,0,1-6.19-1.61l1.35-.37c-.35,3.91-5.43,4.93-8.35,3.12a4.35,4.35,0,0,1-2.13-2.81l1.43.11c-.84,2.49-3,3.2-5.37,2.57s-6.22-2.43-5.24-5.46l1.33.67a3.83,3.83,0,0,1-3.06,1.63c-3.11.1-7.22-2-7.05-5.54l1.23.67c-1.92,1.36-4.38.68-6.3-.34A5.42,5.42,0,0,1,306,86.09l.94.81a7.41,7.41,0,0,1-7.51-3,.84.84,0,0,1,.12-1.05c.63-.54,1.27-.95,1.9-1.42,4.06-2.4,5.52-7,7-11.23,1.7-5,2.61-10.36,4.52-15.38,3.8-9.2,9.76-12.5,19.47-9.71Z" transform="translate(-5.2 -30.69)"/><path class="cls-25" d="M334.36,37.22c1.68,1.31,3.33,5.14,3.38,7.12a14.54,14.54,0,0,1-.41,5.57c-.5,1.41-1.6,3.83-2.91,4.66a16.18,16.18,0,0,0-1.95-7.45c-.7-1.31-2-4-3.57-4.47" transform="translate(-5.2 -30.69)"/><path d="M334.36,37.22c5.17,4.08,5.67,13.67.45,18a.72.72,0,0,1-1.12-.61,13.38,13.38,0,0,0-.3-3.21A26.43,26.43,0,0,0,331,45.15a5.5,5.5,0,0,0-2.12-2.5,5.08,5.08,0,0,1,2.64,2.18c2,2.85,3.65,6.17,3.61,9.75L334,54c4.34-4.21,4.19-12.2.33-16.73Z" transform="translate(-5.2 -30.69)"/><path class="cls-17" d="M318.29,57.27a6.12,6.12,0,0,1,4.11-3.93c2.89-.84,6.33,1.6,6.6,4.25" transform="translate(-5.2 -30.69)"/><path d="M318.29,57.27c0-2,1.7-3.69,3.47-4.46a5.43,5.43,0,0,1,5.77,1.25A4.31,4.31,0,0,1,329,57.59a6.14,6.14,0,0,0-5.22-3.65,6.61,6.61,0,0,0-5.49,3.33Z" transform="translate(-5.2 -30.69)"/><path class="cls-17" d="M335.67,59.93c.91-1.65,2.53-3.46,4.67-3s3.21,2.49,3.12,4.52" transform="translate(-5.2 -30.69)"/><path d="M335.67,59.93c.71-3.86,5.51-5.46,7.61-1.69a4.11,4.11,0,0,1,.18,3.18c-1.19-4.69-4.78-4.88-7.79-1.49Z" transform="translate(-5.2 -30.69)"/><path class="cls-28" d="M324.77,67.1a4.74,4.74,0,0,1-1.68.65,4.09,4.09,0,0,1-3.6-1,4.33,4.33,0,0,1,3.18-7.63,4.19,4.19,0,0,1,4.26,3.59A4.38,4.38,0,0,1,324.77,67.1Z" transform="translate(-5.2 -30.69)"/><path d="M318.45,65.38a3.83,3.83,0,0,1-.61-4.17,5,5,0,0,1,8.27-1.93,3.7,3.7,0,0,1,.94,3.06,4.18,4.18,0,0,0-1.33-2,4,4,0,0,0-6.94,1.23,14.44,14.44,0,0,0-.33,3.83Z" transform="translate(-5.2 -30.69)"/><path d="M320.78,64.74c-.07,0-.44.19-.52.13a3,3,0,0,1-.54-3.83A3.42,3.42,0,0,1,322,60a2.46,2.46,0,0,1,2.57,3.53A2.59,2.59,0,0,1,320.78,64.74Z" transform="translate(-5.2 -30.69)"/><path class="cls-17" d="M314.66,62.88a5.68,5.68,0,0,1,3.69-.17,6.59,6.59,0,0,1,4.43,6.69" transform="translate(-5.2 -30.69)"/><path d="M314.66,62.88c3.93-3.13,9.91,2.12,8.12,6.52a8.51,8.51,0,0,0-1-2.8,7.44,7.44,0,0,0-7.14-3.72Z" transform="translate(-5.2 -30.69)"/><path class="cls-28" d="M339.61,67.36a4.18,4.18,0,0,1-1.56.65c-1.3.23-1.61,2.79-2.51,1.88a4.39,4.39,0,0,1,3-7.64,3.86,3.86,0,0,1,3.92,3.56C342.86,69.7,341,66.42,339.61,67.36Z" transform="translate(-5.2 -30.69)"/><path d="M334.58,68.57A4.82,4.82,0,0,1,335.1,63c1.41-1.61,3.94-1.56,5.69-.59a3,3,0,0,1,1.66,3.4,4.47,4.47,0,0,0-1-1.45,4,4,0,0,0-4.3-1.5c-2.46.69-2.13,3.67-2.56,5.71Z" transform="translate(-5.2 -30.69)"/><path d="M336.53,68.28l-.21-.15a2.77,2.77,0,0,1,1.59-4.93c1.91-.11,3.07,1.51,2.36,3.52A2.73,2.73,0,0,1,336.53,68.28Z" transform="translate(-5.2 -30.69)"/><path class="cls-17" d="M342.72,68c-1.72-.8-5.66-1.31-6.94,2.51" transform="translate(-5.2 -30.69)"/><path d="M342.72,68c-2.7-.09-5.18.24-6.94,2.51-.26-3.62,4.71-4.95,6.94-2.51Z" transform="translate(-5.2 -30.69)"/><path class="cls-19" d="M319.19,68.6c-.5-.23-.69,2-.66,2.17a5.41,5.41,0,0,0,1.27,2.54c.85,1.08,3.15,2.64,3,4.18-.07.7-.69,1.2-1.22,1.67a11.85,11.85,0,0,0-2.71,3.46,5.26,5.26,0,0,0-.73,2.69,4.64,4.64,0,0,0,.81,2.22c1.33,2,4,3.23,6.25,2.38a1.11,1.11,0,0,1,.93-.1c.86.52,1.24,1.63,2.37,1.67a3.54,3.54,0,0,0,2.78-2.11,7.86,7.86,0,0,0,.58-3,27.4,27.4,0,0,0-.33-5.58,3.6,3.6,0,0,0,3.22-2c.22-.49.4-1.1.91-1.28a2.65,2.65,0,0,1,.69-.07,2.62,2.62,0,0,0,2-1.55,7.82,7.82,0,0,0,.52-2.6h-.13a2.5,2.5,0,0,0-.54-.13c-2.8-.31-5.61-.68-8.42-.94-1.81-.16-3.14,0-4.82-.84C323.05,70.42,321.13,69.49,319.19,68.6Z" transform="translate(-5.2 -30.69)"/><path class="cls-25" d="M326.49,74.73a6,6,0,0,1-1.21,3.07c-1.11,1.63-2.34,3.18-3.51,4.74-1.53,2-2.08,4.06.51,5.51a4.28,4.28,0,0,0,5.06-.75c-.15,2.16,1.86,2.57,3.62,2.7,2.1.15,2.58-1.85,2.58-3.63a6.22,6.22,0,0,0-.93-2.7,20.69,20.69,0,0,1-1-2.77,6.09,6.09,0,0,1-.44-3.85Z" transform="translate(-5.2 -30.69)"/><g class="cls-29"><path class="cls-27" d="M328,76.18c.08,1.2-1.29,1.88-2,2.66a13.15,13.15,0,0,0-2.64,4.57c-.46,1.25-.8,2.61.26,3.68,1.23,1.24,2.32.46,3.56-.22,1.7,3.6,5.19-.08,7.06-.71.82,1.86-.47,4.15-1.89,5.33-2.93,2.44-7.11,2.27-10.47.83s-4.31-4.19-4.2-7.65c.07-2.44,1.53-4.28,3.05-6.11S323.54,74.91,328,76.18Z" transform="translate(-5.2 -30.69)"/></g><path d="M326.49,74.73c.17,2.27-1.37,4.36-2.57,6.17-.68,1-1.68,2.14-2.25,3.16a2.18,2.18,0,0,0,1.1,3.39,3.57,3.57,0,0,0,4.08-.72.75.75,0,0,1,1.24.59,1.33,1.33,0,0,0,.69,1.42c.86.39,2.93,1,3.55-.11a4.38,4.38,0,0,0,.45-2c.08-1.13-.68-2.14-1.12-3.23-.58-2.11-1.93-4.27-1.13-6.5l.36.78c-1.35-.92-2.94-2.09-4.4-2.92Zm0,0c1.58.59,3.32,1.09,5,1.71.34.11.4.47.36.78-.3,1.91.64,3.8,1.2,5.59.51,1.18,1.32,2.36,1.23,3.81s-.41,3.28-1.94,3.91a3.3,3.3,0,0,1-1.58.2c-1.32-.1-3.19-.42-3.88-1.88a3.2,3.2,0,0,1-.28-1.61l1.23.63c-3.36,3.35-10.13.28-7.49-4.51a21,21,0,0,1,1.58-2.28L322.7,80c1.22-1.81,3.35-3.05,3.79-5.28Z" transform="translate(-5.2 -30.69)"/><path d="M325.12,88.61c.55-.76,1.33-1,1.8-1.81.48-.61.81-1.41,1.42-2.19a3.27,3.27,0,0,1-3.22,4Z" transform="translate(-5.2 -30.69)"/><path class="cls-22" d="M325.05,75.72A10.47,10.47,0,0,1,328,78c1.49,1.48,4.22,1.54,4.86-.86.53.77,2.81-.64,3.49-1a6.33,6.33,0,0,0,3-2.74c1.64-3.64-4-1-5.15-2.62-.68-.91-.68-2.21-1.07-3.24s-1.17-2.45-2.41-2.12a3.48,3.48,0,0,0-1.8,1.32,10.13,10.13,0,0,0-1.09,2,1.21,1.21,0,0,1-.31.48,1,1,0,0,1-.37.21c-2.09.64-6.15-3.53-7.73-1.78a2.57,2.57,0,0,0-.51,1.69,5.37,5.37,0,0,0,1.67,4A17.38,17.38,0,0,0,325.05,75.72Z" transform="translate(-5.2 -30.69)"/><path class="cls-30" d="M330.5,66.74c-1.6,1.05-1.34,4.46-.66,5.87.43.9,1.13,1.74,2.23,1.18,1.47-.76.84-3.7.75-5a3.86,3.86,0,0,0-.39-1.61,1.33,1.33,0,0,0-1.4-.68A1.6,1.6,0,0,0,330.5,66.74Z" transform="translate(-5.2 -30.69)"/><g class="cls-31"><path class="cls-21" d="M334,70.06c0,1.22.38,2.26.39,3.53,0,1,.16,1.11-.69,2-.49.53-1.31,1-1,1.89.54,1.77,3.59.27,4.58-.33a5.36,5.36,0,0,0,2.74-4.6C340.13,69.42,336.28,71.64,334,70.06Z" transform="translate(-5.2 -30.69)"/></g><path d="M324.8,76.16a10.66,10.66,0,0,1,2.81,2.09,4.29,4.29,0,0,0,2.12,1.17,3,3,0,0,0,3.65-2.18l-.84.22c.92,1.08,3-.32,3.88-.8,1.61-.86,3.37-2.08,3.7-4,.48-2.84-3.81-1.37-5.2-2-.74-.32-.84-1.51-1-2.2a6.59,6.59,0,0,0-1.08-2.59,2.17,2.17,0,0,0-2.09-1,4.06,4.06,0,0,0-2.49,1.92,12.67,12.67,0,0,0-.77,1.46c-.2.45-.39.72-.91.69a5.44,5.44,0,0,1-2.08-.72c-1.25-.61-2.7-1.63-4.16-1.55-2.31.13-2.12,3.32-1.54,4.87,1,2.66,3.62,3.51,6,4.61.58.26,1.09-.6.51-.87-1.84-.84-4.12-1.48-5.21-3.34-.52-.88-1.48-4.26.39-4.27,1.25,0,2.55.95,3.63,1.48s2.35,1.16,3.43.61c.81-.42,1-1.57,1.46-2.29s1.37-1.88,2.31-1.6c.69.21,1.11,1.15,1.34,1.76.34.91.39,1.9.79,2.79A2.45,2.45,0,0,0,336,71.82c.54,0,1.08,0,1.62,0a3.3,3.3,0,0,1,1.29.11c.37.17.3.48.19.84a4.53,4.53,0,0,1-1.89,2.32,21.11,21.11,0,0,1-2.07,1.17c-.33.17-1.56.88-1.86.52a.5.5,0,0,0-.83.22,2.13,2.13,0,0,1-3.09,1.28,7.49,7.49,0,0,1-1.81-1.47,10,10,0,0,0-2.21-1.49C324.73,75,324.22,75.88,324.8,76.16Z" transform="translate(-5.2 -30.69)"/><path d="M321,70a5.87,5.87,0,0,0,4.48,2.13,7.34,7.34,0,0,1,4.07,1.44,4.41,4.41,0,0,1,1.4,1.72c.06.15.13.25.11.23s-.25-.06-.12,0c1-.26,1.79-1.12,2.8-1.55.59-.23,1.31,0,1.82,0a1.94,1.94,0,0,0,1.68-1,2,2,0,0,1-1.58,1.7,7.79,7.79,0,0,1-1.17.1,1.2,1.2,0,0,0-.69.38A6.44,6.44,0,0,1,331,76.88c-.91.11-1.33-.85-1.58-1.41l0,.06c-1.38-1.74-3.51-2-5.56-2.61A4.71,4.71,0,0,1,321,70Z" transform="translate(-5.2 -30.69)"/><path class="cls-32" d="M338.21,69.26c.81-.67,4.86-1.78,4.22.56S336.56,70.86,338.21,69.26Z" transform="translate(-5.2 -30.69)"/><path class="cls-32" d="M315.33,63.54c1.93-.06,5.13,2.39,2,3.53a3.06,3.06,0,0,1-2.95-.49A1.91,1.91,0,0,1,315.33,63.54Z" transform="translate(-5.2 -30.69)"/></g></g></svg>