<?xml version="1.0" encoding="utf-8"?>
<!-- Generator: Adobe Illustrator 26.0.1, SVG Export Plug-In . SVG Version: 6.00 Build 0)  -->
<svg version="1.1" id="Layer_1" xmlns="http://www.w3.org/2000/svg" xmlns:xlink="http://www.w3.org/1999/xlink" x="0px" y="0px"
	 viewBox="0 0 1984.5 2397.9" style="enable-background:new 0 0 1984.5 2397.9;" xml:space="preserve">
<style type="text/css">
	.st0{fill:#050403;}
	.st1{fill:#F1641F;}
	.st2{fill:#FFFFFF;}
	.st3{fill:#CBC6C1;}
	.st4{fill:#FFF089;}
	.st5{fill:#F8C53A;}
</style>
<g id="Layer_2_00000178182056514638404250000013920989172189787525_">
	<g id="Layer_1-2">
		<rect x="1405.7" class="st0" width="82.7" height="82.7"/>
		<rect x="1323" class="st0" width="82.7" height="82.7"/>
		<rect x="1653.7" y="82.7" class="st0" width="82.7" height="82.7"/>
		<rect x="1571.1" y="82.7" class="st0" width="82.7" height="82.7"/>
		<rect x="1405.7" y="82.7" class="st0" width="82.7" height="82.7"/>
		<rect x="1323" y="82.7" class="st1" width="82.7" height="82.7"/>
		<rect x="1240.3" y="82.7" class="st0" width="82.7" height="82.7"/>
		<rect x="1653.7" y="165.4" class="st0" width="82.7" height="82.7"/>
		<rect x="1571.1" y="165.4" class="st1" width="82.7" height="82.7"/>
		<rect x="1488.4" y="165.4" class="st0" width="82.7" height="82.7"/>
		<rect x="1405.7" y="165.4" class="st1" width="82.7" height="82.7"/>
		<rect x="1323" y="165.4" class="st1" width="82.7" height="82.7"/>
		<rect x="1240.3" y="165.4" class="st1" width="82.7" height="82.7"/>
		<rect x="1157.6" y="165.4" class="st0" width="82.7" height="82.7"/>
		<rect x="1736.4" y="248.1" class="st0" width="82.7" height="82.7"/>
		<rect x="1653.7" y="248.1" class="st1" width="82.7" height="82.7"/>
		<rect x="1571.1" y="248.1" class="st1" width="82.7" height="82.7"/>
		<rect x="1488.4" y="248.1" class="st1" width="82.7" height="82.7"/>
		<rect x="1405.7" y="248.1" class="st1" width="82.7" height="82.7"/>
		<rect x="1405.7" y="248.1" class="st2" width="0" height="82.7"/>
		<rect x="1157.6" y="248.1" class="st2" width="0" height="82.7"/>
		<rect x="1074.9" y="248.1" class="st0" width="82.7" height="82.7"/>
		<rect x="1736.4" y="330.8" class="st0" width="82.7" height="82.7"/>
		<rect x="1653.7" y="330.8" class="st1" width="82.7" height="82.7"/>
		<rect x="1571.1" y="330.8" class="st1" width="82.7" height="82.7"/>
		<rect x="1405.7" y="413.4" class="st2" width="82.7" height="0"/>
		<rect x="1405.7" y="413.4" class="st2" width="0" height="0"/>
		<rect x="1240.3" y="413.4" class="st2" width="82.7" height="0"/>
		<rect x="1157.6" y="413.4" class="st2" width="0" height="0"/>
		<rect x="1157.6" y="413.4" class="st2" width="0" height="0"/>
		<rect x="992.2" y="330.8" class="st0" width="82.7" height="82.7"/>
		<rect x="1819.1" y="413.4" class="st0" width="82.7" height="82.7"/>
		<rect x="1736.4" y="413.4" class="st2" width="82.7" height="0"/>
		<rect x="1653.7" y="413.4" class="st2" width="82.7" height="0"/>
		<rect x="1571.1" y="413.4" class="st2" width="82.7" height="0"/>
		<rect x="1405.7" y="413.4" class="st2" width="82.7" height="0"/>
		<rect x="1405.7" y="413.4" class="st2" width="0" height="0"/>
		<rect x="1240.3" y="413.4" class="st2" width="82.7" height="0"/>
		<rect x="1157.6" y="413.4" class="st2" width="0" height="82.7"/>
		<rect x="1157.6" y="413.4" class="st2" width="0" height="82.7"/>
		<rect x="992.2" y="413.4" class="st0" width="82.7" height="82.7"/>
		<rect x="413.4" y="413.4" class="st0" width="82.7" height="82.7"/>
		<rect x="330.8" y="413.4" class="st0" width="82.7" height="82.7"/>
		<rect x="165.4" y="413.4" class="st0" width="82.7" height="82.7"/>
		<rect x="82.7" y="413.4" class="st0" width="82.7" height="82.7"/>
		<rect x="1819.1" y="496.1" class="st0" width="82.7" height="82.7"/>
		<rect x="909.5" y="496.1" class="st0" width="82.7" height="82.7"/>
		<rect x="496.1" y="496.1" class="st0" width="82.7" height="82.7"/>
		<rect x="413.4" y="496.1" class="st3" width="82.7" height="82.7"/>
		<rect x="330.8" y="496.1" class="st3" width="82.7" height="82.7"/>
		<rect x="248.1" y="496.1" class="st0" width="82.7" height="82.7"/>
		<rect x="165.4" y="496.1" class="st3" width="82.7" height="82.7"/>
		<rect x="82.7" y="496.1" class="st0" width="82.7" height="82.7"/>
		<rect x="1901.8" y="578.8" class="st0" width="82.7" height="82.7"/>
		<rect x="1901.8" y="578.8" class="st2" width="0" height="82.7"/>
		<rect x="1736.4" y="578.8" class="st0" width="82.7" height="82.7"/>
		<rect x="1653.7" y="661.5" class="st2" width="0" height="0"/>
		<rect x="1571.1" y="661.5" class="st2" width="82.7" height="0"/>
		<rect x="1488.4" y="661.5" class="st2" width="82.7" height="0"/>
		<polygon class="st2" points="1488.4,661.5 1488.4,661.5 1405.7,661.5 1405.7,578.8 1405.7,578.8 1405.7,661.5 		"/>
		<rect x="1405.7" y="578.8" class="st2" width="0" height="82.7"/>
		<rect x="1157.6" y="661.5" class="st2" width="82.7" height="0"/>
		<rect x="1157.6" y="661.5" class="st2" width="0" height="0"/>
		<rect x="909.5" y="578.8" class="st0" width="82.7" height="82.7"/>
		<rect x="826.9" y="578.8" class="st0" width="82.7" height="82.7"/>
		<rect x="744.2" y="578.8" class="st0" width="82.7" height="82.7"/>
		<rect x="661.5" y="578.8" class="st0" width="82.7" height="82.7"/>
		<rect x="578.8" y="578.8" class="st0" width="82.7" height="82.7"/>
		<rect x="496.1" y="578.8" class="st3" width="82.7" height="82.7"/>
		<rect x="413.4" y="578.8" class="st3" width="82.7" height="82.7"/>
		<rect x="330.8" y="578.8" class="st0" width="82.7" height="82.7"/>
		<rect x="248.1" y="578.8" class="st3" width="82.7" height="82.7"/>
		<rect x="165.4" y="578.8" class="st3" width="82.7" height="82.7"/>
		<rect x="82.7" y="578.8" class="st0" width="82.7" height="82.7"/>
		<rect x="1901.8" y="661.5" class="st0" width="82.7" height="82.7"/>
		<rect x="1901.8" y="661.5" class="st2" width="0" height="82.7"/>
		<rect x="1736.4" y="661.5" class="st2" width="82.7" height="0"/>
		<rect x="1653.7" y="661.5" class="st2" width="0" height="0"/>
		<rect x="1571.1" y="661.5" class="st2" width="82.7" height="0"/>
		<rect x="1488.4" y="661.5" class="st2" width="82.7" height="0"/>
		<rect x="1405.7" y="661.5" class="st0" width="82.7" height="82.7"/>
		<rect x="1405.7" y="661.5" class="st2" width="0" height="82.7"/>
		<rect x="1157.6" y="661.5" class="st2" width="82.7" height="0"/>
		<rect x="1157.6" y="661.5" class="st2" width="0" height="0"/>
		<rect x="909.5" y="661.5" class="st0" width="82.7" height="82.7"/>
		<rect x="826.9" y="661.5" class="st3" width="82.7" height="82.7"/>
		<rect x="744.2" y="661.5" class="st3" width="82.7" height="82.7"/>
		<rect x="661.5" y="661.5" class="st3" width="82.7" height="82.7"/>
		<rect x="578.8" y="661.5" class="st3" width="82.7" height="82.7"/>
		<rect x="496.1" y="661.5" class="st3" width="82.7" height="82.7"/>
		<rect x="413.4" y="661.5" class="st3" width="82.7" height="82.7"/>
		<rect x="330.8" y="661.5" class="st3" width="82.7" height="82.7"/>
		<rect x="248.1" y="661.5" class="st3" width="82.7" height="82.7"/>
		<rect x="165.4" y="661.5" class="st0" width="82.7" height="82.7"/>
		<rect x="82.7" y="661.5" class="st0" width="82.7" height="82.7"/>
		<rect y="661.5" class="st0" width="82.7" height="82.7"/>
		<rect x="1901.8" y="744.2" class="st0" width="82.7" height="82.7"/>
		<rect x="1901.8" y="744.2" class="st2" width="0" height="82.7"/>
		<rect x="1653.7" y="744.2" class="st0" width="82.7" height="82.7"/>
		<rect x="1571.1" y="744.2" class="st0" width="82.7" height="82.7"/>
		<rect x="1405.7" y="744.2" class="st2" width="0" height="82.7"/>
		<rect x="1405.7" y="744.2" class="st2" width="0" height="82.7"/>
		<rect x="909.5" y="744.2" class="st0" width="82.7" height="82.7"/>
		<rect x="826.9" y="744.2" class="st3" width="82.7" height="82.7"/>
		<rect x="744.2" y="744.2" class="st3" width="82.7" height="82.7"/>
		<rect x="661.5" y="744.2" class="st3" width="82.7" height="82.7"/>
		<rect x="578.8" y="744.2" class="st3" width="82.7" height="82.7"/>
		<rect x="496.1" y="744.2" class="st3" width="82.7" height="82.7"/>
		<rect x="413.4" y="744.2" class="st3" width="82.7" height="82.7"/>
		<rect x="330.8" y="744.2" class="st3" width="82.7" height="82.7"/>
		<rect x="248.1" y="744.2" class="st0" width="82.7" height="82.7"/>
		<rect x="165.4" y="744.2" class="st3" width="82.7" height="82.7"/>
		<rect x="82.7" y="744.2" class="st3" width="82.7" height="82.7"/>
		<rect y="744.2" class="st0" width="82.7" height="82.7"/>
		<rect x="1901.8" y="826.9" class="st0" width="82.7" height="82.7"/>
		<rect x="1901.8" y="826.9" class="st2" width="0" height="82.7"/>
		<rect x="1736.4" y="826.9" class="st0" width="82.7" height="82.7"/>
		<rect x="1653.7" y="826.9" class="st4" width="82.7" height="82.7"/>
		<rect x="1571.1" y="826.9" class="st4" width="82.7" height="82.7"/>
		<rect x="1488.4" y="826.9" class="st0" width="82.7" height="82.7"/>
		<rect x="1405.7" y="826.9" class="st2" width="0" height="82.7"/>
		<rect x="1405.7" y="826.9" class="st2" width="0" height="82.7"/>
		<rect x="1157.6" y="826.9" class="st2" width="0" height="82.7"/>
		<polygon class="st2" points="1157.6,826.9 1157.6,909.6 1074.9,909.6 1074.9,909.6 1157.6,909.6 1157.6,826.9 		"/>
		<rect x="909.5" y="826.9" class="st2" width="0" height="82.7"/>
		<rect x="826.9" y="826.9" class="st3" width="82.7" height="82.7"/>
		<rect x="744.2" y="826.9" class="st3" width="82.7" height="82.7"/>
		<rect x="661.5" y="826.9" class="st3" width="82.7" height="82.7"/>
		<rect x="578.8" y="826.9" class="st3" width="82.7" height="82.7"/>
		<rect x="496.1" y="826.9" class="st0" width="82.7" height="82.7"/>
		<rect x="413.4" y="826.9" class="st0" width="82.7" height="82.7"/>
		<rect x="330.8" y="826.9" class="st3" width="82.7" height="82.7"/>
		<rect x="248.1" y="826.9" class="st3" width="82.7" height="82.7"/>
		<rect x="165.4" y="826.9" class="st3" width="82.7" height="82.7"/>
		<rect x="82.7" y="826.9" class="st0" width="82.7" height="82.7"/>
		<rect x="1901.8" y="909.6" class="st0" width="82.7" height="82.7"/>
		<rect x="1901.8" y="909.6" class="st2" width="0" height="82.7"/>
		<rect x="1736.4" y="909.6" class="st4" width="82.7" height="82.7"/>
		<rect x="1653.7" y="909.5" class="st4" width="82.7" height="82.7"/>
		<rect x="1571.1" y="909.5" class="st4" width="82.7" height="82.7"/>
		<rect x="1488.4" y="909.6" class="st0" width="82.7" height="82.7"/>
		<rect x="1405.7" y="909.6" class="st2" width="0" height="0"/>
		<rect x="1405.7" y="909.6" class="st2" width="0" height="0"/>
		<rect x="1157.6" y="909.6" class="st2" width="0" height="0"/>
		<rect x="1074.9" y="909.6" class="st2" width="82.7" height="0"/>
		<rect x="909.5" y="909.6" class="st2" width="0" height="82.7"/>
		<rect x="826.9" y="909.6" class="st3" width="82.7" height="82.7"/>
		<rect x="744.2" y="909.5" class="st3" width="82.7" height="82.7"/>
		<rect x="661.5" y="909.6" class="st0" width="82.7" height="82.7"/>
		<rect x="578.8" y="909.6" class="st0" width="82.7" height="82.7"/>
		<rect x="496.1" y="909.6" class="st2" width="82.7" height="0"/>
		<rect x="413.4" y="909.6" class="st3" width="82.7" height="82.7"/>
		<rect x="330.8" y="909.5" class="st0" width="82.7" height="82.7"/>
		<rect x="248.1" y="909.5" class="st0" width="82.7" height="82.7"/>
		<rect x="165.4" y="909.5" class="st0" width="82.7" height="82.7"/>
		<rect x="1901.8" y="992.2" class="st0" width="82.7" height="82.7"/>
		<rect x="1901.8" y="992.2" class="st2" width="0" height="82.7"/>
		<rect x="1736.4" y="992.2" class="st0" width="82.7" height="82.7"/>
		<rect x="1653.7" y="992.2" class="st0" width="82.7" height="82.7"/>
		<rect x="1571.1" y="992.2" class="st1" width="82.7" height="82.7"/>
		<rect x="1488.4" y="992.2" class="st1" width="82.7" height="82.7"/>
		<rect x="1405.7" y="992.2" class="st0" width="82.7" height="82.7"/>
		<rect x="1405.7" y="992.2" class="st2" width="0" height="82.7"/>
		<rect x="909.5" y="992.2" class="st2" width="0" height="82.7"/>
		<rect x="826.9" y="992.2" class="st0" width="82.7" height="82.7"/>
		<rect x="744.2" y="992.2" class="st0" width="82.7" height="82.7"/>
		<rect x="413.4" y="992.2" class="st2" width="0" height="82.7"/>
		<rect x="330.8" y="992.2" class="st3" width="82.7" height="82.7"/>
		<rect x="248.1" y="992.2" class="st0" width="82.7" height="82.7"/>
		<rect x="1901.8" y="1074.9" class="st0" width="82.7" height="82.7"/>
		<rect x="1901.8" y="1074.9" class="st2" width="0" height="82.7"/>
		<rect x="1736.4" y="1074.9" class="st1" width="82.7" height="82.7"/>
		<rect x="1653.7" y="1074.9" class="st1" width="82.7" height="82.7"/>
		<rect x="1571.1" y="1074.9" class="st0" width="82.7" height="82.7"/>
		<rect x="1488.4" y="1074.9" class="st1" width="82.7" height="82.7"/>
		<rect x="1405.7" y="1074.9" class="st0" width="82.7" height="82.7"/>
		<rect x="1405.7" y="1074.9" class="st2" width="0" height="82.7"/>
		<rect x="1157.6" y="1157.6" class="st2" width="0" height="0"/>
		<rect x="1074.9" y="1157.6" class="st2" width="82.7" height="0"/>
		<rect x="909.5" y="1157.6" class="st2" width="0" height="0"/>
		<rect x="826.9" y="1157.6" class="st2" width="82.7" height="0"/>
		<polygon class="st2" points="744.2,1157.6 744.2,1157.6 661.5,1157.6 661.5,1074.9 661.5,1074.9 661.5,1157.6 		"/>
		<polygon class="st2" points="661.5,1074.9 661.5,1157.6 578.8,1157.6 578.8,1157.6 661.5,1157.6 661.5,1074.9 		"/>
		<rect x="496.1" y="1157.6" class="st2" width="82.7" height="0"/>
		<rect x="413.4" y="1157.6" class="st2" width="0" height="0"/>
		<rect x="330.8" y="1157.6" class="st2" width="82.7" height="0"/>
		<rect x="248.1" y="1074.9" class="st0" width="82.7" height="82.7"/>
		<rect x="1901.8" y="1157.6" class="st0" width="82.7" height="82.7"/>
		<rect x="1901.8" y="1157.6" class="st2" width="0" height="82.7"/>
		<rect x="1736.4" y="1157.6" class="st1" width="82.7" height="82.7"/>
		<rect x="1653.7" y="1157.6" class="st0" width="82.7" height="82.7"/>
		<rect x="1571.1" y="1157.6" class="st0" width="82.7" height="82.7"/>
		<rect x="1488.4" y="1157.6" class="st0" width="82.7" height="82.7"/>
		<path class="st2" d="M1819.1,578.8v82.7h-82.7v-82.7H1819.1V413.4h-248.1v-82.7h-165.4v-82.7h-248v82.7h-82.7v165.4h-82.7v330.8
			h-82.7v248.1H744.2v-82.7H578.8v-82.7h-82.7v82.7h-82.7v82.7h-82.7v82.7h82.7v0h-82.7V1323h82.7v165.4h82.7v-82.7h165.4v82.7
			h165.4v82.7H661.5v-82.7H496.1v82.7h82.7v82.7h248.1v0H661.5v82.7h413.4v-82.7h82.7v82.7h496.1v-82.7h82.7v-82.7h82.7v-165.4h82.7
			V578.8H1819.1z M1653.7,661.5h-165.4v82.7h-82.7v165.4h0V578.8h0v82.7L1653.7,661.5L1653.7,661.5z M1074.9,909.6h82.7v-82.7h0
			v82.7L1074.9,909.6L1074.9,909.6z M1157.6,661.5h82.7v0L1157.6,661.5L1157.6,661.5z M1240.3,413.4h82.7v0L1240.3,413.4
			L1240.3,413.4z M1157.6,1157.6L1157.6,1157.6l-82.7,0v0H1157.6z M1074.9,1405.7h82.7v-165.4h0v165.4L1074.9,1405.7L1074.9,1405.7z
			 M1488.4,1405.7H1323v0L1488.4,1405.7L1488.4,1405.7z M1488.4,413.4L1488.4,413.4l-82.7,0v0H1488.4z M1157.6,413.4L1157.6,413.4
			l0,82.7h0V413.4z M909.6,1157.6L909.6,1157.6l-82.7,0v0H909.6z M909.5,1405.7H744.2v0L909.5,1405.7V1323H661.5v-82.7H496.1v-82.7
			h165.4v-82.7h0v82.7h82.7v0h-82.7v82.7h248.1v330.8h0V1405.7z M909.5,1653.7L909.5,1653.7L909.5,1653.7L909.5,1653.7L909.5,1653.7
			z M1157.6,1571.1v-82.7h0L1157.6,1571.1L1157.6,1571.1z M1571.1,1653.7h-330.8v0L1571.1,1653.7L1571.1,1653.7z M1653.7,1571.1
			v-82.7h0L1653.7,1571.1L1653.7,1571.1z M1736.4,1405.7h-165.4v0L1736.4,1405.7L1736.4,1405.7z M1819.1,1240.3h-82.7v82.7h-82.7
			v-82.7h-165.4v-82.7h-82.7v82.7h0V992.2h82.7V826.9h82.7v-82.7h165.4v82.7h82.7V1240.3z"/>
		<polygon class="st2" points="1488.4,1157.6 1488.4,1157.6 1405.7,1157.6 1405.7,1240.3 1405.7,1240.3 1405.7,1157.6 		"/>
		<rect x="1405.7" y="1157.6" class="st2" width="0" height="82.7"/>
		<rect x="1157.6" y="1157.6" class="st2" width="0" height="0"/>
		<rect x="1074.9" y="1157.6" class="st2" width="82.7" height="0"/>
		<rect x="909.5" y="1157.6" class="st2" width="0" height="0"/>
		<rect x="826.9" y="1157.6" class="st2" width="82.7" height="0"/>
		<polygon class="st2" points="744.2,1157.6 744.2,1157.6 661.5,1157.6 661.5,1240.3 661.5,1240.3 661.5,1157.6 		"/>
		<rect x="578.8" y="1157.6" class="st0" width="82.7" height="82.7"/>
		<rect x="496.1" y="1157.6" class="st0" width="82.7" height="82.7"/>
		<rect x="413.4" y="1157.6" class="st2" width="0" height="0"/>
		<rect x="330.8" y="1157.6" class="st2" width="82.7" height="0"/>
		<rect x="248.1" y="1157.6" class="st0" width="82.7" height="82.7"/>
		<rect x="1901.8" y="1240.3" class="st0" width="82.7" height="82.7"/>
		<rect x="1901.8" y="1240.3" class="st2" width="0" height="82.7"/>
		<rect x="1653.7" y="1240.3" class="st0" width="82.7" height="82.7"/>
		<rect x="1653.7" y="1240.3" class="st2" width="0" height="82.7"/>
		<rect x="1157.6" y="1240.3" class="st2" width="0" height="82.7"/>
		<rect x="1157.6" y="1240.3" class="st2" width="0" height="82.7"/>
		<rect x="909.5" y="1240.3" class="st2" width="0" height="82.7"/>
		<rect x="826.9" y="1240.3" class="st3" width="82.7" height="82.7"/>
		<rect x="744.2" y="1240.3" class="st0" width="82.7" height="82.7"/>
		<rect x="661.5" y="1240.3" class="st0" width="82.7" height="82.7"/>
		<rect x="661.5" y="1240.3" class="st2" width="0" height="82.7"/>
		<rect x="248.1" y="1240.3" class="st0" width="82.7" height="82.7"/>
		<rect x="1901.8" y="1323" class="st0" width="82.7" height="82.7"/>
		<polygon class="st2" points="1901.8,1323 1901.8,1405.7 1819.1,1405.7 1819.1,1405.7 1901.8,1405.7 1901.8,1323 		"/>
		<rect x="1653.7" y="1405.7" class="st2" width="82.7" height="0"/>
		<rect x="1571.1" y="1405.7" class="st2" width="82.7" height="0"/>
		<rect x="1405.7" y="1405.7" class="st2" width="82.7" height="0"/>
		<rect x="1323" y="1405.7" class="st2" width="82.7" height="0"/>
		<rect x="1157.6" y="1323" class="st2" width="0" height="82.7"/>
		<polygon class="st2" points="1157.6,1323 1157.6,1405.7 1074.9,1405.7 1074.9,1405.7 1157.6,1405.7 1157.6,1323 		"/>
		<rect x="909.5" y="1323" class="st2" width="0" height="82.7"/>
		<polygon class="st2" points="909.6,1323 909.6,1405.7 826.9,1405.7 826.9,1405.7 909.5,1405.7 909.5,1323 		"/>
		<rect x="744.2" y="1405.7" class="st2" width="82.7" height="0"/>
		<rect x="661.5" y="1405.7" class="st2" width="0" height="0"/>
		<rect x="578.8" y="1405.7" class="st2" width="82.7" height="0"/>
		<rect x="496.1" y="1405.7" class="st2" width="82.7" height="0"/>
		<rect x="413.4" y="1323" class="st2" width="0" height="82.7"/>
		<rect x="330.8" y="1323" class="st0" width="82.7" height="82.7"/>
		<rect x="1819.1" y="1405.7" class="st0" width="82.7" height="82.7"/>
		<rect x="1653.7" y="1405.7" class="st2" width="82.7" height="0"/>
		<rect x="1571.1" y="1405.7" class="st2" width="82.7" height="0"/>
		<rect x="1405.7" y="1405.7" class="st2" width="82.7" height="0"/>
		<rect x="1323" y="1405.7" class="st2" width="82.7" height="0"/>
		<rect x="1157.6" y="1405.7" class="st2" width="0" height="0"/>
		<rect x="1074.9" y="1405.7" class="st2" width="82.7" height="0"/>
		<rect x="909.5" y="1405.7" class="st2" width="0" height="82.7"/>
		<polygon class="st2" points="909.6,1405.7 909.6,1488.4 909.5,1488.4 909.5,1405.7 826.9,1405.7 826.9,1405.7 		"/>
		<rect x="744.2" y="1405.7" class="st2" width="82.7" height="0"/>
		<rect x="661.5" y="1405.7" class="st2" width="0" height="82.7"/>
		<rect x="578.8" y="1405.7" class="st0" width="82.7" height="82.7"/>
		<rect x="496.1" y="1405.7" class="st0" width="82.7" height="82.7"/>
		<rect x="413.4" y="1405.7" class="st2" width="0" height="82.7"/>
		<rect x="330.8" y="1405.7" class="st0" width="82.7" height="82.7"/>
		<rect x="1819.1" y="1488.4" class="st0" width="82.7" height="82.7"/>
		<rect x="1653.7" y="1488.4" class="st2" width="0" height="82.7"/>
		<rect x="1653.7" y="1488.4" class="st2" width="0" height="82.7"/>
		<rect x="1157.6" y="1488.4" class="st2" width="0" height="82.7"/>
		<rect x="1157.6" y="1488.4" class="st2" width="0" height="82.7"/>
		<rect x="909.5" y="1488.4" class="st2" width="0" height="82.7"/>
		<rect x="909.5" y="1488.4" class="st2" width="0" height="82.7"/>
		<rect x="744.2" y="1488.4" class="st0" width="82.7" height="82.7"/>
		<rect x="661.5" y="1488.4" class="st0" width="82.7" height="82.7"/>
		<rect x="661.5" y="1488.4" class="st2" width="0" height="82.7"/>
		<rect x="413.4" y="1488.4" class="st0" width="82.7" height="82.7"/>
		<rect x="1736.4" y="1571.1" class="st0" width="82.7" height="82.7"/>
		<rect x="1653.7" y="1653.7" class="st2" width="82.7" height="0"/>
		<rect x="1653.7" y="1653.7" class="st2" width="0" height="0"/>
		<rect x="1488.4" y="1653.7" class="st2" width="82.7" height="0"/>
		<rect x="1405.7" y="1653.7" class="st2" width="82.7" height="0"/>
		<rect x="1323" y="1653.7" class="st2" width="82.7" height="0"/>
		<rect x="1240.3" y="1653.7" class="st2" width="82.7" height="0"/>
		<rect x="1157.6" y="1653.7" class="st2" width="0" height="0"/>
		<rect x="1074.9" y="1653.7" class="st2" width="82.7" height="0"/>
		<rect x="909.5" y="1653.7" class="st2" width="0" height="0"/>
		<rect x="909.5" y="1653.7" class="st2" width="0" height="0"/>
		<rect x="744.2" y="1653.7" class="st2" width="82.7" height="0"/>
		<rect x="661.5" y="1653.7" class="st2" width="82.7" height="0"/>
		<rect x="578.8" y="1653.7" class="st2" width="82.7" height="0"/>
		<rect x="496.1" y="1571.1" class="st0" width="82.7" height="82.7"/>
		<rect x="1653.7" y="1653.7" class="st0" width="82.7" height="82.7"/>
		<rect x="1653.7" y="1653.7" class="st2" width="0" height="82.7"/>
		<rect x="1488.4" y="1653.7" class="st2" width="82.7" height="0"/>
		<rect x="1405.7" y="1653.7" class="st2" width="82.7" height="0"/>
		<rect x="1323" y="1653.7" class="st2" width="82.7" height="0"/>
		<rect x="1240.3" y="1653.7" class="st2" width="82.7" height="0"/>
		<rect x="1157.6" y="1653.7" class="st2" width="0" height="82.7"/>
		<rect x="1074.9" y="1653.7" class="st0" width="82.7" height="82.7"/>
		<rect x="909.5" y="1653.7" class="st2" width="0" height="0"/>
		<rect x="909.5" y="1653.7" class="st2" width="0" height="0"/>
		<rect x="744.2" y="1653.7" class="st2" width="82.7" height="0"/>
		<polygon class="st2" points="744.2,1653.7 744.2,1653.7 661.5,1653.7 661.5,1736.4 661.5,1736.4 661.5,1653.7 		"/>
		<rect x="578.8" y="1653.7" class="st0" width="82.7" height="82.7"/>
		<rect x="1571.1" y="1736.4" class="st0" width="82.7" height="82.7"/>
		<rect x="1488.4" y="1736.4" class="st0" width="82.7" height="82.7"/>
		<rect x="1405.7" y="1736.4" class="st0" width="82.7" height="82.7"/>
		<rect x="1323" y="1736.4" class="st3" width="82.7" height="82.7"/>
		<rect x="1240.3" y="1736.4" class="st3" width="82.7" height="82.7"/>
		<rect x="1157.6" y="1736.4" class="st3" width="82.7" height="82.7"/>
		<rect x="1074.9" y="1736.4" class="st3" width="82.7" height="82.7"/>
		<rect x="992.2" y="1736.4" class="st0" width="82.7" height="82.7"/>
		<rect x="909.5" y="1736.4" class="st0" width="82.7" height="82.7"/>
		<rect x="826.9" y="1736.4" class="st0" width="82.7" height="82.7"/>
		<rect x="744.2" y="1736.4" class="st0" width="82.7" height="82.7"/>
		<rect x="661.5" y="1736.4" class="st0" width="82.7" height="82.7"/>
		<rect x="578.8" y="1736.4" class="st0" width="82.7" height="82.7"/>
		<rect x="1323" y="1819.1" class="st0" width="82.7" height="82.7"/>
		<rect x="1240.3" y="1819.1" class="st0" width="82.7" height="82.7"/>
		<rect x="1157.6" y="1819.1" class="st5" width="82.7" height="82.7"/>
		<rect x="1074.9" y="1819.1" class="st0" width="82.7" height="82.7"/>
		<rect x="992.2" y="1819.1" class="st0" width="82.7" height="82.7"/>
		<rect x="909.5" y="1819.1" class="st0" width="82.7" height="82.7"/>
		<rect x="826.9" y="1819.1" class="st0" width="82.7" height="82.7"/>
		<rect x="744.2" y="1819.1" class="st5" width="82.7" height="82.7"/>
		<rect x="661.5" y="1819.1" class="st0" width="82.7" height="82.7"/>
		<rect x="1405.7" y="1901.8" class="st0" width="82.7" height="82.7"/>
		<rect x="1323" y="1901.8" class="st0" width="82.7" height="82.7"/>
		<rect x="1240.3" y="1901.8" class="st0" width="82.7" height="82.7"/>
		<rect x="1157.6" y="1901.8" class="st5" width="82.7" height="82.7"/>
		<rect x="1074.9" y="1901.8" class="st0" width="82.7" height="82.7"/>
		<rect x="826.9" y="1901.8" class="st0" width="82.7" height="82.7"/>
		<rect x="744.2" y="1901.8" class="st5" width="82.7" height="82.7"/>
		<rect x="661.5" y="1901.8" class="st0" width="82.7" height="82.7"/>
		<rect x="1488.4" y="1984.5" class="st0" width="82.7" height="82.7"/>
		<rect x="1405.7" y="1984.5" class="st5" width="82.7" height="82.7"/>
		<rect x="1323" y="1984.5" class="st5" width="82.7" height="82.7"/>
		<rect x="1240.3" y="1984.5" class="st5" width="82.7" height="82.7"/>
		<rect x="1157.6" y="1984.5" class="st5" width="82.7" height="82.7"/>
		<rect x="1074.9" y="1984.5" class="st5" width="82.7" height="82.7"/>
		<rect x="992.2" y="1984.5" class="st0" width="82.7" height="82.7"/>
		<rect x="826.9" y="1984.5" class="st0" width="82.7" height="82.7"/>
		<rect x="744.2" y="1984.5" class="st5" width="82.7" height="82.7"/>
		<rect x="661.5" y="1984.5" class="st0" width="82.7" height="82.7"/>
		<rect x="1488.4" y="2067.2" class="st0" width="82.7" height="82.7"/>
		<rect x="1405.7" y="2067.2" class="st0" width="82.7" height="82.7"/>
		<rect x="1323" y="2067.2" class="st0" width="82.7" height="82.7"/>
		<rect x="1240.3" y="2067.2" class="st5" width="82.7" height="82.7"/>
		<rect x="1157.6" y="2067.2" class="st0" width="82.7" height="82.7"/>
		<rect x="1074.9" y="2067.2" class="st0" width="82.7" height="82.7"/>
		<rect x="992.2" y="2067.2" class="st0" width="82.7" height="82.7"/>
		<rect x="909.5" y="2067.2" class="st0" width="82.7" height="82.7"/>
		<rect x="826.9" y="2067.2" class="st4" width="82.7" height="82.7"/>
		<rect x="744.2" y="2067.2" class="st4" width="82.7" height="82.7"/>
		<rect x="661.5" y="2067.2" class="st5" width="82.7" height="82.7"/>
		<rect x="578.8" y="2067.2" class="st0" width="82.7" height="82.7"/>
		<rect x="1323" y="2149.9" class="st0" width="82.7" height="82.7"/>
		<rect x="1240.3" y="2149.9" class="st0" width="82.7" height="82.7"/>
		<rect x="1074.9" y="2149.9" class="st0" width="82.7" height="82.7"/>
		<rect x="992.2" y="2149.9" class="st4" width="82.7" height="82.7"/>
		<rect x="909.5" y="2149.9" class="st4" width="82.7" height="82.7"/>
		<rect x="826.9" y="2149.9" class="st4" width="82.7" height="82.7"/>
		<rect x="744.2" y="2149.9" class="st4" width="82.7" height="82.7"/>
		<rect x="661.5" y="2149.9" class="st0" width="82.7" height="82.7"/>
		<rect x="1074.9" y="2232.5" class="st0" width="82.7" height="82.7"/>
		<rect x="992.2" y="2232.5" class="st0" width="82.7" height="82.7"/>
		<rect x="909.5" y="2232.5" class="st0" width="82.7" height="82.7"/>
		<rect x="826.9" y="2232.5" class="st0" width="82.7" height="82.7"/>
		<rect x="744.2" y="2232.5" class="st4" width="82.7" height="82.7"/>
		<rect x="661.5" y="2232.5" class="st0" width="82.7" height="82.7"/>
		<rect x="744.2" y="2315.2" class="st0" width="82.7" height="82.7"/>
		<rect x="661.5" y="2315.2" class="st0" width="82.7" height="82.7"/>
	</g>
</g>
</svg>
